<svg width="36" height="32" viewBox="0 0 36 32" fill="none" xmlns="http://www.w3.org/2000/svg">
<g id="Container menu burger">
<path id="Vector" d="M31.9287 22.5714H4.07155C3.78739 22.5714 3.51487 22.6805 3.31394 22.8748C3.113 23.069 3.00012 23.3325 3.00012 23.6071V25.6786C3.00012 25.9533 3.113 26.2167 3.31394 26.4109C3.51487 26.6052 3.78739 26.7143 4.07155 26.7143H31.9287C32.2129 26.7143 32.4854 26.6052 32.6863 26.4109C32.8872 26.2167 33.0001 25.9533 33.0001 25.6786V23.6071C33.0001 23.3325 32.8872 23.069 32.6863 22.8748C32.4854 22.6805 32.2129 22.5714 31.9287 22.5714ZM31.9287 14.2857H4.07155C3.78739 14.2857 3.51487 14.3948 3.31394 14.5891C3.113 14.7833 3.00012 15.0467 3.00012 15.3214V17.3929C3.00012 17.6675 3.113 17.931 3.31394 18.1252C3.51487 18.3195 3.78739 18.4286 4.07155 18.4286H31.9287C32.2129 18.4286 32.4854 18.3195 32.6863 18.1252C32.8872 17.931 33.0001 17.6675 33.0001 17.3929V15.3214C33.0001 15.0467 32.8872 14.7833 32.6863 14.5891C32.4854 14.3948 32.2129 14.2857 31.9287 14.2857ZM31.9287 6H4.07155C3.78739 6 3.51487 6.10912 3.31394 6.30335C3.113 6.49759 3.00012 6.76103 3.00012 7.03571V9.10714C3.00012 9.38183 3.113 9.64527 3.31394 9.8395C3.51487 10.0337 3.78739 10.1429 4.07155 10.1429H31.9287C32.2129 10.1429 32.4854 10.0337 32.6863 9.8395C32.8872 9.64527 33.0001 9.38183 33.0001 9.10714V7.03571C33.0001 6.76103 32.8872 6.49759 32.6863 6.30335C32.4854 6.10912 32.2129 6 31.9287 6Z" fill="white"/>
</g>
</svg>
