<svg width="42" height="40" viewBox="0 0 42 40" fill="none" xmlns="http://www.w3.org/2000/svg">
<path d="M28.9609 19.5517L40.9011 8.43501C42.3663 7.07084 42.3663 4.85905 40.9011 3.49376L38.2474 1.02313C36.7822 -0.341044 34.4066 -0.341044 32.9402 1.02313L21 12.1398L9.05983 1.02313C7.5946 -0.341044 5.21898 -0.341044 3.75256 1.02313L1.09892 3.49376C-0.366307 4.85794 -0.366307 7.06972 1.09892 8.43501L13.0391 19.5517L1.09892 30.6684C-0.366307 32.0326 -0.366307 34.2444 1.09892 35.6097L3.75256 38.0803C5.21778 39.4445 7.5946 39.4445 9.05983 38.0803L21 26.9636L32.9402 38.0803C34.4054 39.4445 36.7822 39.4445 38.2474 38.0803L40.9011 35.6097C42.3663 34.2455 42.3663 32.0337 40.9011 30.6684L28.9609 19.5517Z" fill="#00F0FF"/>
<path d="M28.9609 19.5517L40.9011 8.43501C42.3663 7.07084 42.3663 4.85905 40.9011 3.49376L38.2474 1.02313C36.7822 -0.341044 34.4066 -0.341044 32.9402 1.02313L21 12.1398L9.05983 1.02313C7.5946 -0.341044 5.21898 -0.341044 3.75256 1.02313L1.09892 3.49376C-0.366307 4.85794 -0.366307 7.06972 1.09892 8.43501L13.0391 19.5517L1.09892 30.6684C-0.366307 32.0326 -0.366307 34.2444 1.09892 35.6097L3.75256 38.0803C5.21778 39.4445 7.5946 39.4445 9.05983 38.0803L21 26.9636L32.9402 38.0803C34.4054 39.4445 36.7822 39.4445 38.2474 38.0803L40.9011 35.6097C42.3663 34.2455 42.3663 32.0337 40.9011 30.6684L28.9609 19.5517Z" fill="url(#paint0_linear_199_281)"/>
<defs>
<linearGradient id="paint0_linear_199_281" x1="21" y1="39.1034" x2="21" y2="-2.83931e-06" gradientUnits="userSpaceOnUse">
<stop offset="0.19" stop-color="#1F299E" stop-opacity="0.6"/>
<stop offset="0.89" stop-opacity="0"/>
</linearGradient>
</defs>
</svg>
