<svg width="129" height="65" viewBox="0 0 129 65" fill="none" xmlns="http://www.w3.org/2000/svg">
<g clip-path="url(#clip0_211_268)">
<path d="M85.3801 4.11261C84.2032 4.11261 83.0858 4.50708 82.0888 5.29507C81.0927 6.08306 80.3389 7.12251 79.8855 8.44798L74.5417 23.6376L69.1677 8.44798C68.7151 7.12203 67.9908 6.08258 66.9938 5.29507C65.9969 4.50756 64.8807 4.11261 63.703 4.11261H54.0415L57.7857 14.7452L54.6393 23.6376L49.2947 8.44798C48.8421 7.12203 48.0875 6.08258 47.0909 5.29507C46.0944 4.50756 44.9774 4.11261 43.8001 4.11261H34.1689L46.276 38.5772C46.5179 39.2577 46.8802 39.7597 47.3931 40.1537C47.8759 40.5477 48.4195 40.7627 49.0233 40.7627H60.3757C61.6436 40.6912 62.5192 39.9742 63.0025 38.5772L64.5907 34.0676L66.1785 38.5772C66.6618 39.9742 67.537 40.6912 68.8057 40.7627H80.1577C80.7611 40.7627 81.3046 40.5477 81.7879 40.1537C82.3008 39.7597 82.6631 39.2582 82.9046 38.5772L95.0116 4.11261H85.3801ZM49.0233 39.3657C48.2383 39.3657 47.6944 38.9357 47.3631 38.0402L35.9501 5.51006H37.7963L49.5398 38.94C49.5932 39.0912 49.6554 39.2313 49.7218 39.3657H49.0233ZM50.9945 39.3657L50.7753 38.7399C50.7201 38.6309 50.6704 38.5181 50.6265 38.4021L39.2142 5.87142H39.2288L39.1022 5.51054H40.7826L52.5257 38.9405C52.5795 39.0912 52.6393 39.2323 52.7053 39.3662L50.9945 39.3657ZM53.9804 39.3657L53.7608 38.7399C53.7056 38.6311 53.6563 38.5183 53.6132 38.4021L42.1997 5.87142H42.2151L42.0885 5.51054H43.7689L55.512 38.9405C55.5654 39.0917 55.6277 39.2318 55.6936 39.3662L53.9804 39.3657ZM56.9668 39.3657L56.7467 38.7399C56.6918 38.631 56.6426 38.5182 56.5995 38.4021L45.1861 5.87142H45.2018L45.1561 5.74233C45.6083 5.90358 46.0406 6.14784 46.4572 6.47753C47.2418 7.08652 47.8157 7.94649 48.208 8.98546L58.8356 39.1512C58.8356 39.1152 58.866 39.1872 58.8963 39.3662L56.9668 39.3657ZM72.4342 38.7404L72.2142 39.3662H70.2847C70.3142 39.1867 70.345 39.1152 70.345 39.1512L80.9722 8.98546C81.3645 7.94649 81.9384 7.08652 82.7238 6.47753C83.1241 6.1567 83.5626 5.90888 84.0249 5.74233L83.9779 5.87142H83.9941L72.5819 38.4025C72.5385 38.5186 72.4892 38.6315 72.4342 38.7404ZM75.4206 38.7404L75.2006 39.3662H73.487C73.5533 39.2318 73.6152 39.0917 73.6686 38.9405L85.4117 5.51054H87.0929L86.9659 5.87142H86.9808L75.5682 38.403C75.5245 38.5187 75.4752 38.6314 75.4206 38.7404ZM78.4057 38.7404L78.1865 39.3662H76.4757C76.5431 39.229 76.6029 39.0868 76.6549 38.9405L88.3976 5.51054H90.078L89.9514 5.87142H89.9656L78.5537 38.403C78.5103 38.519 78.4609 38.6317 78.4057 38.7404ZM81.8175 38.0402C81.4862 38.9357 80.9419 39.3657 80.1577 39.3657H79.4588C79.5247 39.2313 79.5874 39.0912 79.6412 38.94L91.3843 5.51006H93.2297L81.8175 38.0402Z" fill="url(#paint0_linear_211_268)"/>
</g>
<path d="M11.851 51.285C11.8185 51.3954 11.838 51.4734 11.9095 51.5189C11.9875 51.5579 12.0654 51.5774 12.1434 51.5774V51.7627H9.85236V51.5774C9.91086 51.5774 9.9726 51.5644 10.0376 51.5384C10.1026 51.5059 10.1351 51.4507 10.1351 51.3727C10.1351 51.3402 10.1318 51.3142 10.1253 51.2947L8.29248 44.7334C8.27948 44.6684 8.21448 44.6359 8.09749 44.6359V44.4507H9.9986V44.6359C9.92061 44.6359 9.86211 44.6587 9.82311 44.7042C9.78412 44.7432 9.76787 44.7854 9.77437 44.8309L10.993 49.8128L12.1239 44.9284C12.1304 44.9089 12.1337 44.8829 12.1337 44.8504C12.1337 44.7724 12.0979 44.7172 12.0265 44.6847C11.955 44.6522 11.8867 44.6359 11.8217 44.6359V44.4507H14.142V44.6359C14.064 44.6359 13.9861 44.6587 13.9081 44.7042C13.8301 44.7432 13.8073 44.8179 13.8398 44.9284L14.9512 49.5788L15.9067 44.8309C15.9197 44.7919 15.8872 44.7497 15.8092 44.7042C15.7377 44.6587 15.6597 44.6359 15.5752 44.6359V44.4507H17.6518V44.6359C17.5413 44.6359 17.4763 44.6684 17.4568 44.7334L15.6532 51.2947C15.6467 51.3142 15.6434 51.3402 15.6434 51.3727C15.6434 51.4507 15.6727 51.5059 15.7312 51.5384C15.7962 51.5644 15.8579 51.5774 15.9164 51.5774V51.7627H13.7911V51.5774C13.8626 51.5774 13.9341 51.5579 14.0056 51.5189C14.0835 51.4734 14.1095 51.3954 14.0835 51.285L13.0209 46.3616L11.851 51.285ZM23.4916 50.3978V51.9577H23.3064C23.3064 51.9122 23.2966 51.8667 23.2771 51.8212C23.2576 51.7757 23.2316 51.7529 23.1991 51.7529H18.2367V51.5677C18.2822 51.5677 18.3277 51.5579 18.3732 51.5384C18.4252 51.5189 18.4512 51.4929 18.4512 51.4604V44.7334C18.4512 44.7009 18.4252 44.6749 18.3732 44.6554C18.3277 44.6359 18.2822 44.6262 18.2367 44.6262V44.441H22.9456C22.9781 44.441 23.0041 44.4182 23.0236 44.3727C23.0431 44.3272 23.0529 44.2817 23.0529 44.2362H23.2381V45.7961H23.0529C23.0529 45.7506 23.0431 45.7051 23.0236 45.6596C23.0041 45.6141 22.9781 45.5914 22.9456 45.5914H19.7089V47.3072H22.4679C22.5004 47.3072 22.5264 47.2845 22.5459 47.239C22.5654 47.1935 22.5752 47.148 22.5752 47.1025H22.7604V48.6624H22.5752C22.5752 48.6169 22.5654 48.5714 22.5459 48.5259C22.5264 48.4804 22.5004 48.4577 22.4679 48.4577H19.7089V50.6025H23.1991C23.2316 50.6025 23.2576 50.5798 23.2771 50.5343C23.2966 50.4888 23.3064 50.4433 23.3064 50.3978H23.4916ZM28.2139 47.59C28.4284 47.655 28.6429 47.7817 28.8574 47.9702C29.0783 48.1522 29.2603 48.3862 29.4033 48.6721C29.5528 48.9581 29.6275 49.2766 29.6275 49.6276C29.6275 50.0045 29.5366 50.3555 29.3546 50.6805C29.1726 51.0055 28.9029 51.2687 28.5454 51.4702C28.1879 51.6652 27.7622 51.7627 27.2682 51.7627H24.1777V51.5774C24.2232 51.5774 24.2687 51.5677 24.3142 51.5482C24.3662 51.5287 24.3922 51.5027 24.3922 51.4702V44.7432C24.3922 44.7107 24.3662 44.6847 24.3142 44.6652C24.2687 44.6457 24.2232 44.6359 24.1777 44.6359V44.4507H26.4298C26.8653 44.4507 27.2487 44.5352 27.5802 44.7042C27.9182 44.8667 28.1782 45.0974 28.3601 45.3964C28.5486 45.6889 28.6429 46.0236 28.6429 46.4006C28.6429 46.888 28.4999 47.2845 28.2139 47.59ZM25.6596 45.6011V47.3267H26.2738C26.6768 47.3267 26.953 47.2488 27.1025 47.0928C27.2585 46.9303 27.3365 46.706 27.3365 46.4201C27.3365 46.1926 27.2357 46.0008 27.0342 45.8449C26.8393 45.6824 26.5858 45.6011 26.2738 45.6011H25.6596ZM26.9855 50.6123C27.4795 50.6123 27.8304 50.5115 28.0384 50.31C28.2529 50.1085 28.3601 49.8681 28.3601 49.5886C28.3601 49.2961 28.2691 49.0394 28.0872 48.8184C27.9052 48.5909 27.5932 48.4772 27.1512 48.4772H25.6596V50.6123H26.9855ZM34.126 51.8602C33.4306 51.8602 32.7904 51.6977 32.2054 51.3727C31.6204 51.0412 31.159 50.5863 30.821 50.0078C30.483 49.4228 30.314 48.7729 30.314 48.0579C30.314 47.304 30.483 46.6378 30.821 46.0593C31.159 45.4809 31.6139 45.0357 32.1859 44.7237C32.7579 44.4052 33.3851 44.246 34.0675 44.246C34.724 44.246 35.2764 44.363 35.7249 44.5969C36.1798 44.8244 36.6088 45.1462 37.0118 45.5621C37.0248 45.5751 37.0443 45.5816 37.0703 45.5816C37.1093 45.5816 37.1775 45.5524 37.275 45.4939L37.392 45.6401L36.0466 46.7028L35.9296 46.5566C35.9686 46.5306 35.9979 46.4981 36.0174 46.4591C36.0434 46.4136 36.0434 46.3811 36.0174 46.3616C35.7444 46.0951 35.4584 45.8936 35.1594 45.7571C34.8669 45.6141 34.5095 45.5426 34.087 45.5426C33.645 45.5426 33.2388 45.6531 32.8683 45.8741C32.4979 46.0886 32.2054 46.3876 31.9909 46.771C31.7764 47.1545 31.6692 47.5835 31.6692 48.0579C31.6692 48.5129 31.7829 48.9289 32.0104 49.3058C32.2379 49.6763 32.5401 49.9688 32.9171 50.1833C33.2941 50.3978 33.697 50.505 34.126 50.505C34.529 50.505 34.8734 50.4368 35.1594 50.3003C35.4454 50.1573 35.7151 49.946 35.9686 49.6666L35.9881 49.6276C35.9881 49.5951 35.9719 49.5593 35.9394 49.5203C35.9134 49.4748 35.8841 49.4423 35.8516 49.4228L35.9784 49.2863L37.431 50.505L37.314 50.6512C37.275 50.6187 37.2263 50.5895 37.1678 50.5635C37.1093 50.5375 37.0703 50.5375 37.0508 50.5635C36.6413 51.0055 36.2123 51.3337 35.7639 51.5482C35.3154 51.7562 34.7695 51.8602 34.126 51.8602ZM43.6574 51.5092C43.6834 51.5547 43.7711 51.5774 43.9206 51.5774V51.7627H41.9415V51.5774C42.0325 51.5774 42.0942 51.5612 42.1267 51.5287C42.1592 51.4962 42.1625 51.4637 42.1365 51.4312L40.4986 48.6721H39.4944V51.4702C39.4944 51.5027 39.5204 51.5287 39.5724 51.5482C39.6244 51.5677 39.6732 51.5774 39.7187 51.5774V51.7627H37.9638V51.5774C38.0093 51.5774 38.058 51.5677 38.11 51.5482C38.162 51.5287 38.188 51.5027 38.188 51.4702V44.7432C38.188 44.7107 38.162 44.6847 38.11 44.6652C38.0645 44.6457 38.019 44.6359 37.9735 44.6359V44.4507H40.9471C41.805 44.4507 42.4517 44.6457 42.8872 45.0357C43.3291 45.4191 43.5501 45.9163 43.5501 46.5273C43.5501 47.0928 43.3941 47.5477 43.0822 47.8922C42.7767 48.2367 42.3802 48.4674 41.8927 48.5844L43.6574 51.5092ZM39.4944 45.5816V47.4925H41.0933C41.4963 47.4925 41.7985 47.3982 42 47.2098C42.2015 47.0213 42.3022 46.7938 42.3022 46.5273C42.3022 46.2673 42.1885 46.0463 41.961 45.8644C41.7335 45.6759 41.454 45.5816 41.1226 45.5816H39.4944ZM51.746 51.4897C51.7655 51.5482 51.8435 51.5774 51.98 51.5774V51.7627H50.0009V51.5774C50.0854 51.5774 50.1439 51.5579 50.1764 51.5189C50.2089 51.4799 50.2154 51.4409 50.1959 51.4019L49.6596 50.0273H46.4814L45.9452 51.4019L45.9354 51.4312C45.9354 51.4702 45.9517 51.5059 45.9842 51.5384C46.0232 51.5644 46.0719 51.5774 46.1304 51.5774V51.7627H44.2098V51.5774C44.3398 51.5774 44.4178 51.5482 44.4438 51.4897L47.1541 44.8992C47.1736 44.8602 47.1833 44.8244 47.1833 44.7919C47.1833 44.7334 47.1573 44.6944 47.1053 44.6749C47.0533 44.6489 46.9981 44.6359 46.9396 44.6359V44.4507H49.2112V44.6359C49.1527 44.6359 49.0974 44.6489 49.0454 44.6749C48.9934 44.6944 48.9674 44.7334 48.9674 44.7919C48.9674 44.8244 48.9772 44.8602 48.9967 44.8992L51.746 51.4897ZM48.0705 45.9716L46.9201 48.9061H49.2209L48.0705 45.9716ZM57.5115 44.246V45.8059H57.3263C57.3263 45.7604 57.3166 45.7149 57.2971 45.6694C57.2776 45.6239 57.2516 45.6011 57.2191 45.6011H54.0603V47.3267H56.6146C56.6471 47.3267 56.6731 47.304 56.6926 47.2585C56.7121 47.213 56.7219 47.1675 56.7219 47.122H56.9071V48.6819H56.7219C56.7219 48.6364 56.7121 48.5909 56.6926 48.5454C56.6731 48.4999 56.6471 48.4772 56.6146 48.4772H54.0603V51.4702C54.0603 51.5027 54.083 51.5287 54.1285 51.5482C54.1805 51.5677 54.2325 51.5774 54.2845 51.5774V51.7627H52.5687V51.5774C52.6207 51.5774 52.6694 51.5677 52.7149 51.5482C52.7669 51.5287 52.7929 51.5027 52.7929 51.4702V44.7432C52.7929 44.7107 52.7669 44.6847 52.7149 44.6652C52.6694 44.6457 52.6239 44.6359 52.5784 44.6359V44.4507H57.2191C57.2516 44.4507 57.2776 44.428 57.2971 44.3825C57.3166 44.337 57.3263 44.2915 57.3263 44.246H57.5115ZM64.123 44.2557V45.7571H63.9378C63.9378 45.7181 63.928 45.6759 63.9085 45.6304C63.889 45.5849 63.863 45.5621 63.8305 45.5621H61.6564V51.4702C61.6564 51.5027 61.6824 51.5287 61.7344 51.5482C61.7864 51.5677 61.8384 51.5774 61.8904 51.5774V51.7627H60.0965V51.5774C60.1485 51.5774 60.2005 51.5677 60.2525 51.5482C60.3045 51.5287 60.3305 51.5027 60.3305 51.4702V45.5621H58.1467C58.1142 45.5621 58.0882 45.5849 58.0687 45.6304C58.0492 45.6759 58.0394 45.7181 58.0394 45.7571H57.8542V44.2557H58.0394C58.0394 44.2947 58.0492 44.337 58.0687 44.3825C58.0882 44.428 58.1142 44.4507 58.1467 44.4507H63.8305C63.863 44.4507 63.889 44.428 63.9085 44.3825C63.928 44.337 63.9378 44.2947 63.9378 44.2557H64.123ZM67.4071 48.9744C67.4396 48.9744 67.4656 48.9549 67.4851 48.9159C67.5046 48.8769 67.5143 48.8379 67.5143 48.7989H67.6995V50.1345H67.5143C67.5143 50.0955 67.5046 50.0565 67.4851 50.0175C67.4656 49.9785 67.4396 49.959 67.4071 49.959H64.8527C64.8203 49.959 64.7943 49.9785 64.7748 50.0175C64.7553 50.0565 64.7455 50.0955 64.7455 50.1345H64.5603V48.7989H64.7455C64.7455 48.8379 64.7553 48.8769 64.7748 48.9159C64.7943 48.9549 64.8203 48.9744 64.8527 48.9744H67.4071ZM75.6241 51.4897C75.6436 51.5482 75.7216 51.5774 75.8581 51.5774V51.7627H73.879V51.5774C73.9635 51.5774 74.022 51.5579 74.0545 51.5189C74.087 51.4799 74.0935 51.4409 74.074 51.4019L73.5378 50.0273H70.3595L69.8233 51.4019L69.8135 51.4312C69.8135 51.4702 69.8298 51.5059 69.8623 51.5384C69.9013 51.5644 69.95 51.5774 70.0085 51.5774V51.7627H68.0879V51.5774C68.2179 51.5774 68.2959 51.5482 68.3219 51.4897L71.0322 44.8992C71.0517 44.8602 71.0614 44.8244 71.0614 44.7919C71.0614 44.7334 71.0354 44.6944 70.9834 44.6749C70.9314 44.6489 70.8762 44.6359 70.8177 44.6359V44.4507H73.0893V44.6359C73.0308 44.6359 72.9755 44.6489 72.9235 44.6749C72.8716 44.6944 72.8456 44.7334 72.8456 44.7919C72.8456 44.8244 72.8553 44.8602 72.8748 44.8992L75.6241 51.4897ZM71.9486 45.9716L70.7982 48.9061H73.099L71.9486 45.9716ZM83.0373 44.6359C82.9918 44.6359 82.943 44.6457 82.891 44.6652C82.839 44.6847 82.813 44.7107 82.813 44.7432V51.4702C82.813 51.5027 82.8358 51.5287 82.8813 51.5482C82.9333 51.5677 82.982 51.5774 83.0275 51.5774V51.7627H81.3117V51.5774C81.4676 51.5774 81.5164 51.5352 81.4579 51.4507L77.9969 46.6735V51.4702C77.9969 51.5027 78.0229 51.5287 78.0749 51.5482C78.1269 51.5677 78.1789 51.5774 78.2309 51.5774V51.7627H76.4468V51.5774C76.4988 51.5774 76.5508 51.5677 76.6028 51.5482C76.6548 51.5287 76.6808 51.5027 76.6808 51.4702V44.7432C76.6808 44.7107 76.6548 44.6847 76.6028 44.6652C76.5573 44.6457 76.5118 44.6359 76.4663 44.6359V44.4507H78.2309V44.6359C78.0749 44.6359 78.0262 44.6782 78.0846 44.7627L81.6431 49.6958L81.5164 44.7432C81.5164 44.7107 81.4871 44.6847 81.4286 44.6652C81.3767 44.6457 81.3279 44.6359 81.2824 44.6359V44.4507H83.0373V44.6359ZM89.9433 44.2557V45.7571H89.7581C89.7581 45.7181 89.7484 45.6759 89.7289 45.6304C89.7094 45.5849 89.6834 45.5621 89.6509 45.5621H87.4768V51.4702C87.4768 51.5027 87.5028 51.5287 87.5548 51.5482C87.6068 51.5677 87.6588 51.5774 87.7108 51.5774V51.7627H85.9169V51.5774C85.9689 51.5774 86.0209 51.5677 86.0729 51.5482C86.1249 51.5287 86.1509 51.5027 86.1509 51.4702V45.5621H83.967C83.9345 45.5621 83.9085 45.5849 83.889 45.6304C83.8695 45.6759 83.8598 45.7181 83.8598 45.7571H83.6746V44.2557H83.8598C83.8598 44.2947 83.8695 44.337 83.889 44.3825C83.9085 44.428 83.9345 44.4507 83.967 44.4507H89.6509C89.6834 44.4507 89.7094 44.428 89.7289 44.3825C89.7484 44.337 89.7581 44.2947 89.7581 44.2557H89.9433ZM97.0491 44.6359C97.0036 44.6359 96.9516 44.6457 96.8931 44.6652C96.8411 44.6847 96.8151 44.7107 96.8151 44.7432V51.4702C96.8151 51.5027 96.8411 51.5287 96.8931 51.5482C96.9516 51.5677 97.0036 51.5774 97.0491 51.5774V51.7627H95.2163V51.5774C95.2618 51.5774 95.3105 51.5677 95.3625 51.5482C95.421 51.5287 95.4502 51.5027 95.4502 51.4702V48.5259H92.1745V51.4702C92.1745 51.5027 92.2005 51.5287 92.2525 51.5482C92.311 51.5677 92.363 51.5774 92.4085 51.5774V51.7627H90.5756V51.5774C90.6211 51.5774 90.6698 51.5677 90.7218 51.5482C90.7803 51.5287 90.8096 51.5027 90.8096 51.4702V44.7432C90.8096 44.7107 90.7803 44.6847 90.7218 44.6652C90.6698 44.6457 90.6211 44.6359 90.5756 44.6359V44.4507H92.4085V44.6359C92.363 44.6359 92.311 44.6457 92.2525 44.6652C92.2005 44.6847 92.1745 44.7107 92.1745 44.7432V47.3072H95.4502V44.7432C95.4502 44.7107 95.421 44.6847 95.3625 44.6652C95.3105 44.6457 95.2618 44.6359 95.2163 44.6359V44.4507H97.0491V44.6359ZM101.726 51.9187C100.972 51.9187 100.296 51.7464 99.6977 51.4019C99.1063 51.051 98.6448 50.5895 98.3133 50.0175C97.9884 49.4391 97.8259 48.8281 97.8259 48.1847C97.8259 47.5347 97.9819 46.9108 98.2938 46.3128C98.6058 45.7084 99.0575 45.2177 99.649 44.8407C100.24 44.4637 100.933 44.2752 101.726 44.2752C102.499 44.2752 103.178 44.454 103.763 44.8114C104.348 45.1689 104.797 45.6466 105.109 46.2446C105.421 46.836 105.577 47.4827 105.577 48.1847C105.577 48.8086 105.421 49.4098 105.109 49.9883C104.803 50.5603 104.358 51.025 103.773 51.3824C103.188 51.7399 102.506 51.9187 101.726 51.9187ZM101.735 50.6317C102.223 50.6317 102.658 50.531 103.042 50.3295C103.432 50.1215 103.734 49.8323 103.948 49.4618C104.169 49.0849 104.28 48.6591 104.28 48.1847C104.28 47.6842 104.176 47.2358 103.968 46.8393C103.76 46.4428 103.461 46.1308 103.071 45.9034C102.681 45.6694 102.22 45.5524 101.687 45.5524C101.199 45.5524 100.764 45.6694 100.38 45.9034C100.003 46.1308 99.7075 46.4461 99.493 46.849C99.2785 47.252 99.1713 47.6972 99.1713 48.1847C99.1713 48.6916 99.2948 49.1304 99.5417 49.5008C99.7952 49.8713 100.117 50.154 100.507 50.349C100.903 50.5375 101.313 50.6317 101.735 50.6317ZM112.952 44.6359C112.906 44.6359 112.857 44.6457 112.805 44.6652C112.753 44.6847 112.727 44.7107 112.727 44.7432V51.4702C112.727 51.5027 112.75 51.5287 112.796 51.5482C112.848 51.5677 112.896 51.5774 112.942 51.5774V51.7627H111.226V51.5774C111.382 51.5774 111.431 51.5352 111.372 51.4507L107.911 46.6735V51.4702C107.911 51.5027 107.937 51.5287 107.989 51.5482C108.041 51.5677 108.093 51.5774 108.145 51.5774V51.7627H106.361V51.5774C106.413 51.5774 106.465 51.5677 106.517 51.5482C106.569 51.5287 106.595 51.5027 106.595 51.4702V44.7432C106.595 44.7107 106.569 44.6847 106.517 44.6652C106.472 44.6457 106.426 44.6359 106.381 44.6359V44.4507H108.145V44.6359C107.989 44.6359 107.94 44.6782 107.999 44.7627L111.557 49.6958L111.431 44.7432C111.431 44.7107 111.401 44.6847 111.343 44.6652C111.291 44.6457 111.242 44.6359 111.197 44.6359V44.4507H112.952V44.6359ZM120.813 44.6359H120.755C120.631 44.6359 120.556 44.6554 120.53 44.6944L117.908 48.4577V51.4702C117.908 51.5027 117.934 51.5287 117.986 51.5482C118.044 51.5677 118.1 51.5774 118.152 51.5774V51.7627H116.241V51.5774C116.293 51.5774 116.345 51.5677 116.397 51.5482C116.455 51.5287 116.484 51.5027 116.484 51.4702V48.5162L113.823 44.6944C113.803 44.6684 113.761 44.6522 113.696 44.6457C113.638 44.6392 113.586 44.6359 113.54 44.6359V44.4507H115.548V44.6359C115.47 44.6359 115.431 44.6522 115.431 44.6847C115.431 44.7107 115.441 44.7399 115.461 44.7724L117.157 47.161L118.834 44.7724L118.853 44.7334C118.853 44.7009 118.834 44.6782 118.795 44.6652C118.762 44.6457 118.714 44.6359 118.649 44.6359V44.4507H120.813V44.6359Z" fill="#409AED"/>
<path d="M33.771 56.4251L32.9432 59.8499H32.5465L31.6421 56.8482L30.7561 59.8499H30.3647L29.4814 56.4251L29.1667 56.3616V56.1289H30.407V56.3616L30.0844 56.3934C30.065 56.3969 30.05 56.4066 30.0394 56.4225C30.0288 56.4366 30.0235 56.4533 30.0235 56.4727C30.0235 56.478 30.0235 56.4833 30.0235 56.4886C30.0253 56.4921 30.0271 56.4965 30.0288 56.5018L30.6741 58.9455L31.5231 56.1289H31.9409L32.8136 59.0327L33.414 56.5018C33.4158 56.4983 33.4166 56.4921 33.4166 56.4833C33.4166 56.4621 33.4096 56.4427 33.3955 56.4251C33.3814 56.4075 33.362 56.3969 33.3373 56.3934L32.9961 56.3616V56.1289H34.1016V56.3616L33.771 56.4251ZM35.937 59.7627V59.5511L36.1591 59.5352C36.1909 59.5317 36.2182 59.5194 36.2411 59.4982C36.2658 59.477 36.2782 59.4497 36.2782 59.4162V58.0198C36.2782 57.9423 36.2693 57.8709 36.2517 57.8056C36.2358 57.7404 36.2067 57.684 36.1644 57.6364C36.1239 57.5888 36.0692 57.5517 36.0005 57.5253C35.9317 57.4971 35.8453 57.483 35.7413 57.483C35.6937 57.483 35.6434 57.4874 35.5905 57.4962C35.5376 57.5032 35.4848 57.5138 35.4319 57.5279C35.3807 57.542 35.3305 57.5588 35.2811 57.5782C35.2335 57.5976 35.1903 57.6178 35.1515 57.639V59.4162C35.1515 59.4497 35.1612 59.477 35.1806 59.4982C35.2 59.5194 35.2265 59.5317 35.26 59.5352L35.4927 59.5511V59.7627H34.2735V59.5511L34.5327 59.5352C34.5662 59.5317 34.5935 59.5194 34.6147 59.4982C34.6358 59.477 34.6464 59.4497 34.6464 59.4162V56.1606H34.2418V55.9808L34.9347 55.7719H35.1515V57.4221C35.2009 57.3922 35.2617 57.3578 35.334 57.319C35.4063 57.2802 35.483 57.2441 35.5641 57.2106C35.647 57.1753 35.7298 57.1462 35.8127 57.1233C35.8973 57.0986 35.9749 57.0863 36.0454 57.0863C36.1494 57.0863 36.2455 57.103 36.3337 57.1365C36.4236 57.17 36.5012 57.2203 36.5664 57.2873C36.6334 57.3543 36.6854 57.4398 36.7225 57.5438C36.7612 57.6461 36.7806 57.7668 36.7806 57.9061V59.4162C36.7806 59.4497 36.7921 59.477 36.815 59.4982C36.8397 59.5194 36.8679 59.5317 36.8996 59.5352L37.143 59.5511V59.7627H35.937ZM39.74 59.4929C39.6642 59.5405 39.5849 59.5846 39.502 59.6251C39.4209 59.6657 39.3363 59.701 39.2481 59.7309C39.1617 59.7609 39.0736 59.7847 38.9836 59.8023C38.8937 59.82 38.8029 59.8288 38.7112 59.8288C38.5473 59.8288 38.3895 59.8015 38.2378 59.7468C38.0862 59.6904 37.9522 59.6066 37.8359 59.4956C37.7213 59.3845 37.6287 59.2452 37.5582 59.0777C37.4894 58.9084 37.455 58.711 37.455 58.4853C37.455 58.2737 37.4868 58.0824 37.5502 57.9114C37.6137 57.7386 37.7019 57.5914 37.8147 57.4697C37.9275 57.3463 38.0615 57.252 38.2167 57.1868C38.3718 57.1198 38.542 57.0863 38.7271 57.0863C38.8946 57.0863 39.0418 57.1145 39.1688 57.1709C39.2957 57.2256 39.4015 57.3022 39.4861 57.401C39.5708 57.498 39.6342 57.6152 39.6765 57.7527C39.7189 57.8885 39.74 58.0366 39.74 58.197V58.2684C39.74 58.2966 39.7383 58.3231 39.7347 58.3478H37.9787C37.9787 58.4853 37.9928 58.6228 38.021 58.7603C38.051 58.8979 38.1003 59.0213 38.1691 59.1306C38.2378 59.2399 38.3304 59.3289 38.4468 59.3977C38.5631 59.4647 38.7086 59.4982 38.8831 59.4982C38.9607 59.4982 39.0374 59.4885 39.1132 59.4691C39.189 59.448 39.2631 59.4215 39.3354 59.3898C39.4094 59.358 39.48 59.3228 39.547 59.284C39.614 59.2434 39.6783 59.2029 39.74 59.1623V59.4929ZM39.1979 57.9855C39.1979 57.8955 39.1873 57.8127 39.1661 57.7369C39.145 57.6593 39.1123 57.5923 39.0683 57.5359C39.026 57.4794 38.9713 57.4354 38.9043 57.4036C38.8391 57.3701 38.7615 57.3534 38.6716 57.3534C38.5817 57.3534 38.4979 57.371 38.4203 57.4063C38.3428 57.4398 38.274 57.4891 38.214 57.5544C38.1559 57.6196 38.1083 57.6989 38.0712 57.7924C38.036 57.8841 38.0148 57.9881 38.0078 58.1045H39.1979V57.9855ZM41.7764 57.7051C41.7411 57.6646 41.7006 57.6302 41.6547 57.602C41.6089 57.572 41.5525 57.557 41.4855 57.557C41.3973 57.557 41.3083 57.587 41.2184 57.6469C41.1285 57.7051 41.0368 57.7871 40.9433 57.8929V59.4162C40.9433 59.4497 40.9539 59.4779 40.9751 59.5008C40.9962 59.522 41.0236 59.5335 41.0571 59.5352L41.4141 59.5511V59.7627H40.06V59.5564L40.3271 59.5352C40.3589 59.5317 40.3853 59.5194 40.4065 59.4982C40.4294 59.477 40.4408 59.4497 40.4408 59.4162V57.5359H40.0494V57.3587L40.7212 57.1524H40.9433V57.6337C40.9821 57.5914 41.0288 57.5394 41.0835 57.4777C41.1399 57.4142 41.1999 57.3534 41.2633 57.2952C41.3268 57.237 41.392 57.1876 41.459 57.1471C41.5278 57.1065 41.5939 57.0863 41.6574 57.0863C41.6856 57.0863 41.7156 57.0889 41.7473 57.0942C41.779 57.0995 41.8099 57.1065 41.8399 57.1154C41.8698 57.1224 41.8972 57.1312 41.9219 57.1418C41.9483 57.1506 41.9703 57.1594 41.988 57.1683V57.7051H41.7764ZM44.5163 59.4929C44.4405 59.5405 44.3611 59.5846 44.2783 59.6251C44.1971 59.6657 44.1125 59.701 44.0244 59.7309C43.938 59.7609 43.8498 59.7847 43.7599 59.8023C43.67 59.82 43.5792 59.8288 43.4875 59.8288C43.3235 59.8288 43.1657 59.8015 43.0141 59.7468C42.8625 59.6904 42.7285 59.6066 42.6121 59.4956C42.4975 59.3845 42.405 59.2452 42.3344 59.0777C42.2657 58.9084 42.2313 58.711 42.2313 58.4853C42.2313 58.2737 42.263 58.0824 42.3265 57.9114C42.39 57.7386 42.4781 57.5914 42.591 57.4697C42.7038 57.3463 42.8378 57.252 42.9929 57.1868C43.1481 57.1198 43.3182 57.0863 43.5034 57.0863C43.6709 57.0863 43.8181 57.1145 43.945 57.1709C44.072 57.2256 44.1778 57.3022 44.2624 57.401C44.347 57.498 44.4105 57.6152 44.4528 57.7527C44.4951 57.8885 44.5163 58.0366 44.5163 58.197V58.2684C44.5163 58.2966 44.5145 58.3231 44.511 58.3478H42.7549C42.7549 58.4853 42.769 58.6228 42.7972 58.7603C42.8272 58.8979 42.8766 59.0213 42.9453 59.1306C43.0141 59.2399 43.1067 59.3289 43.223 59.3977C43.3394 59.4647 43.4849 59.4982 43.6594 59.4982C43.737 59.4982 43.8137 59.4885 43.8895 59.4691C43.9653 59.448 44.0394 59.4215 44.1116 59.3898C44.1857 59.358 44.2562 59.3228 44.3232 59.284C44.3902 59.2434 44.4546 59.2029 44.5163 59.1623V59.4929ZM43.9741 57.9855C43.9741 57.8955 43.9635 57.8127 43.9424 57.7369C43.9212 57.6593 43.8886 57.5923 43.8445 57.5359C43.8022 57.4794 43.7476 57.4354 43.6806 57.4036C43.6153 57.3701 43.5377 57.3534 43.4478 57.3534C43.3579 57.3534 43.2742 57.371 43.1966 57.4063C43.119 57.4398 43.0502 57.4891 42.9903 57.5544C42.9321 57.6196 42.8845 57.6989 42.8475 57.7924C42.8122 57.8841 42.7911 57.9881 42.784 58.1045H43.9741V57.9855ZM49.4803 59.5617C49.4186 59.5934 49.3534 59.626 49.2846 59.6595C49.2176 59.6913 49.1453 59.7195 49.0677 59.7442C48.9919 59.7688 48.9117 59.7891 48.8271 59.805C48.7442 59.8208 48.6569 59.8288 48.5652 59.8288C48.3748 59.8288 48.2029 59.7953 48.0495 59.7283C47.8979 59.6595 47.7683 59.5652 47.6608 59.4453C47.5532 59.3237 47.4704 59.18 47.4122 59.0142C47.354 58.8485 47.3249 58.6687 47.3249 58.4747C47.3249 58.2473 47.3602 58.0472 47.4307 57.8744C47.5012 57.7016 47.5964 57.557 47.7163 57.4407C47.8362 57.3225 47.9746 57.2344 48.1315 57.1762C48.2902 57.1162 48.4559 57.0863 48.6287 57.0863C48.7468 57.0863 48.857 57.0986 48.9593 57.1233C49.0633 57.1462 49.1524 57.1806 49.2264 57.2264C49.3022 57.2723 49.3613 57.3287 49.4036 57.3957C49.4477 57.4627 49.4697 57.5403 49.4697 57.6284C49.4697 57.6813 49.46 57.728 49.4406 57.7686C49.423 57.8074 49.3992 57.8409 49.3692 57.8691C49.3392 57.8955 49.3049 57.9158 49.2661 57.9299C49.2291 57.9423 49.1903 57.9484 49.1497 57.9484C49.0898 57.9484 49.0378 57.9387 48.9937 57.9193C48.9496 57.8982 48.9108 57.877 48.8773 57.8559V57.3851C48.8403 57.364 48.8015 57.3472 48.7609 57.3349C48.7222 57.3208 48.6851 57.3137 48.6499 57.3137C48.53 57.3137 48.4216 57.341 48.3246 57.3957C48.2294 57.4504 48.1483 57.5262 48.0813 57.6231C48.016 57.7201 47.9658 57.8356 47.9305 57.9696C47.8953 58.1018 47.8776 58.2464 47.8776 58.4033C47.8776 58.5532 47.8961 58.6942 47.9332 58.8265C47.972 58.9587 48.0284 59.0742 48.1024 59.1729C48.1782 59.2699 48.2717 59.3466 48.3828 59.403C48.4956 59.4594 48.6261 59.4876 48.7742 59.4876C48.9011 59.4876 49.021 59.4682 49.1338 59.4294C49.2484 59.3889 49.3639 59.3298 49.4803 59.2522V59.5617ZM52.4238 58.4615C52.4238 58.6537 52.3929 58.8335 52.3312 59.001C52.2713 59.1667 52.1849 59.3113 52.0721 59.4347C51.961 59.5564 51.8252 59.6525 51.6648 59.723C51.5061 59.7935 51.328 59.8288 51.1306 59.8288C50.9331 59.8288 50.755 59.7944 50.5963 59.7256C50.4377 59.6551 50.3028 59.559 50.1917 59.4374C50.0806 59.3157 49.9951 59.172 49.9352 59.0063C49.877 58.8388 49.8479 58.6572 49.8479 58.4615C49.8479 58.2693 49.8779 58.0895 49.9378 57.922C49.9978 57.7545 50.0842 57.609 50.197 57.4856C50.3098 57.3604 50.4456 57.2626 50.6043 57.1921C50.7647 57.1215 50.9454 57.0863 51.1464 57.0863C51.3474 57.0863 51.5273 57.1224 51.6859 57.1947C51.8446 57.267 51.9786 57.3657 52.0879 57.4909C52.1972 57.6143 52.2801 57.7598 52.3365 57.9273C52.3947 58.093 52.4238 58.2711 52.4238 58.4615ZM51.8605 58.4562C51.8605 58.3081 51.8455 58.1662 51.8155 58.0304C51.7873 57.8947 51.7432 57.7748 51.6833 57.6707C51.6234 57.5667 51.5484 57.4838 51.4585 57.4221C51.3686 57.3604 51.2628 57.3296 51.1411 57.3296C51.016 57.3296 50.9075 57.3604 50.8159 57.4221C50.7242 57.4838 50.6484 57.5667 50.5884 57.6707C50.5302 57.7748 50.487 57.8947 50.4588 58.0304C50.4306 58.1662 50.4165 58.3081 50.4165 58.4562C50.4165 58.6025 50.4306 58.7436 50.4588 58.8793C50.4888 59.0151 50.5338 59.135 50.5937 59.239C50.6536 59.343 50.7286 59.4268 50.8185 59.4903C50.9084 59.552 51.0142 59.5828 51.1359 59.5828C51.2593 59.5828 51.3668 59.552 51.4585 59.4903C51.5502 59.4286 51.6251 59.3457 51.6833 59.2417C51.7432 59.1376 51.7873 59.0178 51.8155 58.882C51.8455 58.7462 51.8605 58.6043 51.8605 58.4562ZM54.6718 59.7627V59.4744C54.6101 59.522 54.5457 59.5678 54.4787 59.6119C54.4135 59.6542 54.3456 59.6913 54.2751 59.723C54.2063 59.7547 54.1349 59.7803 54.0608 59.7997C53.9886 59.8191 53.9127 59.8288 53.8334 59.8288C53.6518 59.8288 53.4949 59.79 53.3627 59.7124C53.2322 59.6331 53.1246 59.5317 53.04 59.4083C52.9554 59.2831 52.8928 59.1438 52.8522 58.9904C52.8135 58.8353 52.7941 58.681 52.7941 58.5276C52.7941 58.3442 52.8223 58.1662 52.8787 57.9934C52.9351 57.8188 53.0206 57.6646 53.1352 57.5306C53.2498 57.3966 53.3935 57.289 53.5663 57.2079C53.7391 57.1268 53.9418 57.0863 54.1746 57.0863C54.2169 57.0863 54.2627 57.0889 54.3121 57.0942C54.3615 57.0995 54.4091 57.1057 54.4549 57.1127C54.5025 57.118 54.5448 57.1251 54.5818 57.1339C54.6206 57.1409 54.6506 57.1471 54.6718 57.1524V56.1606H54.2618V55.9808L54.96 55.7719H55.1769V59.4162C55.1769 59.4497 55.1875 59.477 55.2086 59.4982C55.2298 59.5194 55.2571 59.5317 55.2906 59.5352L55.5233 59.5511V59.7627H54.6718ZM54.6718 57.4274C54.6488 57.4204 54.6189 57.4124 54.5818 57.4036C54.5466 57.393 54.5078 57.3842 54.4655 57.3772C54.4249 57.3684 54.3817 57.3613 54.3359 57.356C54.2918 57.3507 54.2504 57.3481 54.2116 57.3481C54.0776 57.3481 53.9559 57.3745 53.8466 57.4274C53.7373 57.4786 53.6439 57.5517 53.5663 57.6469C53.4905 57.7404 53.4314 57.8541 53.3891 57.9881C53.3486 58.1221 53.3283 58.2711 53.3283 58.435C53.3283 58.5831 53.3459 58.7198 53.3812 58.845C53.4164 58.9684 53.4676 59.0759 53.5346 59.1676C53.6016 59.2593 53.6835 59.3307 53.7805 59.3818C53.8775 59.433 53.9886 59.4585 54.1137 59.4585C54.1684 59.4585 54.2213 59.4532 54.2724 59.4427C54.3236 59.4303 54.3729 59.4153 54.4205 59.3977C54.4681 59.3783 54.5131 59.358 54.5554 59.3369C54.5977 59.314 54.6365 59.2919 54.6718 59.2708V57.4274ZM58.1363 59.4929C58.0605 59.5405 57.9811 59.5846 57.8982 59.6251C57.8171 59.6657 57.7325 59.701 57.6444 59.7309C57.558 59.7609 57.4698 59.7847 57.3799 59.8023C57.29 59.82 57.1992 59.8288 57.1075 59.8288C56.9435 59.8288 56.7857 59.8015 56.6341 59.7468C56.4825 59.6904 56.3485 59.6066 56.2321 59.4956C56.1175 59.3845 56.0249 59.2452 55.9544 59.0777C55.8857 58.9084 55.8513 58.711 55.8513 58.4853C55.8513 58.2737 55.883 58.0824 55.9465 57.9114C56.01 57.7386 56.0981 57.5914 56.211 57.4697C56.3238 57.3463 56.4578 57.252 56.6129 57.1868C56.7681 57.1198 56.9382 57.0863 57.1234 57.0863C57.2909 57.0863 57.4381 57.1145 57.565 57.1709C57.692 57.2256 57.7978 57.3022 57.8824 57.401C57.967 57.498 58.0305 57.6152 58.0728 57.7527C58.1151 57.8885 58.1363 58.0366 58.1363 58.197V58.2684C58.1363 58.2966 58.1345 58.3231 58.131 58.3478H56.3749C56.3749 58.4853 56.389 58.6228 56.4172 58.7603C56.4472 58.8979 56.4966 59.0213 56.5653 59.1306C56.6341 59.2399 56.7267 59.3289 56.843 59.3977C56.9594 59.4647 57.1049 59.4982 57.2794 59.4982C57.357 59.4982 57.4337 59.4885 57.5095 59.4691C57.5853 59.448 57.6593 59.4215 57.7316 59.3898C57.8057 59.358 57.8762 59.3228 57.9432 59.284C58.0102 59.2434 58.0746 59.2029 58.1363 59.1623V59.4929ZM57.5941 57.9855C57.5941 57.8955 57.5835 57.8127 57.5624 57.7369C57.5412 57.6593 57.5086 57.5923 57.4645 57.5359C57.4222 57.4794 57.3676 57.4354 57.3006 57.4036C57.2353 57.3701 57.1577 57.3534 57.0678 57.3534C56.9779 57.3534 56.8942 57.371 56.8166 57.4063C56.739 57.4398 56.6702 57.4891 56.6103 57.5544C56.5521 57.6196 56.5045 57.6989 56.4675 57.7924C56.4322 57.8841 56.4111 57.9881 56.404 58.1045H57.5941V57.9855ZM64.0312 59.7627V59.5511L64.2587 59.5352C64.2922 59.5317 64.3195 59.5194 64.3406 59.4982C64.3618 59.477 64.3724 59.4497 64.3724 59.4162V58.0357C64.3724 57.9511 64.3644 57.8753 64.3486 57.8083C64.3327 57.7395 64.3054 57.6813 64.2666 57.6337C64.2296 57.5861 64.1802 57.5491 64.1185 57.5226C64.0568 57.4962 63.981 57.483 63.8911 57.483C63.8452 57.483 63.7967 57.4874 63.7456 57.4962C63.6962 57.5032 63.646 57.5138 63.5948 57.5279C63.5455 57.5403 63.4961 57.5561 63.4467 57.5755C63.3991 57.5932 63.3542 57.6126 63.3119 57.6337V59.4162C63.3119 59.4497 63.3224 59.477 63.3436 59.4982C63.3648 59.5194 63.3921 59.5317 63.4256 59.5352L63.653 59.5511V59.7627H62.4656V59.5511L62.693 59.5352C62.7265 59.5317 62.7538 59.5194 62.775 59.4982C62.7962 59.477 62.8067 59.4497 62.8067 59.4162V58.0013C62.8067 57.9255 62.7979 57.8559 62.7803 57.7924C62.7644 57.7272 62.7371 57.6725 62.6983 57.6284C62.6613 57.5826 62.6119 57.5473 62.5502 57.5226C62.4903 57.4962 62.4171 57.483 62.3307 57.483C62.2796 57.483 62.2258 57.4883 62.1694 57.4988C62.1147 57.5077 62.0618 57.52 62.0107 57.5359C61.9596 57.55 61.9111 57.5667 61.8652 57.5861C61.8212 57.6037 61.7833 57.6214 61.7515 57.639V59.4162C61.7515 59.4497 61.7621 59.477 61.7833 59.4982C61.8044 59.5194 61.8317 59.5317 61.8652 59.5352L62.0927 59.5511V59.7627H60.8682V59.5511L61.1327 59.5352C61.1662 59.5317 61.1935 59.5194 61.2147 59.4982C61.2358 59.477 61.2464 59.4497 61.2464 59.4162V57.5359H60.8735V57.3587L61.5294 57.1524H61.7515V57.4221C61.8115 57.3851 61.8776 57.3472 61.9499 57.3084C62.0239 57.2696 62.0997 57.2335 62.1773 57.2C62.2549 57.1665 62.3325 57.1392 62.41 57.118C62.4894 57.0968 62.5643 57.0863 62.6348 57.0863C62.7124 57.0863 62.7829 57.0977 62.8464 57.1206C62.9099 57.1418 62.9654 57.1709 63.013 57.2079C63.0624 57.2432 63.1047 57.2837 63.14 57.3296C63.177 57.3737 63.207 57.4177 63.2299 57.4618C63.2845 57.4283 63.3507 57.3895 63.4282 57.3454C63.5058 57.3014 63.5878 57.2608 63.6742 57.2238C63.7606 57.185 63.847 57.1524 63.9334 57.1259C64.0198 57.0995 64.0991 57.0863 64.1714 57.0863C64.3142 57.0863 64.4306 57.1127 64.5205 57.1656C64.6104 57.2167 64.6809 57.2829 64.7321 57.364C64.7849 57.4433 64.8211 57.5323 64.8405 57.6311C64.8599 57.7298 64.8696 57.825 64.8696 57.9167V59.4162C64.8696 59.4497 64.8802 59.477 64.9013 59.4982C64.9242 59.5194 64.9516 59.5317 64.9833 59.5352L65.2451 59.5511V59.7627H64.0312ZM67.8369 59.4929C67.7611 59.5405 67.6817 59.5846 67.5989 59.6251C67.5178 59.6657 67.4331 59.701 67.345 59.7309C67.2586 59.7609 67.1704 59.7847 67.0805 59.8023C66.9906 59.82 66.8998 59.8288 66.8081 59.8288C66.6441 59.8288 66.4863 59.8015 66.3347 59.7468C66.1831 59.6904 66.0491 59.6066 65.9327 59.4956C65.8181 59.3845 65.7256 59.2452 65.655 59.0777C65.5863 58.9084 65.5519 58.711 65.5519 58.4853C65.5519 58.2737 65.5836 58.0824 65.6471 57.9114C65.7106 57.7386 65.7987 57.5914 65.9116 57.4697C66.0244 57.3463 66.1584 57.252 66.3136 57.1868C66.4687 57.1198 66.6389 57.0863 66.824 57.0863C66.9915 57.0863 67.1387 57.1145 67.2656 57.1709C67.3926 57.2256 67.4984 57.3022 67.583 57.401C67.6676 57.498 67.7311 57.6152 67.7734 57.7527C67.8157 57.8885 67.8369 58.0366 67.8369 58.197V58.2684C67.8369 58.2966 67.8351 58.3231 67.8316 58.3478H66.0755C66.0755 58.4853 66.0896 58.6228 66.1179 58.7603C66.1478 58.8979 66.1972 59.0213 66.266 59.1306C66.3347 59.2399 66.4273 59.3289 66.5436 59.3977C66.66 59.4647 66.8055 59.4982 66.98 59.4982C67.0576 59.4982 67.1343 59.4885 67.2101 59.4691C67.2859 59.448 67.36 59.4215 67.4323 59.3898C67.5063 59.358 67.5768 59.3228 67.6438 59.284C67.7108 59.2434 67.7752 59.2029 67.8369 59.1623V59.4929ZM67.2947 57.9855C67.2947 57.8955 67.2842 57.8127 67.263 57.7369C67.2418 57.6593 67.2092 57.5923 67.1651 57.5359C67.1228 57.4794 67.0682 57.4354 67.0012 57.4036C66.9359 57.3701 66.8584 57.3534 66.7684 57.3534C66.6785 57.3534 66.5948 57.371 66.5172 57.4063C66.4396 57.4398 66.3709 57.4891 66.3109 57.5544C66.2527 57.6196 66.2051 57.6989 66.1681 57.7924C66.1328 57.8841 66.1117 57.9881 66.1046 58.1045H67.2947V57.9855ZM70.4921 59.4929C70.4163 59.5405 70.337 59.5846 70.2541 59.6251C70.173 59.6657 70.0884 59.701 70.0002 59.7309C69.9138 59.7609 69.8257 59.7847 69.7358 59.8023C69.6458 59.82 69.555 59.8288 69.4634 59.8288C69.2994 59.8288 69.1416 59.8015 68.99 59.7468C68.8383 59.6904 68.7043 59.6066 68.588 59.4956C68.4734 59.3845 68.3808 59.2452 68.3103 59.0777C68.2415 58.9084 68.2071 58.711 68.2071 58.4853C68.2071 58.2737 68.2389 58.0824 68.3023 57.9114C68.3658 57.7386 68.454 57.5914 68.5668 57.4697C68.6796 57.3463 68.8136 57.252 68.9688 57.1868C69.124 57.1198 69.2941 57.0863 69.4792 57.0863C69.6467 57.0863 69.7939 57.1145 69.9209 57.1709C70.0478 57.2256 70.1536 57.3022 70.2382 57.401C70.3229 57.498 70.3863 57.6152 70.4287 57.7527C70.471 57.8885 70.4921 58.0366 70.4921 58.197V58.2684C70.4921 58.2966 70.4904 58.3231 70.4868 58.3478H68.7308C68.7308 58.4853 68.7449 58.6228 68.7731 58.7603C68.8031 58.8979 68.8524 59.0213 68.9212 59.1306C68.99 59.2399 69.0825 59.3289 69.1989 59.3977C69.3152 59.4647 69.4607 59.4982 69.6353 59.4982C69.7128 59.4982 69.7895 59.4885 69.8653 59.4691C69.9412 59.448 70.0152 59.4215 70.0875 59.3898C70.1615 59.358 70.2321 59.3228 70.2991 59.284C70.3661 59.2434 70.4304 59.2029 70.4921 59.1623V59.4929ZM69.95 57.9855C69.95 57.8955 69.9394 57.8127 69.9182 57.7369C69.8971 57.6593 69.8645 57.5923 69.8204 57.5359C69.7781 57.4794 69.7234 57.4354 69.6564 57.4036C69.5912 57.3701 69.5136 57.3534 69.4237 57.3534C69.3338 57.3534 69.25 57.371 69.1724 57.4063C69.0949 57.4398 69.0261 57.4891 68.9662 57.5544C68.908 57.6196 68.8604 57.6989 68.8233 57.7924C68.7881 57.8841 68.7669 57.9881 68.7599 58.1045H69.95V57.9855ZM72.4809 59.6489C72.4139 59.6824 72.3407 59.7124 72.2614 59.7389C72.1944 59.7618 72.1168 59.7821 72.0287 59.7997C71.9405 59.8191 71.848 59.8288 71.751 59.8288C71.5465 59.8288 71.3984 59.7812 71.3067 59.686C71.215 59.5908 71.1692 59.4356 71.1692 59.2205V57.4221H70.8227V57.2449L71.193 57.0704L71.4363 56.4965H71.6743V57.1524H72.4386V57.4221H71.6743V58.9349C71.6743 59.0424 71.6831 59.1341 71.7007 59.2099C71.7201 59.284 71.7475 59.3448 71.7827 59.3924C71.8197 59.4383 71.8647 59.4718 71.9176 59.4929C71.9723 59.5141 72.0357 59.5246 72.108 59.5246C72.1609 59.5246 72.2094 59.5202 72.2535 59.5114C72.2993 59.5026 72.339 59.492 72.3725 59.4797C72.4113 59.4656 72.4474 59.4497 72.4809 59.4321V59.6489ZM74.4882 58.9772C74.4882 59.1094 74.4644 59.2284 74.4168 59.3342C74.3692 59.44 74.3013 59.5299 74.2132 59.604C74.125 59.6763 74.0166 59.7318 73.8879 59.7706C73.7592 59.8094 73.6146 59.8288 73.4541 59.8288C73.3713 59.8288 73.2902 59.8235 73.2108 59.8129C73.1333 59.8041 73.061 59.7918 72.994 59.7759C72.9287 59.7618 72.8706 59.7468 72.8194 59.7309C72.7683 59.7151 72.7295 59.7018 72.7031 59.6913V58.9719H72.9781L73.0442 59.4321C73.0989 59.4673 73.1659 59.5017 73.2452 59.5352C73.3263 59.567 73.4198 59.5828 73.5255 59.5828C73.6031 59.5828 73.6719 59.5714 73.7318 59.5484C73.7918 59.5238 73.842 59.492 73.8826 59.4532C73.9249 59.4145 73.9566 59.3704 73.9778 59.321C74.0007 59.2699 74.0122 59.217 74.0122 59.1623C74.0122 59.0918 73.9989 59.031 73.9725 58.9798C73.946 58.927 73.9073 58.8802 73.8561 58.8397C73.8068 58.7974 73.7451 58.7577 73.671 58.7207C73.5987 58.6819 73.5159 58.6396 73.4224 58.5937L73.351 58.5593C73.2523 58.5117 73.165 58.465 73.0892 58.4192C73.0134 58.3716 72.949 58.3213 72.8961 58.2684C72.845 58.2138 72.8062 58.1547 72.7798 58.0912C72.7533 58.026 72.7401 57.9528 72.7401 57.8717C72.7401 57.7518 72.7612 57.6434 72.8036 57.5464C72.8476 57.4495 72.9111 57.3675 72.994 57.3005C73.0768 57.2317 73.1782 57.1788 73.2981 57.1418C73.4198 57.1048 73.559 57.0863 73.716 57.0863C73.7953 57.0863 73.8711 57.0907 73.9434 57.0995C74.0157 57.1083 74.0818 57.1189 74.1418 57.1312C74.2017 57.1436 74.2546 57.1568 74.3004 57.1709C74.3463 57.185 74.3824 57.1982 74.4089 57.2106V57.8506H74.1259L74.0836 57.4724C74.0448 57.4424 73.9875 57.4142 73.9117 57.3878C73.8359 57.3613 73.7556 57.3481 73.671 57.3481C73.5211 57.3481 73.4101 57.3825 73.3378 57.4512C73.2673 57.5182 73.232 57.6046 73.232 57.7104C73.232 57.7721 73.2417 57.8259 73.2611 57.8717C73.2822 57.9176 73.3157 57.9608 73.3616 58.0013C73.4092 58.0419 73.4718 58.0833 73.5494 58.1256C73.6269 58.1662 73.723 58.212 73.8376 58.2631C73.9311 58.3055 74.0175 58.3504 74.0968 58.398C74.1761 58.4439 74.2449 58.4959 74.3031 58.5541C74.3613 58.6105 74.4062 58.6731 74.438 58.7418C74.4715 58.8106 74.4882 58.889 74.4882 58.9772ZM79.4549 59.5617C79.3932 59.5934 79.3279 59.626 79.2592 59.6595C79.1922 59.6913 79.1199 59.7195 79.0423 59.7442C78.9665 59.7688 78.8863 59.7891 78.8016 59.805C78.7188 59.8208 78.6315 59.8288 78.5398 59.8288C78.3494 59.8288 78.1775 59.7953 78.0241 59.7283C77.8725 59.6595 77.7429 59.5652 77.6354 59.4453C77.5278 59.3237 77.4449 59.18 77.3868 59.0142C77.3286 58.8485 77.2995 58.6687 77.2995 58.4747C77.2995 58.2473 77.3347 58.0472 77.4053 57.8744C77.4758 57.7016 77.571 57.557 77.6909 57.4407C77.8108 57.3225 77.9492 57.2344 78.1061 57.1762C78.2648 57.1162 78.4305 57.0863 78.6033 57.0863C78.7214 57.0863 78.8316 57.0986 78.9339 57.1233C79.0379 57.1462 79.1269 57.1806 79.201 57.2264C79.2768 57.2723 79.3359 57.3287 79.3782 57.3957C79.4223 57.4627 79.4443 57.5403 79.4443 57.6284C79.4443 57.6813 79.4346 57.728 79.4152 57.7686C79.3976 57.8074 79.3738 57.8409 79.3438 57.8691C79.3138 57.8955 79.2794 57.9158 79.2407 57.9299C79.2036 57.9423 79.1648 57.9484 79.1243 57.9484C79.0643 57.9484 79.0123 57.9387 78.9683 57.9193C78.9242 57.8982 78.8854 57.877 78.8519 57.8559V57.3851C78.8149 57.364 78.7761 57.3472 78.7355 57.3349C78.6967 57.3208 78.6597 57.3137 78.6245 57.3137C78.5046 57.3137 78.3961 57.341 78.2992 57.3957C78.204 57.4504 78.1229 57.5262 78.0559 57.6231C77.9906 57.7201 77.9404 57.8356 77.9051 57.9696C77.8698 58.1018 77.8522 58.2464 77.8522 58.4033C77.8522 58.5532 77.8707 58.6942 77.9078 58.8265C77.9465 58.9587 78.003 59.0742 78.077 59.1729C78.1528 59.2699 78.2463 59.3466 78.3573 59.403C78.4702 59.4594 78.6007 59.4876 78.7488 59.4876C78.8757 59.4876 78.9956 59.4682 79.1084 59.4294C79.223 59.3889 79.3385 59.3298 79.4549 59.2522V59.5617ZM81.4886 57.7051C81.4534 57.6646 81.4128 57.6302 81.367 57.602C81.3211 57.572 81.2647 57.557 81.1977 57.557C81.1095 57.557 81.0205 57.587 80.9306 57.6469C80.8407 57.7051 80.749 57.7871 80.6555 57.8929V59.4162C80.6555 59.4497 80.6661 59.4779 80.6873 59.5008C80.7084 59.522 80.7358 59.5335 80.7693 59.5352L81.1263 59.5511V59.7627H79.7722V59.5564L80.0393 59.5352C80.0711 59.5317 80.0975 59.5194 80.1187 59.4982C80.1416 59.477 80.1531 59.4497 80.1531 59.4162V57.5359H79.7617V57.3587L80.4334 57.1524H80.6555V57.6337C80.6943 57.5914 80.7411 57.5394 80.7957 57.4777C80.8521 57.4142 80.9121 57.3534 80.9756 57.2952C81.039 57.237 81.1043 57.1876 81.1713 57.1471C81.24 57.1065 81.3061 57.0863 81.3696 57.0863C81.3978 57.0863 81.4278 57.0889 81.4595 57.0942C81.4913 57.0995 81.5221 57.1065 81.5521 57.1154C81.5821 57.1224 81.6094 57.1312 81.6341 57.1418C81.6605 57.1506 81.6826 57.1594 81.7002 57.1683V57.7051H81.4886ZM84.2285 59.4929C84.1527 59.5405 84.0733 59.5846 83.9905 59.6251C83.9094 59.6657 83.8247 59.701 83.7366 59.7309C83.6502 59.7609 83.562 59.7847 83.4721 59.8023C83.3822 59.82 83.2914 59.8288 83.1997 59.8288C83.0357 59.8288 82.8779 59.8015 82.7263 59.7468C82.5747 59.6904 82.4407 59.6066 82.3243 59.4956C82.2097 59.3845 82.1172 59.2452 82.0466 59.0777C81.9779 58.9084 81.9435 58.711 81.9435 58.4853C81.9435 58.2737 81.9752 58.0824 82.0387 57.9114C82.1022 57.7386 82.1903 57.5914 82.3032 57.4697C82.416 57.3463 82.55 57.252 82.7052 57.1868C82.8603 57.1198 83.0305 57.0863 83.2156 57.0863C83.3831 57.0863 83.5303 57.1145 83.6572 57.1709C83.7842 57.2256 83.89 57.3022 83.9746 57.401C84.0592 57.498 84.1227 57.6152 84.165 57.7527C84.2073 57.8885 84.2285 58.0366 84.2285 58.197V58.2684C84.2285 58.2966 84.2267 58.3231 84.2232 58.3478H82.4671C82.4671 58.4853 82.4812 58.6228 82.5095 58.7603C82.5394 58.8979 82.5888 59.0213 82.6576 59.1306C82.7263 59.2399 82.8189 59.3289 82.9352 59.3977C83.0516 59.4647 83.1971 59.4982 83.3716 59.4982C83.4492 59.4982 83.5259 59.4885 83.6017 59.4691C83.6775 59.448 83.7516 59.4215 83.8239 59.3898C83.8979 59.358 83.9684 59.3228 84.0354 59.284C84.1024 59.2434 84.1668 59.2029 84.2285 59.1623V59.4929ZM83.6863 57.9855C83.6863 57.8955 83.6758 57.8127 83.6546 57.7369C83.6334 57.6593 83.6008 57.5923 83.5567 57.5359C83.5144 57.4794 83.4598 57.4354 83.3928 57.4036C83.3275 57.3701 83.25 57.3534 83.16 57.3534C83.0701 57.3534 82.9864 57.371 82.9088 57.4063C82.8312 57.4398 82.7625 57.4891 82.7025 57.5544C82.6443 57.6196 82.5967 57.6989 82.5597 57.7924C82.5244 57.8841 82.5033 57.9881 82.4962 58.1045H83.6863V57.9855ZM86.2781 59.7627L86.2067 59.4427C86.1115 59.5149 86.0136 59.5793 85.9131 59.6357C85.8691 59.6604 85.8223 59.6842 85.773 59.7071C85.7236 59.73 85.6725 59.7503 85.6196 59.768C85.5684 59.7873 85.5156 59.8023 85.4609 59.8129C85.408 59.8235 85.3551 59.8288 85.3022 59.8288C85.2035 59.8288 85.1109 59.812 85.0245 59.7785C84.9399 59.745 84.8658 59.6965 84.8024 59.6331C84.7389 59.5696 84.6887 59.4929 84.6516 59.403C84.6164 59.3131 84.5987 59.2108 84.5987 59.0962C84.5987 59.0292 84.6049 58.9657 84.6173 58.9058C84.6314 58.8458 84.6587 58.7877 84.6992 58.7312C84.7398 58.6748 84.7962 58.6211 84.8685 58.5699C84.9425 58.517 85.0386 58.465 85.1568 58.4139C85.2767 58.3628 85.4221 58.3125 85.5931 58.2631C85.7659 58.212 85.9704 58.1609 86.2067 58.1098V57.877C86.2067 57.6954 86.1661 57.5614 86.085 57.475C86.0039 57.3869 85.8761 57.3428 85.7016 57.3428C85.6064 57.3428 85.5253 57.3516 85.4583 57.3692C85.3913 57.3869 85.3445 57.401 85.3181 57.4116V57.8823H84.924C84.8993 57.8823 84.8747 57.8805 84.85 57.877C84.8271 57.8735 84.8059 57.8664 84.7865 57.8559C84.7671 57.8435 84.7512 57.8277 84.7389 57.8083C84.7283 57.7871 84.723 57.7598 84.723 57.7263C84.723 57.6152 84.7565 57.52 84.8235 57.4407C84.8905 57.3596 84.9778 57.2926 85.0854 57.2397C85.1929 57.1868 85.3137 57.148 85.4477 57.1233C85.5817 57.0986 85.7157 57.0863 85.8497 57.0863C86.0172 57.0863 86.1556 57.1065 86.2649 57.1471C86.376 57.1876 86.4632 57.2441 86.5267 57.3164C86.5919 57.3886 86.6378 57.4742 86.6642 57.5729C86.6907 57.6716 86.7039 57.7801 86.7039 57.8982V59.4162C86.7039 59.4497 86.7145 59.477 86.7356 59.4982C86.7585 59.5194 86.7859 59.5317 86.8176 59.5352L87.0794 59.5511V59.7627H86.2781ZM86.2067 58.316C85.9634 58.3777 85.7703 58.4386 85.6275 58.4985C85.4847 58.5585 85.3763 58.6193 85.3022 58.681C85.2299 58.7409 85.1832 58.8027 85.1621 58.8661C85.1427 58.9278 85.133 58.9922 85.133 59.0592C85.133 59.1156 85.1418 59.1711 85.1594 59.2258C85.1788 59.2787 85.2052 59.3263 85.2387 59.3686C85.274 59.4109 85.3163 59.4453 85.3657 59.4718C85.4168 59.4964 85.475 59.5088 85.5402 59.5088C85.6125 59.5088 85.6875 59.4956 85.765 59.4691C85.8444 59.4427 85.9167 59.4136 85.9819 59.3818C86.0577 59.3448 86.1326 59.3016 86.2067 59.2522V58.316ZM88.973 59.6489C88.906 59.6824 88.8328 59.7124 88.7535 59.7389C88.6865 59.7618 88.6089 59.7821 88.5208 59.7997C88.4326 59.8191 88.3401 59.8288 88.2431 59.8288C88.0386 59.8288 87.8905 59.7812 87.7988 59.686C87.7071 59.5908 87.6613 59.4356 87.6613 59.2205V57.4221H87.3148V57.2449L87.6851 57.0704L87.9284 56.4965H88.1664V57.1524H88.9307V57.4221H88.1664V58.9349C88.1664 59.0424 88.1752 59.1341 88.1928 59.2099C88.2122 59.284 88.2396 59.3448 88.2748 59.3924C88.3118 59.4383 88.3568 59.4718 88.4097 59.4929C88.4644 59.5141 88.5278 59.5246 88.6001 59.5246C88.653 59.5246 88.7015 59.5202 88.7456 59.5114C88.7914 59.5026 88.8311 59.492 88.8646 59.4797C88.9034 59.4656 88.9395 59.4497 88.973 59.4321V59.6489ZM90.1896 56.2585C90.1896 56.3043 90.1807 56.3484 90.1631 56.3907C90.1472 56.4313 90.1243 56.4665 90.0943 56.4965C90.0644 56.5265 90.0291 56.5503 89.9886 56.5679C89.9498 56.5855 89.9075 56.5944 89.8616 56.5944C89.8158 56.5944 89.7717 56.5855 89.7294 56.5679C89.6888 56.5503 89.6536 56.5265 89.6236 56.4965C89.5936 56.4665 89.5698 56.4313 89.5522 56.3907C89.5346 56.3484 89.5257 56.3043 89.5257 56.2585C89.5257 56.2126 89.5346 56.1695 89.5522 56.1289C89.5698 56.0884 89.5936 56.0531 89.6236 56.0231C89.6536 55.9931 89.6888 55.9702 89.7294 55.9544C89.7717 55.9367 89.8158 55.9279 89.8616 55.9279C89.9075 55.9279 89.9498 55.9367 89.9886 55.9544C90.0291 55.9702 90.0644 55.9931 90.0943 56.0231C90.1243 56.0531 90.1472 56.0884 90.1631 56.1289C90.1807 56.1695 90.1896 56.2126 90.1896 56.2585ZM89.1952 59.7627V59.5511L89.4596 59.5352C89.4931 59.5317 89.5205 59.5194 89.5416 59.4982C89.5628 59.477 89.5733 59.4497 89.5733 59.4162V57.483H89.2004V57.2926L89.8616 57.0863H90.0758V59.4162C90.0758 59.4497 90.0864 59.477 90.1076 59.4982C90.1305 59.5194 90.1578 59.5317 90.1896 59.5352L90.4672 59.5511V59.7627H89.1952ZM93.178 57.3957L92.2312 59.7627H91.8795L91.0068 57.3957L90.7079 57.364V57.1524H91.9059V57.364L91.6468 57.3798C91.6221 57.3834 91.6009 57.393 91.5833 57.4089C91.5674 57.423 91.5595 57.4424 91.5595 57.4671C91.5595 57.4742 91.5612 57.4847 91.5648 57.4988L92.1704 59.1941L92.8369 57.4988C92.8421 57.4883 92.8448 57.4768 92.8448 57.4645C92.8448 57.4433 92.8369 57.4248 92.821 57.4089C92.8069 57.3913 92.7875 57.3816 92.7628 57.3798L92.5195 57.364V57.1524H93.4663V57.364L93.178 57.3957ZM94.7013 56.2585C94.7013 56.3043 94.6925 56.3484 94.6749 56.3907C94.659 56.4313 94.6361 56.4665 94.6061 56.4965C94.5762 56.5265 94.5409 56.5503 94.5003 56.5679C94.4616 56.5855 94.4192 56.5944 94.3734 56.5944C94.3276 56.5944 94.2835 56.5855 94.2412 56.5679C94.2006 56.5503 94.1654 56.5265 94.1354 56.4965C94.1054 56.4665 94.0816 56.4313 94.064 56.3907C94.0463 56.3484 94.0375 56.3043 94.0375 56.2585C94.0375 56.2126 94.0463 56.1695 94.064 56.1289C94.0816 56.0884 94.1054 56.0531 94.1354 56.0231C94.1654 55.9931 94.2006 55.9702 94.2412 55.9544C94.2835 55.9367 94.3276 55.9279 94.3734 55.9279C94.4192 55.9279 94.4616 55.9367 94.5003 55.9544C94.5409 55.9702 94.5762 55.9931 94.6061 56.0231C94.6361 56.0531 94.659 56.0884 94.6749 56.1289C94.6925 56.1695 94.7013 56.2126 94.7013 56.2585ZM93.7069 59.7627V59.5511L93.9714 59.5352C94.0049 59.5317 94.0322 59.5194 94.0534 59.4982C94.0746 59.477 94.0851 59.4497 94.0851 59.4162V57.483H93.7122V57.2926L94.3734 57.0863H94.5876V59.4162C94.5876 59.4497 94.5982 59.477 94.6194 59.4982C94.6423 59.5194 94.6696 59.5317 94.7013 59.5352L94.979 59.5511V59.7627H93.7069ZM96.9705 59.6489C96.9035 59.6824 96.8303 59.7124 96.751 59.7389C96.684 59.7618 96.6064 59.7821 96.5182 59.7997C96.4301 59.8191 96.3375 59.8288 96.2405 59.8288C96.036 59.8288 95.8879 59.7812 95.7962 59.686C95.7045 59.5908 95.6587 59.4356 95.6587 59.2205V57.4221H95.3123V57.2449L95.6825 57.0704L95.9258 56.4965H96.1638V57.1524H96.9281V57.4221H96.1638V58.9349C96.1638 59.0424 96.1727 59.1341 96.1903 59.2099C96.2097 59.284 96.237 59.3448 96.2723 59.3924C96.3093 59.4383 96.3543 59.4718 96.4071 59.4929C96.4618 59.5141 96.5253 59.5246 96.5976 59.5246C96.6505 59.5246 96.6989 59.5202 96.743 59.5114C96.7889 59.5026 96.8285 59.492 96.862 59.4797C96.9008 59.4656 96.937 59.4497 96.9705 59.4321V59.6489ZM99.5411 57.3957L98.5017 59.9293C98.4841 59.9734 98.4594 60.0324 98.4277 60.1065C98.3959 60.1805 98.358 60.259 98.3139 60.3418C98.2716 60.4265 98.224 60.5093 98.1711 60.5904C98.12 60.6715 98.0662 60.7403 98.0098 60.7967C97.9446 60.862 97.8723 60.9122 97.7929 60.9475C97.7154 60.9845 97.6307 61.003 97.5391 61.003C97.4756 61.003 97.4192 60.9942 97.3698 60.9766C97.3204 60.9607 97.279 60.9387 97.2455 60.9104C97.212 60.8822 97.1864 60.8487 97.1688 60.81C97.1512 60.7729 97.1424 60.7341 97.1424 60.6936C97.1424 60.6319 97.1556 60.5746 97.182 60.5217C97.2102 60.4706 97.2552 60.4194 97.3169 60.3683L97.8247 60.601C97.8688 60.5569 97.9137 60.4988 97.9596 60.4265C98.0054 60.356 98.0486 60.281 98.0892 60.2017C98.1297 60.1223 98.1667 60.043 98.2002 59.9637C98.2337 59.8861 98.2602 59.8173 98.2796 59.7574L97.3592 57.3957L97.0604 57.364V57.1524L98.2584 57.1524V57.364L97.9992 57.3798C97.9745 57.3834 97.9534 57.393 97.9358 57.4089C97.9199 57.4248 97.912 57.4442 97.912 57.4671C97.912 57.4812 97.9137 57.4918 97.9172 57.4988L98.5467 59.0962L99.1893 57.4988C99.1946 57.4883 99.1973 57.4768 99.1973 57.4645C99.1973 57.4433 99.1893 57.4248 99.1735 57.4089C99.1594 57.3913 99.14 57.3816 99.1153 57.3798L98.8587 57.364V57.1524H99.824V57.364L99.5411 57.3957Z" fill="#23F0AD"/>
<defs>
<linearGradient id="paint0_linear_211_268" x1="34.1689" y1="-5.72694" x2="34.1689" y2="42.207" gradientUnits="userSpaceOnUse">
<stop stop-color="#23F04A"/>
<stop offset="1" stop-color="#409AED"/>
</linearGradient>
<clipPath id="clip0_211_268">
<rect width="60.6622" height="36.6501" fill="white" transform="translate(34.1689 4.11261)"/>
</clipPath>
</defs>
</svg>
