<svg width="106" height="107" viewBox="0 0 106 107" fill="none" xmlns="http://www.w3.org/2000/svg">
<g filter="url(#filter0_d_220_301)">
<circle cx="53" cy="49.5" r="49" fill="white" fill-opacity="0.02" shape-rendering="crispEdges"/>
</g>
<path d="M80.8989 24.5C79.3385 24.5 77.8569 25.023 76.5351 26.0678C75.2144 27.1125 74.2149 28.4907 73.6138 30.2481L66.5287 50.3874L59.4034 30.2481C58.8034 28.4901 57.843 27.1119 56.5212 26.0678C55.1994 25.0237 53.7195 24.5 52.158 24.5H39.3482L44.3126 38.5973L40.1408 50.3874L33.0546 30.2481C32.4546 28.4901 31.454 27.1119 30.1328 26.0678C28.8115 25.0237 27.3305 24.5 25.7695 24.5H13L29.0523 70.1953C29.3729 71.0975 29.8534 71.7631 30.5333 72.2854C31.1736 72.8078 31.8943 73.0929 32.6948 73.0929H47.7465C49.4276 72.9981 50.5885 72.0475 51.2293 70.1953L53.335 64.2162L55.4402 70.1953C56.081 72.0475 57.2414 72.9981 58.9235 73.0929H73.9747C74.7747 73.0929 75.4954 72.8078 76.1362 72.2854C76.8161 71.7631 77.2965 71.0981 77.6167 70.1953L93.669 24.5H80.8989ZM32.6948 71.2407C31.654 71.2407 30.9328 70.6706 30.4936 69.4833L15.3615 26.3528H17.8094L33.3796 70.6763C33.4504 70.8767 33.5329 71.0625 33.6209 71.2407H32.6948ZM35.3084 71.2407L35.0177 70.411C34.9446 70.2664 34.8787 70.1168 34.8204 69.963L19.6893 26.8319H19.7086L19.5408 26.3535H21.7688L37.3385 70.6769C37.4098 70.8767 37.4892 71.0638 37.5766 71.2413L35.3084 71.2407ZM39.2673 71.2407L38.9761 70.411C38.9029 70.2668 38.8375 70.1172 38.7804 69.963L23.6477 26.8319H23.6681L23.5003 26.3535H25.7283L41.2979 70.6769C41.3687 70.8774 41.4513 71.0632 41.5387 71.2413L39.2673 71.2407ZM43.2267 71.2407L42.935 70.411C42.8622 70.2666 42.797 70.117 42.7398 69.963L27.6072 26.8319H27.6281L27.5675 26.6608C28.167 26.8746 28.7402 27.1984 29.2925 27.6356C30.3328 28.443 31.0937 29.5832 31.6138 30.9607L45.7046 70.9563C45.7046 70.9085 45.7448 71.004 45.785 71.2413L43.2267 71.2407ZM63.7345 70.4116L63.4428 71.2413H60.8845C60.9236 71.0033 60.9643 70.9085 60.9643 70.9563L75.0546 30.9607C75.5747 29.5832 76.3356 28.443 77.377 27.6356C77.9077 27.2102 78.4892 26.8816 79.102 26.6608L79.0398 26.8319H79.0612L63.9302 69.9637C63.8727 70.1176 63.8074 70.2672 63.7345 70.4116ZM67.6939 70.4116L67.4022 71.2413H65.1302C65.2182 71.0632 65.3002 70.8774 65.371 70.6769L80.9407 26.3535H83.1698L83.0014 26.8319H83.0212L67.8896 69.9643C67.8317 70.1177 67.7663 70.2671 67.6939 70.4116ZM71.6517 70.4116L71.3611 71.2413H69.0929C69.1822 71.0594 69.2615 70.8709 69.3305 70.6769L84.8996 26.3535H87.1276L86.9598 26.8319H86.9785L71.848 69.9643C71.7905 70.1181 71.725 70.2675 71.6517 70.4116ZM76.1753 69.4833C75.7361 70.6706 75.0144 71.2407 73.9747 71.2407H73.0481C73.1355 71.0625 73.2186 70.8767 73.2899 70.6763L88.8596 26.3528H91.3064L76.1753 69.4833Z" fill="url(#paint0_linear_220_301)"/>
<path d="M24.13 79.7358C24.112 79.7969 24.1228 79.84 24.1624 79.8652C24.2055 79.8868 24.2486 79.8975 24.2918 79.8975V80H23.0246V79.8975C23.0569 79.8975 23.0911 79.8904 23.127 79.876C23.163 79.858 23.1809 79.8274 23.1809 79.7843C23.1809 79.7663 23.1791 79.7519 23.1755 79.7412L22.1618 76.1121C22.1546 76.0761 22.1186 76.0582 22.0539 76.0582V75.9557H23.1054V76.0582C23.0623 76.0582 23.0299 76.0707 23.0084 76.0959C22.9868 76.1175 22.9778 76.1408 22.9814 76.166L23.6555 78.9215L24.281 76.2199C24.2846 76.2091 24.2864 76.1948 24.2864 76.1768C24.2864 76.1336 24.2666 76.1031 24.2271 76.0851C24.1875 76.0671 24.1498 76.0582 24.1138 76.0582V75.9557H25.3972V76.0582C25.3541 76.0582 25.3109 76.0707 25.2678 76.0959C25.2247 76.1175 25.2121 76.1588 25.2301 76.2199L25.8448 78.7921L26.3732 76.166C26.3804 76.1444 26.3625 76.1211 26.3193 76.0959C26.2798 76.0707 26.2366 76.0582 26.1899 76.0582V75.9557H27.3385V76.0582C27.2774 76.0582 27.2414 76.0761 27.2306 76.1121L26.233 79.7412C26.2294 79.7519 26.2276 79.7663 26.2276 79.7843C26.2276 79.8274 26.2438 79.858 26.2762 79.876C26.3121 79.8904 26.3463 79.8975 26.3786 79.8975V80H25.2031V79.8975C25.2426 79.8975 25.2822 79.8868 25.3217 79.8652C25.3649 79.84 25.3792 79.7969 25.3649 79.7358L24.7771 77.0126L24.13 79.7358ZM30.5685 79.2451V80.1078H30.4661C30.4661 80.0827 30.4607 80.0575 30.4499 80.0324C30.4391 80.0072 30.4247 79.9946 30.4068 79.9946H27.662V79.8922C27.6872 79.8922 27.7124 79.8868 27.7375 79.876C27.7663 79.8652 27.7807 79.8508 27.7807 79.8328V76.1121C27.7807 76.0941 27.7663 76.0797 27.7375 76.0689C27.7124 76.0582 27.6872 76.0528 27.662 76.0528V75.9503H30.2666C30.2845 75.9503 30.2989 75.9377 30.3097 75.9126C30.3205 75.8874 30.3259 75.8622 30.3259 75.8371H30.4283V76.6998H30.3259C30.3259 76.6747 30.3205 76.6495 30.3097 76.6244C30.2989 76.5992 30.2845 76.5866 30.2666 76.5866H28.4763V77.5357H30.0023C30.0203 77.5357 30.0347 77.5231 30.0455 77.4979C30.0563 77.4728 30.0616 77.4476 30.0616 77.4224H30.1641V78.2852H30.0616C30.0616 78.2601 30.0563 78.2349 30.0455 78.2097C30.0347 78.1846 30.0203 78.172 30.0023 78.172H28.4763V79.3583H30.4068C30.4247 79.3583 30.4391 79.3457 30.4499 79.3206C30.4607 79.2954 30.4661 79.2702 30.4661 79.2451H30.5685ZM33.1805 77.6921C33.2991 77.728 33.4177 77.7981 33.5364 77.9024C33.6586 78.003 33.7593 78.1324 33.8384 78.2906C33.921 78.4488 33.9624 78.6249 33.9624 78.8191C33.9624 79.0276 33.912 79.2217 33.8114 79.4014C33.7107 79.5812 33.5615 79.7268 33.3638 79.8382C33.1661 79.9461 32.9306 80 32.6574 80H30.948V79.8975C30.9732 79.8975 30.9984 79.8922 31.0235 79.8814C31.0523 79.8706 31.0667 79.8562 31.0667 79.8382V76.1175C31.0667 76.0995 31.0523 76.0851 31.0235 76.0743C30.9984 76.0635 30.9732 76.0582 30.948 76.0582V75.9557H32.1937C32.4345 75.9557 32.6466 76.0024 32.83 76.0959C33.0169 76.1858 33.1607 76.3134 33.2614 76.4788C33.3656 76.6405 33.4177 76.8257 33.4177 77.0342C33.4177 77.3038 33.3387 77.5231 33.1805 77.6921ZM31.7677 76.592V77.5465H32.1074C32.3303 77.5465 32.4831 77.5033 32.5657 77.417C32.652 77.3272 32.6952 77.2031 32.6952 77.045C32.6952 76.9191 32.6394 76.8131 32.528 76.7268C32.4201 76.6369 32.2799 76.592 32.1074 76.592H31.7677ZM32.501 79.3637C32.7742 79.3637 32.9684 79.308 33.0834 79.1965C33.202 79.0851 33.2614 78.9521 33.2614 78.7975C33.2614 78.6357 33.211 78.4937 33.1104 78.3715C33.0097 78.2457 32.8372 78.1828 32.5927 78.1828H31.7677V79.3637H32.501ZM36.4505 80.0539C36.0658 80.0539 35.7117 79.9641 35.3882 79.7843C35.0647 79.601 34.8094 79.3493 34.6225 79.0294C34.4355 78.7058 34.3421 78.3463 34.3421 77.9509C34.3421 77.5339 34.4355 77.1654 34.6225 76.8454C34.8094 76.5255 35.0611 76.2792 35.3774 76.1067C35.6938 75.9305 36.0407 75.8425 36.4182 75.8425C36.7812 75.8425 37.0868 75.9072 37.3349 76.0366C37.5865 76.1624 37.8238 76.3404 38.0467 76.5704C38.0538 76.5776 38.0646 76.5812 38.079 76.5812C38.1006 76.5812 38.1383 76.565 38.1923 76.5327L38.257 76.6136L37.5128 77.2013L37.4481 77.1205C37.4697 77.1061 37.4858 77.0881 37.4966 77.0665C37.511 77.0414 37.511 77.0234 37.4966 77.0126C37.3456 76.8652 37.1875 76.7538 37.0221 76.6783C36.8603 76.5992 36.6626 76.5596 36.4289 76.5596C36.1845 76.5596 35.9598 76.6208 35.7549 76.743C35.55 76.8616 35.3882 77.027 35.2696 77.2391C35.1509 77.4512 35.0916 77.6885 35.0916 77.9509C35.0916 78.2025 35.1545 78.4326 35.2804 78.6411C35.4062 78.846 35.5733 79.0078 35.7818 79.1264C35.9904 79.2451 36.2132 79.3044 36.4505 79.3044C36.6734 79.3044 36.8639 79.2666 37.0221 79.1911C37.1803 79.1121 37.3295 78.9952 37.4697 78.8406L37.4805 78.8191C37.4805 78.8011 37.4715 78.7813 37.4535 78.7597C37.4391 78.7346 37.4229 78.7166 37.405 78.7058L37.4751 78.6303L38.2785 79.3044L38.2138 79.3853C38.1923 79.3673 38.1653 79.3511 38.1329 79.3367C38.1006 79.3224 38.079 79.3224 38.0682 79.3367C37.8417 79.5812 37.6045 79.7627 37.3564 79.8814C37.1084 79.9964 36.8064 80.0539 36.4505 80.0539ZM41.7224 79.8598C41.7368 79.885 41.7853 79.8975 41.868 79.8975V80H40.7733V79.8975C40.8236 79.8975 40.8578 79.8886 40.8758 79.8706C40.8938 79.8526 40.8955 79.8346 40.8812 79.8167L39.9752 78.2906H39.4198V79.8382C39.4198 79.8562 39.4342 79.8706 39.463 79.8814C39.4917 79.8922 39.5187 79.8975 39.5439 79.8975V80H38.5732V79.8975C38.5984 79.8975 38.6253 79.8922 38.6541 79.8814C38.6829 79.8706 38.6972 79.8562 38.6972 79.8382V76.1175C38.6972 76.0995 38.6829 76.0851 38.6541 76.0743C38.6289 76.0635 38.6038 76.0582 38.5786 76.0582V75.9557H40.2233C40.6978 75.9557 41.0555 76.0635 41.2964 76.2792C41.5408 76.4913 41.6631 76.7664 41.6631 77.1043C41.6631 77.417 41.5768 77.6687 41.4042 77.8592C41.2353 78.0497 41.016 78.1774 40.7464 78.2421L41.7224 79.8598ZM39.4198 76.5812V77.6381H40.3042C40.5271 77.6381 40.6942 77.586 40.8057 77.4817C40.9171 77.3775 40.9728 77.2517 40.9728 77.1043C40.9728 76.9605 40.9099 76.8383 40.7841 76.7376C40.6583 76.6333 40.5037 76.5812 40.3204 76.5812H39.4198ZM46.1963 79.849C46.2071 79.8814 46.2502 79.8975 46.3257 79.8975V80H45.231V79.8975C45.2778 79.8975 45.3101 79.8868 45.3281 79.8652C45.3461 79.8436 45.3497 79.8221 45.3389 79.8005L45.0423 79.0402H43.2844L42.9878 79.8005L42.9824 79.8167C42.9824 79.8382 42.9914 79.858 43.0094 79.876C43.0309 79.8904 43.0579 79.8975 43.0902 79.8975V80H42.0279V79.8975C42.0998 79.8975 42.143 79.8814 42.1574 79.849L43.6564 76.2037C43.6672 76.1822 43.6726 76.1624 43.6726 76.1444C43.6726 76.1121 43.6582 76.0905 43.6295 76.0797C43.6007 76.0653 43.5702 76.0582 43.5378 76.0582V75.9557H44.7942V76.0582C44.7619 76.0582 44.7313 76.0653 44.7026 76.0797C44.6738 76.0905 44.6594 76.1121 44.6594 76.1444C44.6594 76.1624 44.6648 76.1822 44.6756 76.2037L46.1963 79.849ZM44.1633 76.7969L43.527 78.42H44.7996L44.1633 76.7969ZM49.3852 75.8425V76.7052H49.2828C49.2828 76.6801 49.2774 76.6549 49.2666 76.6297C49.2558 76.6046 49.2414 76.592 49.2235 76.592H47.4763V77.5465H48.8891C48.9071 77.5465 48.9215 77.5339 48.9323 77.5087C48.9431 77.4835 48.9485 77.4584 48.9485 77.4332H49.0509V78.296H48.9485C48.9485 78.2708 48.9431 78.2457 48.9323 78.2205C48.9215 78.1953 48.9071 78.1828 48.8891 78.1828H47.4763V79.8382C47.4763 79.8562 47.4889 79.8706 47.5141 79.8814C47.5428 79.8922 47.5716 79.8975 47.6004 79.8975V80H46.6513V79.8975C46.6801 79.8975 46.707 79.8922 46.7322 79.8814C46.7609 79.8706 46.7753 79.8562 46.7753 79.8382V76.1175C46.7753 76.0995 46.7609 76.0851 46.7322 76.0743C46.707 76.0635 46.6818 76.0582 46.6567 76.0582V75.9557H49.2235C49.2414 75.9557 49.2558 75.9431 49.2666 75.9179C49.2774 75.8928 49.2828 75.8676 49.2828 75.8425H49.3852ZM53.0421 75.8478V76.6783H52.9396C52.9396 76.6567 52.9342 76.6333 52.9235 76.6082C52.9127 76.583 52.8983 76.5704 52.8803 76.5704H51.6778V79.8382C51.6778 79.8562 51.6922 79.8706 51.721 79.8814C51.7497 79.8922 51.7785 79.8975 51.8072 79.8975V80H50.815V79.8975C50.8438 79.8975 50.8725 79.8922 50.9013 79.8814C50.9301 79.8706 50.9444 79.8562 50.9444 79.8382V76.5704H49.7365C49.7186 76.5704 49.7042 76.583 49.6934 76.6082C49.6826 76.6333 49.6772 76.6567 49.6772 76.6783H49.5748V75.8478H49.6772C49.6772 75.8694 49.6826 75.8928 49.6934 75.9179C49.7042 75.9431 49.7186 75.9557 49.7365 75.9557H52.8803C52.8983 75.9557 52.9127 75.9431 52.9235 75.9179C52.9342 75.8928 52.9396 75.8694 52.9396 75.8478H53.0421ZM54.8585 78.4578C54.8765 78.4578 54.8909 78.447 54.9017 78.4254C54.9125 78.4038 54.9178 78.3823 54.9178 78.3607H55.0203V79.0995H54.9178C54.9178 79.0779 54.9125 79.0563 54.9017 79.0348C54.8909 79.0132 54.8765 79.0024 54.8585 79.0024H53.4457C53.4277 79.0024 53.4134 79.0132 53.4026 79.0348C53.3918 79.0563 53.3864 79.0779 53.3864 79.0995H53.284V78.3607H53.3864C53.3864 78.3823 53.3918 78.4038 53.4026 78.4254C53.4134 78.447 53.4277 78.4578 53.4457 78.4578H54.8585ZM59.4034 79.849C59.4142 79.8814 59.4574 79.8975 59.5329 79.8975V80H58.4382V79.8975C58.4849 79.8975 58.5173 79.8868 58.5353 79.8652C58.5532 79.8436 58.5568 79.8221 58.5461 79.8005L58.2495 79.0402H56.4915L56.195 79.8005L56.1896 79.8167C56.1896 79.8382 56.1986 79.858 56.2165 79.876C56.2381 79.8904 56.2651 79.8975 56.2974 79.8975V80H55.2351V79.8975C55.307 79.8975 55.3502 79.8814 55.3645 79.849L56.8636 76.2037C56.8744 76.1822 56.8798 76.1624 56.8798 76.1444C56.8798 76.1121 56.8654 76.0905 56.8367 76.0797C56.8079 76.0653 56.7773 76.0582 56.745 76.0582V75.9557H58.0014V76.0582C57.9691 76.0582 57.9385 76.0653 57.9097 76.0797C57.881 76.0905 57.8666 76.1121 57.8666 76.1444C57.8666 76.1624 57.872 76.1822 57.8828 76.2037L59.4034 79.849ZM57.3705 76.7969L56.7342 78.42H58.0068L57.3705 76.7969ZM63.5037 76.0582C63.4786 76.0582 63.4516 76.0635 63.4229 76.0743C63.3941 76.0851 63.3797 76.0995 63.3797 76.1175V79.8382C63.3797 79.8562 63.3923 79.8706 63.4175 79.8814C63.4462 79.8922 63.4732 79.8975 63.4983 79.8975V80H62.5493V79.8975C62.6356 79.8975 62.6625 79.8742 62.6302 79.8274L60.7159 77.1852V79.8382C60.7159 79.8562 60.7302 79.8706 60.759 79.8814C60.7878 79.8922 60.8165 79.8975 60.8453 79.8975V80H59.8585V79.8975C59.8872 79.8975 59.916 79.8922 59.9448 79.8814C59.9735 79.8706 59.9879 79.8562 59.9879 79.8382V76.1175C59.9879 76.0995 59.9735 76.0851 59.9448 76.0743C59.9196 76.0635 59.8944 76.0582 59.8693 76.0582V75.9557H60.8453V76.0582C60.759 76.0582 60.732 76.0815 60.7644 76.1283L62.7326 78.8568L62.6625 76.1175C62.6625 76.0995 62.6463 76.0851 62.614 76.0743C62.5852 76.0635 62.5583 76.0582 62.5331 76.0582V75.9557H63.5037V76.0582ZM67.3235 75.8478V76.6783H67.2211C67.2211 76.6567 67.2157 76.6333 67.2049 76.6082C67.1941 76.583 67.1797 76.5704 67.1618 76.5704H65.9593V79.8382C65.9593 79.8562 65.9736 79.8706 66.0024 79.8814C66.0312 79.8922 66.0599 79.8975 66.0887 79.8975V80H65.0965V79.8975C65.1252 79.8975 65.154 79.8922 65.1828 79.8814C65.2115 79.8706 65.2259 79.8562 65.2259 79.8382V76.5704H64.018C64 76.5704 63.9856 76.583 63.9749 76.6082C63.9641 76.6333 63.9587 76.6567 63.9587 76.6783H63.8562V75.8478H63.9587C63.9587 75.8694 63.9641 75.8928 63.9749 75.9179C63.9856 75.9431 64 75.9557 64.018 75.9557H67.1618C67.1797 75.9557 67.1941 75.9431 67.2049 75.9179C67.2157 75.8928 67.2211 75.8694 67.2211 75.8478H67.3235ZM71.2538 76.0582C71.2286 76.0582 71.1999 76.0635 71.1675 76.0743C71.1388 76.0851 71.1244 76.0995 71.1244 76.1175V79.8382C71.1244 79.8562 71.1388 79.8706 71.1675 79.8814C71.1999 79.8922 71.2286 79.8975 71.2538 79.8975V80H70.24V79.8975C70.2652 79.8975 70.2922 79.8922 70.3209 79.8814C70.3533 79.8706 70.3694 79.8562 70.3694 79.8382V78.2097H68.5576V79.8382C68.5576 79.8562 68.572 79.8706 68.6007 79.8814C68.6331 79.8922 68.6619 79.8975 68.687 79.8975V80H67.6732V79.8975C67.6984 79.8975 67.7254 79.8922 67.7541 79.8814C67.7865 79.8706 67.8027 79.8562 67.8027 79.8382V76.1175C67.8027 76.0995 67.7865 76.0851 67.7541 76.0743C67.7254 76.0635 67.6984 76.0582 67.6732 76.0582V75.9557H68.687V76.0582C68.6619 76.0582 68.6331 76.0635 68.6007 76.0743C68.572 76.0851 68.5576 76.0995 68.5576 76.1175V77.5357H70.3694V76.1175C70.3694 76.0995 70.3533 76.0851 70.3209 76.0743C70.2922 76.0635 70.2652 76.0582 70.24 76.0582V75.9557H71.2538V76.0582ZM73.8404 80.0863C73.4234 80.0863 73.0495 79.991 72.7188 79.8005C72.3916 79.6064 72.1364 79.3511 71.953 79.0348C71.7733 78.7148 71.6834 78.3769 71.6834 78.021C71.6834 77.6615 71.7697 77.3164 71.9423 76.9856C72.1148 76.6513 72.3647 76.3799 72.6918 76.1714C73.0189 75.9629 73.4018 75.8586 73.8404 75.8586C74.2682 75.8586 74.6439 75.9575 74.9674 76.1552C75.2909 76.3529 75.539 76.6172 75.7116 76.9479C75.8841 77.275 75.9704 77.6327 75.9704 78.021C75.9704 78.3661 75.8841 78.6986 75.7116 79.0186C75.5426 79.3349 75.2963 79.592 74.9728 79.7897C74.6492 79.9874 74.2718 80.0863 73.8404 80.0863ZM73.8458 79.3745C74.1154 79.3745 74.3563 79.3188 74.5684 79.2073C74.7841 79.0923 74.9512 78.9323 75.0699 78.7274C75.1921 78.5189 75.2532 78.2834 75.2532 78.021C75.2532 77.7442 75.1957 77.4961 75.0806 77.2768C74.9656 77.0575 74.8002 76.885 74.5845 76.7592C74.3688 76.6297 74.1136 76.565 73.8188 76.565C73.5492 76.565 73.3083 76.6297 73.0962 76.7592C72.8877 76.885 72.7242 77.0593 72.6055 77.2822C72.4869 77.5051 72.4276 77.7514 72.4276 78.021C72.4276 78.3014 72.4959 78.5441 72.6325 78.749C72.7727 78.9539 72.9506 79.1103 73.1663 79.2181C73.3856 79.3224 73.6121 79.3745 73.8458 79.3745ZM80.0496 76.0582C80.0244 76.0582 79.9974 76.0635 79.9687 76.0743C79.9399 76.0851 79.9255 76.0995 79.9255 76.1175V79.8382C79.9255 79.8562 79.9381 79.8706 79.9633 79.8814C79.9921 79.8922 80.019 79.8975 80.0442 79.8975V80H79.0951V79.8975C79.1814 79.8975 79.2084 79.8742 79.176 79.8274L77.2617 77.1852V79.8382C77.2617 79.8562 77.2761 79.8706 77.3048 79.8814C77.3336 79.8922 77.3624 79.8975 77.3911 79.8975V80H76.4043V79.8975C76.4331 79.8975 76.4618 79.8922 76.4906 79.8814C76.5193 79.8706 76.5337 79.8562 76.5337 79.8382V76.1175C76.5337 76.0995 76.5193 76.0851 76.4906 76.0743C76.4654 76.0635 76.4403 76.0582 76.4151 76.0582V75.9557H77.3911V76.0582C77.3048 76.0582 77.2779 76.0815 77.3102 76.1283L79.2785 78.8568L79.2084 76.1175C79.2084 76.0995 79.1922 76.0851 79.1598 76.0743C79.1311 76.0635 79.1041 76.0582 79.0789 76.0582V75.9557H80.0496V76.0582ZM84.3978 76.0582H84.3655C84.2972 76.0582 84.2558 76.0689 84.2414 76.0905L82.7909 78.172V79.8382C82.7909 79.8562 82.8053 79.8706 82.834 79.8814C82.8664 79.8922 82.8969 79.8975 82.9257 79.8975V80H81.8688V79.8975C81.8976 79.8975 81.9263 79.8922 81.9551 79.8814C81.9874 79.8706 82.0036 79.8562 82.0036 79.8382V78.2043L80.5315 76.0905C80.5207 76.0761 80.4973 76.0671 80.4614 76.0635C80.429 76.0599 80.4003 76.0582 80.3751 76.0582V75.9557H81.4859V76.0582C81.4428 76.0582 81.4212 76.0671 81.4212 76.0851C81.4212 76.0995 81.4266 76.1157 81.4374 76.1336L82.3757 77.4548L83.3032 76.1336L83.314 76.1121C83.314 76.0941 83.3032 76.0815 83.2816 76.0743C83.2636 76.0635 83.2367 76.0582 83.2007 76.0582V75.9557H84.3978V76.0582Z" fill="#409AED"/>
<path d="M26.9207 83.6903L26.2238 86.5735H25.8898L25.1284 84.0465L24.3826 86.5735H24.0531L23.3095 83.6903L23.0445 83.6369V83.4409H24.0887V83.6369L23.8171 83.6636C23.8008 83.6666 23.7881 83.6747 23.7792 83.6881C23.7703 83.7 23.7659 83.7141 23.7659 83.7304C23.7659 83.7348 23.7659 83.7393 23.7659 83.7437C23.7674 83.7467 23.7688 83.7504 23.7703 83.7549L24.3136 85.812L25.0282 83.4409H25.38L26.1147 85.8855L26.6201 83.7549C26.6216 83.7519 26.6223 83.7467 26.6223 83.7393C26.6223 83.7215 26.6164 83.7051 26.6045 83.6903C26.5926 83.6755 26.5763 83.6666 26.5555 83.6636L26.2683 83.6369V83.4409H27.199V83.6369L26.9207 83.6903ZM28.7441 86.5V86.3219L28.9311 86.3085C28.9578 86.3056 28.9808 86.2952 29.0001 86.2774C29.0209 86.2596 29.0313 86.2365 29.0313 86.2083V85.0328C29.0313 84.9675 29.0239 84.9074 29.009 84.8525C28.9957 84.7976 28.9712 84.7501 28.9355 84.71C28.9014 84.6699 28.8554 84.6387 28.7975 84.6165C28.7396 84.5927 28.6669 84.5809 28.5793 84.5809C28.5392 84.5809 28.4969 84.5846 28.4524 84.592C28.4079 84.5979 28.3634 84.6068 28.3188 84.6187C28.2758 84.6306 28.2335 84.6447 28.1919 84.661C28.1519 84.6773 28.1155 84.6944 28.0828 84.7122V86.2083C28.0828 86.2365 28.091 86.2596 28.1073 86.2774C28.1237 86.2952 28.1459 86.3056 28.1741 86.3085L28.37 86.3219V86.5H27.3437V86.3219L27.5619 86.3085C27.5901 86.3056 27.6131 86.2952 27.6309 86.2774C27.6487 86.2596 27.6576 86.2365 27.6576 86.2083V83.4677H27.317V83.3163L27.9003 83.1404H28.0828V84.5297C28.1244 84.5044 28.1756 84.4755 28.2365 84.4428C28.2973 84.4102 28.3619 84.3797 28.4302 84.3515C28.4999 84.3219 28.5697 84.2974 28.6394 84.2781C28.7107 84.2573 28.776 84.2469 28.8354 84.2469C28.9229 84.2469 29.0038 84.261 29.078 84.2892C29.1537 84.3174 29.219 84.3597 29.274 84.4161C29.3304 84.4725 29.3741 84.5445 29.4053 84.6321C29.438 84.7182 29.4543 84.8198 29.4543 84.9371V86.2083C29.4543 86.2365 29.4639 86.2596 29.4832 86.2774C29.504 86.2952 29.5278 86.3056 29.5545 86.3085L29.7593 86.3219V86.5H28.7441ZM31.9456 86.2729C31.8818 86.313 31.815 86.3501 31.7452 86.3842C31.677 86.4184 31.6057 86.4481 31.5315 86.4733C31.4588 86.4985 31.3846 86.5186 31.3089 86.5334C31.2332 86.5482 31.1567 86.5557 31.0795 86.5557C30.9415 86.5557 30.8087 86.5327 30.681 86.4866C30.5534 86.4391 30.4406 86.3686 30.3426 86.2751C30.2461 86.1816 30.1682 86.0644 30.1088 85.9234C30.051 85.7809 30.022 85.6146 30.022 85.4247C30.022 85.2465 30.0487 85.0855 30.1022 84.9415C30.1556 84.7961 30.2298 84.6721 30.3248 84.5697C30.4198 84.4658 30.5326 84.3864 30.6632 84.3315C30.7938 84.2751 30.9371 84.2469 31.0929 84.2469C31.2339 84.2469 31.3578 84.2706 31.4647 84.3181C31.5716 84.3642 31.6606 84.4287 31.7319 84.5118C31.8031 84.5935 31.8566 84.6922 31.8922 84.8079C31.9278 84.9222 31.9456 85.0469 31.9456 85.182V85.2421C31.9456 85.2658 31.9441 85.2881 31.9412 85.3089H30.4628C30.4628 85.4247 30.4747 85.5404 30.4985 85.6562C30.5237 85.772 30.5653 85.8759 30.6231 85.9679C30.681 86.0599 30.7589 86.1349 30.8569 86.1928C30.9549 86.2492 31.0773 86.2774 31.2243 86.2774C31.2896 86.2774 31.3541 86.2692 31.418 86.2529C31.4818 86.2351 31.5441 86.2128 31.605 86.1861C31.6673 86.1594 31.7267 86.1297 31.7831 86.097C31.8395 86.0629 31.8937 86.0287 31.9456 85.9946V86.2729ZM31.4892 85.0039C31.4892 84.9282 31.4803 84.8584 31.4625 84.7946C31.4447 84.7293 31.4172 84.6729 31.3801 84.6254C31.3445 84.5779 31.2985 84.5408 31.2421 84.5141C31.1872 84.4859 31.1218 84.4718 31.0462 84.4718C30.9705 84.4718 30.9 84.4866 30.8346 84.5163C30.7693 84.5445 30.7115 84.5861 30.661 84.641C30.612 84.6959 30.5719 84.7627 30.5408 84.8413C30.5111 84.9185 30.4933 85.0061 30.4873 85.1041H31.4892V85.0039ZM33.6599 84.7679C33.6302 84.7337 33.5961 84.7048 33.5575 84.681C33.5189 84.6558 33.4714 84.6432 33.415 84.6432C33.3408 84.6432 33.2659 84.6684 33.1902 84.7189C33.1145 84.7679 33.0373 84.8369 32.9586 84.9259V86.2083C32.9586 86.2365 32.9675 86.2603 32.9853 86.2796C33.0031 86.2974 33.0262 86.307 33.0544 86.3085L33.3549 86.3219V86.5H32.215V86.3263L32.4399 86.3085C32.4666 86.3056 32.4888 86.2952 32.5067 86.2774C32.526 86.2596 32.5356 86.2365 32.5356 86.2083V84.6254H32.2061V84.4762L32.7716 84.3026H32.9586V84.7078C32.9913 84.6721 33.0306 84.6284 33.0766 84.5764C33.1241 84.523 33.1746 84.4718 33.228 84.4228C33.2814 84.3738 33.3364 84.3322 33.3928 84.2981C33.4506 84.264 33.5063 84.2469 33.5597 84.2469C33.5835 84.2469 33.6087 84.2491 33.6354 84.2536C33.6622 84.258 33.6881 84.264 33.7134 84.2714C33.7386 84.2773 33.7616 84.2847 33.7824 84.2937C33.8046 84.3011 33.8232 84.3085 33.838 84.3159V84.7679H33.6599ZM35.9665 86.2729C35.9026 86.313 35.8358 86.3501 35.7661 86.3842C35.6978 86.4184 35.6266 86.4481 35.5524 86.4733C35.4796 86.4985 35.4054 86.5186 35.3297 86.5334C35.254 86.5482 35.1776 86.5557 35.1004 86.5557C34.9624 86.5557 34.8295 86.5327 34.7019 86.4866C34.5742 86.4391 34.4614 86.3686 34.3635 86.2751C34.267 86.1816 34.1891 86.0644 34.1297 85.9234C34.0718 85.7809 34.0429 85.6146 34.0429 85.4247C34.0429 85.2465 34.0696 85.0855 34.123 84.9415C34.1764 84.7961 34.2507 84.6721 34.3457 84.5697C34.4406 84.4658 34.5534 84.3864 34.6841 84.3315C34.8147 84.2751 34.9579 84.2469 35.1138 84.2469C35.2548 84.2469 35.3787 84.2706 35.4856 84.3181C35.5924 84.3642 35.6815 84.4287 35.7527 84.5118C35.824 84.5935 35.8774 84.6922 35.913 84.8079C35.9486 84.9222 35.9665 85.0469 35.9665 85.182V85.2421C35.9665 85.2658 35.965 85.2881 35.962 85.3089H34.4837C34.4837 85.4247 34.4956 85.5404 34.5193 85.6562C34.5445 85.772 34.5861 85.8759 34.644 85.9679C34.7019 86.0599 34.7798 86.1349 34.8778 86.1928C34.9757 86.2492 35.0982 86.2774 35.2451 86.2774C35.3104 86.2774 35.375 86.2692 35.4388 86.2529C35.5026 86.2351 35.565 86.2128 35.6258 86.1861C35.6882 86.1594 35.7475 86.1297 35.8039 86.097C35.8603 86.0629 35.9145 86.0287 35.9665 85.9946V86.2729ZM35.5101 85.0039C35.5101 84.9282 35.5011 84.8584 35.4833 84.7946C35.4655 84.7293 35.4381 84.6729 35.401 84.6254C35.3653 84.5779 35.3193 84.5408 35.2629 84.5141C35.208 84.4859 35.1427 84.4718 35.067 84.4718C34.9913 84.4718 34.9208 84.4866 34.8555 84.5163C34.7902 84.5445 34.7323 84.5861 34.6818 84.641C34.6329 84.6959 34.5928 84.7627 34.5616 84.8413C34.5319 84.9185 34.5141 85.0061 34.5082 85.1041H35.5101V85.0039ZM40.1454 86.3308C40.0934 86.3575 40.0385 86.385 39.9806 86.4132C39.9242 86.4399 39.8634 86.4636 39.7981 86.4844C39.7342 86.5052 39.6667 86.5223 39.5955 86.5356C39.5257 86.549 39.4522 86.5557 39.3751 86.5557C39.2148 86.5557 39.07 86.5275 38.9409 86.4711C38.8133 86.4132 38.7042 86.3338 38.6136 86.2328C38.5231 86.1304 38.4533 86.0095 38.4044 85.8699C38.3554 85.7304 38.3309 85.579 38.3309 85.4158C38.3309 85.2243 38.3606 85.0558 38.4199 84.9104C38.4793 84.7649 38.5595 84.6432 38.6604 84.5452C38.7613 84.4458 38.8778 84.3716 39.0099 84.3226C39.1435 84.2721 39.283 84.2469 39.4285 84.2469C39.5279 84.2469 39.6207 84.2573 39.7068 84.2781C39.7944 84.2974 39.8693 84.3263 39.9317 84.3649C39.9955 84.4035 40.0452 84.451 40.0808 84.5074C40.1179 84.5638 40.1365 84.6291 40.1365 84.7033C40.1365 84.7478 40.1283 84.7872 40.112 84.8213C40.0971 84.854 40.0771 84.8822 40.0519 84.9059C40.0266 84.9282 39.9977 84.9452 39.965 84.9571C39.9339 84.9675 39.9012 84.9727 39.8671 84.9727C39.8166 84.9727 39.7728 84.9645 39.7357 84.9482C39.6986 84.9304 39.666 84.9126 39.6378 84.8948V84.4985C39.6066 84.4807 39.5739 84.4666 39.5398 84.4562C39.5072 84.4443 39.476 84.4384 39.4463 84.4384C39.3454 84.4384 39.2541 84.4614 39.1725 84.5074C39.0923 84.5534 39.024 84.6172 38.9676 84.6989C38.9127 84.7805 38.8704 84.8777 38.8407 84.9905C38.811 85.1018 38.7962 85.2235 38.7962 85.3556C38.7962 85.4818 38.8118 85.6005 38.8429 85.7119C38.8756 85.8232 38.9231 85.9204 38.9854 86.0035C39.0493 86.0852 39.1279 86.1497 39.2214 86.1972C39.3164 86.2447 39.4263 86.2685 39.5509 86.2685C39.6578 86.2685 39.7587 86.2521 39.8537 86.2195C39.9502 86.1853 40.0474 86.1356 40.1454 86.0703V86.3308ZM42.6234 85.4046C42.6234 85.5664 42.5974 85.7178 42.5454 85.8588C42.495 85.9983 42.4222 86.12 42.3272 86.2239C42.2337 86.3263 42.1194 86.4072 41.9844 86.4666C41.8508 86.526 41.7009 86.5557 41.5346 86.5557C41.3684 86.5557 41.2185 86.5267 41.0849 86.4688C40.9513 86.4095 40.8378 86.3286 40.7443 86.2262C40.6508 86.1237 40.5788 86.0028 40.5283 85.8633C40.4793 85.7222 40.4549 85.5694 40.4549 85.4046C40.4549 85.2428 40.4801 85.0914 40.5305 84.9504C40.581 84.8094 40.6537 84.687 40.7487 84.5831C40.8437 84.4777 40.958 84.3953 41.0916 84.336C41.2267 84.2766 41.3788 84.2469 41.548 84.2469C41.7172 84.2469 41.8686 84.2773 42.0022 84.3382C42.1358 84.399 42.2486 84.4822 42.3406 84.5875C42.4326 84.6914 42.5024 84.8139 42.5499 84.9549C42.5989 85.0944 42.6234 85.2443 42.6234 85.4046ZM42.1491 85.4002C42.1491 85.2755 42.1365 85.156 42.1113 85.0417C42.0875 84.9274 42.0504 84.8265 42 84.7389C41.9495 84.6514 41.8864 84.5816 41.8107 84.5297C41.735 84.4777 41.646 84.4517 41.5436 84.4517C41.4382 84.4517 41.3469 84.4777 41.2697 84.5297C41.1925 84.5816 41.1287 84.6514 41.0782 84.7389C41.0293 84.8265 40.9929 84.9274 40.9691 85.0417C40.9454 85.156 40.9335 85.2755 40.9335 85.4002C40.9335 85.5234 40.9454 85.6421 40.9691 85.7564C40.9944 85.8707 41.0322 85.9716 41.0827 86.0592C41.1332 86.1467 41.1962 86.2172 41.2719 86.2707C41.3476 86.3226 41.4367 86.3486 41.5391 86.3486C41.643 86.3486 41.7335 86.3226 41.8107 86.2707C41.8879 86.2187 41.951 86.149 42 86.0614C42.0504 85.9738 42.0875 85.8729 42.1113 85.7586C42.1365 85.6443 42.1491 85.5248 42.1491 85.4002ZM44.5158 86.5V86.2573C44.4638 86.2974 44.4097 86.336 44.3532 86.3731C44.2983 86.4087 44.2412 86.4399 44.1818 86.4666C44.1239 86.4933 44.0638 86.5148 44.0015 86.5312C43.9406 86.5475 43.8768 86.5557 43.81 86.5557C43.6571 86.5557 43.525 86.523 43.4137 86.4577C43.3039 86.3909 43.2133 86.3056 43.1421 86.2017C43.0709 86.0963 43.0182 85.979 42.984 85.8499C42.9514 85.7193 42.935 85.5894 42.935 85.4603C42.935 85.3059 42.9588 85.156 43.0063 85.0105C43.0538 84.8636 43.1258 84.7337 43.2222 84.6209C43.3187 84.5081 43.4397 84.4176 43.5851 84.3493C43.7306 84.281 43.9013 84.2469 44.0972 84.2469C44.1328 84.2469 44.1714 84.2491 44.213 84.2536C44.2545 84.258 44.2946 84.2632 44.3332 84.2692C44.3733 84.2736 44.4089 84.2796 44.4401 84.287C44.4727 84.2929 44.498 84.2981 44.5158 84.3026V83.4677H44.1707V83.3163L44.7585 83.1404H44.941V86.2083C44.941 86.2365 44.9499 86.2596 44.9677 86.2774C44.9855 86.2952 45.0085 86.3056 45.0367 86.3085L45.2327 86.3219V86.5H44.5158ZM44.5158 84.5341C44.4965 84.5282 44.4712 84.5215 44.4401 84.5141C44.4104 84.5052 44.3777 84.4977 44.3421 84.4918C44.308 84.4844 44.2716 84.4784 44.233 84.474C44.1959 84.4695 44.161 84.4673 44.1284 84.4673C44.0156 84.4673 43.9132 84.4896 43.8211 84.5341C43.7291 84.5771 43.6505 84.6387 43.5851 84.7189C43.5213 84.7976 43.4716 84.8933 43.436 85.0061C43.4018 85.1189 43.3848 85.2443 43.3848 85.3824C43.3848 85.507 43.3996 85.6221 43.4293 85.7274C43.459 85.8313 43.502 85.9219 43.5584 85.9991C43.6148 86.0762 43.6838 86.1364 43.7655 86.1794C43.8471 86.2224 43.9406 86.244 44.046 86.244C44.092 86.244 44.1365 86.2395 44.1796 86.2306C44.2226 86.2202 44.2642 86.2076 44.3043 86.1928C44.3443 86.1764 44.3822 86.1594 44.4178 86.1416C44.4534 86.1223 44.4861 86.1037 44.5158 86.0859V84.5341ZM47.4323 86.2729C47.3685 86.313 47.3017 86.3501 47.232 86.3842C47.1637 86.4184 47.0924 86.4481 47.0182 86.4733C46.9455 86.4985 46.8713 86.5186 46.7956 86.5334C46.7199 86.5482 46.6435 86.5557 46.5663 86.5557C46.4282 86.5557 46.2954 86.5327 46.1678 86.4866C46.0401 86.4391 45.9273 86.3686 45.8293 86.2751C45.7329 86.1816 45.6549 86.0644 45.5956 85.9234C45.5377 85.7809 45.5087 85.6146 45.5087 85.4247C45.5087 85.2465 45.5355 85.0855 45.5889 84.9415C45.6423 84.7961 45.7165 84.6721 45.8115 84.5697C45.9065 84.4658 46.0193 84.3864 46.1499 84.3315C46.2806 84.2751 46.4238 84.2469 46.5796 84.2469C46.7206 84.2469 46.8446 84.2706 46.9514 84.3181C47.0583 84.3642 47.1474 84.4287 47.2186 84.5118C47.2898 84.5935 47.3433 84.6922 47.3789 84.8079C47.4145 84.9222 47.4323 85.0469 47.4323 85.182V85.2421C47.4323 85.2658 47.4309 85.2881 47.4279 85.3089H45.9496C45.9496 85.4247 45.9614 85.5404 45.9852 85.6562C46.0104 85.772 46.052 85.8759 46.1099 85.9679C46.1678 86.0599 46.2457 86.1349 46.3436 86.1928C46.4416 86.2492 46.564 86.2774 46.711 86.2774C46.7763 86.2774 46.8409 86.2692 46.9047 86.2529C46.9685 86.2351 47.0308 86.2128 47.0917 86.1861C47.154 86.1594 47.2134 86.1297 47.2698 86.097C47.3262 86.0629 47.3804 86.0287 47.4323 85.9946V86.2729ZM46.9759 85.0039C46.9759 84.9282 46.967 84.8584 46.9492 84.7946C46.9314 84.7293 46.9039 84.6729 46.8668 84.6254C46.8312 84.5779 46.7852 84.5408 46.7288 84.5141C46.6739 84.4859 46.6086 84.4718 46.5329 84.4718C46.4572 84.4718 46.3867 84.4866 46.3214 84.5163C46.2561 84.5445 46.1982 84.5861 46.1477 84.641C46.0987 84.6959 46.0587 84.7627 46.0275 84.8413C45.9978 84.9185 45.98 85.0061 45.9741 85.1041H46.9759V85.0039ZM52.395 86.5V86.3219L52.5864 86.3085C52.6146 86.3056 52.6376 86.2952 52.6554 86.2774C52.6732 86.2596 52.6822 86.2365 52.6822 86.2083V85.0462C52.6822 84.9749 52.6755 84.9111 52.6621 84.8547C52.6488 84.7968 52.6258 84.7478 52.5931 84.7078C52.5619 84.6677 52.5204 84.6365 52.4684 84.6143C52.4165 84.592 52.3526 84.5809 52.277 84.5809C52.2384 84.5809 52.1975 84.5846 52.1545 84.592C52.1129 84.5979 52.0706 84.6068 52.0276 84.6187C51.986 84.6291 51.9445 84.6425 51.9029 84.6588C51.8628 84.6736 51.825 84.6899 51.7894 84.7078V86.2083C51.7894 86.2365 51.7983 86.2596 51.8161 86.2774C51.8339 86.2952 51.8569 86.3056 51.8851 86.3085L52.0766 86.3219V86.5H51.0769V86.3219L51.2684 86.3085C51.2966 86.3056 51.3196 86.2952 51.3374 86.2774C51.3552 86.2596 51.3641 86.2365 51.3641 86.2083V85.0172C51.3641 84.9534 51.3567 84.8948 51.3419 84.8413C51.3285 84.7864 51.3055 84.7404 51.2729 84.7033C51.2417 84.6647 51.2001 84.635 51.1482 84.6143C51.0977 84.592 51.0361 84.5809 50.9634 84.5809C50.9203 84.5809 50.8751 84.5853 50.8276 84.5942C50.7816 84.6016 50.737 84.612 50.694 84.6254C50.6509 84.6373 50.6101 84.6514 50.5715 84.6677C50.5344 84.6825 50.5025 84.6974 50.4758 84.7122V86.2083C50.4758 86.2365 50.4847 86.2596 50.5025 86.2774C50.5203 86.2952 50.5433 86.3056 50.5715 86.3085L50.763 86.3219V86.5H49.7322V86.3219L49.9548 86.3085C49.983 86.3056 50.006 86.2952 50.0239 86.2774C50.0417 86.2596 50.0506 86.2365 50.0506 86.2083V84.6254H49.7366V84.4762L50.2888 84.3026H50.4758V84.5297C50.5263 84.4985 50.5819 84.4666 50.6428 84.4339C50.7051 84.4013 50.7689 84.3708 50.8343 84.3426C50.8996 84.3144 50.9649 84.2914 51.0302 84.2736C51.097 84.2558 51.16 84.2469 51.2194 84.2469C51.2847 84.2469 51.3441 84.2565 51.3975 84.2758C51.451 84.2937 51.4977 84.3181 51.5378 84.3493C51.5794 84.379 51.615 84.4131 51.6447 84.4517C51.6758 84.4888 51.7011 84.5259 51.7204 84.563C51.7664 84.5348 51.822 84.5022 51.8873 84.4651C51.9526 84.428 52.0217 84.3938 52.0944 84.3627C52.1671 84.33 52.2398 84.3026 52.3126 84.2803C52.3853 84.258 52.4521 84.2469 52.5129 84.2469C52.6332 84.2469 52.7311 84.2692 52.8068 84.3137C52.8825 84.3567 52.9419 84.4124 52.9849 84.4807C53.0295 84.5475 53.0599 84.6224 53.0762 84.7055C53.0926 84.7887 53.1007 84.8688 53.1007 84.946V86.2083C53.1007 86.2365 53.1096 86.2596 53.1274 86.2774C53.1467 86.2952 53.1697 86.3056 53.1964 86.3085L53.4169 86.3219V86.5H52.395ZM55.5987 86.2729C55.5349 86.313 55.4681 86.3501 55.3983 86.3842C55.3301 86.4184 55.2588 86.4481 55.1846 86.4733C55.1119 86.4985 55.0377 86.5186 54.962 86.5334C54.8863 86.5482 54.8098 86.5557 54.7327 86.5557C54.5946 86.5557 54.4618 86.5327 54.3341 86.4866C54.2065 86.4391 54.0937 86.3686 53.9957 86.2751C53.8992 86.1816 53.8213 86.0644 53.7619 85.9234C53.7041 85.7809 53.6751 85.6146 53.6751 85.4247C53.6751 85.2465 53.7018 85.0855 53.7553 84.9415C53.8087 84.7961 53.8829 84.6721 53.9779 84.5697C54.0729 84.4658 54.1857 84.3864 54.3163 84.3315C54.4469 84.2751 54.5902 84.2469 54.746 84.2469C54.887 84.2469 55.011 84.2706 55.1178 84.3181C55.2247 84.3642 55.3137 84.4287 55.385 84.5118C55.4562 84.5935 55.5097 84.6922 55.5453 84.8079C55.5809 84.9222 55.5987 85.0469 55.5987 85.182V85.2421C55.5987 85.2658 55.5972 85.2881 55.5943 85.3089H54.1159C54.1159 85.4247 54.1278 85.5404 54.1516 85.6562C54.1768 85.772 54.2184 85.8759 54.2762 85.9679C54.3341 86.0599 54.4121 86.1349 54.51 86.1928C54.608 86.2492 54.7304 86.2774 54.8774 86.2774C54.9427 86.2774 55.0072 86.2692 55.0711 86.2529C55.1349 86.2351 55.1972 86.2128 55.2581 86.1861C55.3204 86.1594 55.3798 86.1297 55.4362 86.097C55.4926 86.0629 55.5468 86.0287 55.5987 85.9946V86.2729ZM55.1423 85.0039C55.1423 84.9282 55.1334 84.8584 55.1156 84.7946C55.0978 84.7293 55.0703 84.6729 55.0332 84.6254C54.9976 84.5779 54.9516 84.5408 54.8952 84.5141C54.8403 84.4859 54.775 84.4718 54.6993 84.4718C54.6236 84.4718 54.5531 84.4866 54.4878 84.5163C54.4224 84.5445 54.3646 84.5861 54.3141 84.641C54.2651 84.6959 54.225 84.7627 54.1939 84.8413C54.1642 84.9185 54.1464 85.0061 54.1404 85.1041H55.1423V85.0039ZM57.834 86.2729C57.7702 86.313 57.7034 86.3501 57.6336 86.3842C57.5654 86.4184 57.4941 86.4481 57.4199 86.4733C57.3472 86.4985 57.273 86.5186 57.1973 86.5334C57.1216 86.5482 57.0451 86.5557 56.9679 86.5557C56.8299 86.5557 56.6971 86.5327 56.5694 86.4866C56.4418 86.4391 56.329 86.3686 56.231 86.2751C56.1345 86.1816 56.0566 86.0644 55.9972 85.9234C55.9394 85.7809 55.9104 85.6146 55.9104 85.4247C55.9104 85.2465 55.9371 85.0855 55.9906 84.9415C56.044 84.7961 56.1182 84.6721 56.2132 84.5697C56.3082 84.4658 56.421 84.3864 56.5516 84.3315C56.6822 84.2751 56.8255 84.2469 56.9813 84.2469C57.1223 84.2469 57.2462 84.2706 57.3531 84.3181C57.46 84.3642 57.549 84.4287 57.6203 84.5118C57.6915 84.5935 57.7449 84.6922 57.7806 84.8079C57.8162 84.9222 57.834 85.0469 57.834 85.182V85.2421C57.834 85.2658 57.8325 85.2881 57.8296 85.3089H56.3512C56.3512 85.4247 56.3631 85.5404 56.3869 85.6562C56.4121 85.772 56.4536 85.8759 56.5115 85.9679C56.5694 86.0599 56.6473 86.1349 56.7453 86.1928C56.8433 86.2492 56.9657 86.2774 57.1127 86.2774C57.178 86.2774 57.2425 86.2692 57.3064 86.2529C57.3702 86.2351 57.4325 86.2128 57.4934 86.1861C57.5557 86.1594 57.6151 86.1297 57.6715 86.097C57.7279 86.0629 57.7821 86.0287 57.834 85.9946V86.2729ZM57.3776 85.0039C57.3776 84.9282 57.3687 84.8584 57.3509 84.7946C57.3331 84.7293 57.3056 84.6729 57.2685 84.6254C57.2329 84.5779 57.1869 84.5408 57.1305 84.5141C57.0756 84.4859 57.0102 84.4718 56.9345 84.4718C56.8588 84.4718 56.7883 84.4866 56.723 84.5163C56.6577 84.5445 56.5998 84.5861 56.5494 84.641C56.5004 84.6959 56.4603 84.7627 56.4292 84.8413C56.3995 84.9185 56.3817 85.0061 56.3757 85.1041H57.3776V85.0039ZM59.5082 86.4043C59.4518 86.4325 59.3902 86.4577 59.3235 86.48C59.2671 86.4993 59.2017 86.5163 59.1275 86.5312C59.0533 86.5475 58.9754 86.5557 58.8938 86.5557C58.7216 86.5557 58.5969 86.5156 58.5197 86.4354C58.4426 86.3553 58.404 86.2247 58.404 86.0436V84.5297H58.1123V84.3805L58.424 84.2335L58.6288 83.7504H58.8292V84.3026H59.4726V84.5297H58.8292V85.8031C58.8292 85.8937 58.8366 85.9709 58.8515 86.0347C58.8678 86.097 58.8908 86.1482 58.9205 86.1883C58.9517 86.2269 58.9895 86.2551 59.034 86.2729C59.08 86.2907 59.1335 86.2996 59.1943 86.2996C59.2389 86.2996 59.2797 86.2959 59.3168 86.2885C59.3554 86.2811 59.3888 86.2722 59.417 86.2618C59.4496 86.2499 59.48 86.2365 59.5082 86.2217V86.4043ZM61.1981 85.8388C61.1981 85.9501 61.178 86.0503 61.138 86.1393C61.0979 86.2284 61.0407 86.3041 60.9665 86.3664C60.8923 86.4273 60.801 86.474 60.6927 86.5067C60.5843 86.5393 60.4626 86.5557 60.3276 86.5557C60.2578 86.5557 60.1895 86.5512 60.1227 86.5423C60.0574 86.5349 59.9966 86.5245 59.9402 86.5111C59.8852 86.4993 59.8363 86.4866 59.7932 86.4733C59.7502 86.4599 59.7175 86.4488 59.6953 86.4399V85.8343H59.9268L59.9825 86.2217C60.0285 86.2514 60.0849 86.2803 60.1517 86.3085C60.2199 86.3352 60.2986 86.3486 60.3877 86.3486C60.453 86.3486 60.5109 86.339 60.5613 86.3197C60.6118 86.2989 60.6541 86.2722 60.6882 86.2395C60.7239 86.2069 60.7506 86.1698 60.7684 86.1282C60.7877 86.0852 60.7973 86.0406 60.7973 85.9946C60.7973 85.9352 60.7862 85.884 60.7639 85.841C60.7417 85.7965 60.709 85.7571 60.666 85.723C60.6244 85.6874 60.5725 85.654 60.5101 85.6228C60.4493 85.5902 60.3795 85.5545 60.3008 85.5159L60.2407 85.487C60.1576 85.4469 60.0841 85.4076 60.0203 85.369C59.9565 85.3289 59.9023 85.2866 59.8578 85.2421C59.8147 85.1961 59.7821 85.1464 59.7598 85.0929C59.7376 85.038 59.7264 84.9764 59.7264 84.9081C59.7264 84.8072 59.7442 84.7159 59.7799 84.6343C59.817 84.5527 59.8704 84.4836 59.9402 84.4272C60.0099 84.3694 60.0953 84.3248 60.1962 84.2937C60.2986 84.2625 60.4159 84.2469 60.548 84.2469C60.6148 84.2469 60.6786 84.2506 60.7394 84.258C60.8003 84.2655 60.856 84.2744 60.9064 84.2847C60.9569 84.2951 61.0014 84.3063 61.04 84.3181C61.0786 84.33 61.109 84.3411 61.1313 84.3515V84.8903H60.8931L60.8574 84.572C60.8248 84.5467 60.7765 84.523 60.7127 84.5007C60.6489 84.4784 60.5814 84.4673 60.5101 84.4673C60.384 84.4673 60.2905 84.4963 60.2296 84.5541C60.1702 84.6105 60.1405 84.6833 60.1405 84.7723C60.1405 84.8243 60.1487 84.8695 60.165 84.9081C60.1828 84.9467 60.211 84.9831 60.2496 85.0172C60.2897 85.0514 60.3424 85.0862 60.4077 85.1219C60.473 85.156 60.5539 85.1946 60.6504 85.2376C60.729 85.2733 60.8018 85.3111 60.8686 85.3512C60.9354 85.3898 60.9932 85.4336 61.0422 85.4825C61.0912 85.53 61.1291 85.5827 61.1558 85.6406C61.184 85.6985 61.1981 85.7646 61.1981 85.8388ZM65.3792 86.3308C65.3273 86.3575 65.2724 86.385 65.2145 86.4132C65.1581 86.4399 65.0972 86.4636 65.0319 86.4844C64.9681 86.5052 64.9005 86.5223 64.8293 86.5356C64.7595 86.549 64.6861 86.5557 64.6089 86.5557C64.4486 86.5557 64.3039 86.5275 64.1747 86.4711C64.0471 86.4132 63.938 86.3338 63.8475 86.2328C63.7569 86.1304 63.6872 86.0095 63.6382 85.8699C63.5892 85.7304 63.5647 85.579 63.5647 85.4158C63.5647 85.2243 63.5944 85.0558 63.6538 84.9104C63.7131 84.7649 63.7933 84.6432 63.8942 84.5452C63.9952 84.4458 64.1117 84.3716 64.2438 84.3226C64.3773 84.2721 64.5169 84.2469 64.6623 84.2469C64.7618 84.2469 64.8545 84.2573 64.9406 84.2781C65.0282 84.2974 65.1031 84.3263 65.1655 84.3649C65.2293 84.4035 65.279 84.451 65.3147 84.5074C65.3518 84.5638 65.3703 84.6291 65.3703 84.7033C65.3703 84.7478 65.3622 84.7872 65.3458 84.8213C65.331 84.854 65.3109 84.8822 65.2857 84.9059C65.2605 84.9282 65.2315 84.9452 65.1989 84.9571C65.1677 84.9675 65.1351 84.9727 65.1009 84.9727C65.0505 84.9727 65.0067 84.9645 64.9696 84.9482C64.9325 84.9304 64.8998 84.9126 64.8716 84.8948V84.4985C64.8404 84.4807 64.8078 84.4666 64.7736 84.4562C64.741 84.4443 64.7098 84.4384 64.6801 84.4384C64.5792 84.4384 64.4879 84.4614 64.4063 84.5074C64.3261 84.5534 64.2579 84.6172 64.2015 84.6989C64.1465 84.7805 64.1042 84.8777 64.0746 84.9905C64.0449 85.1018 64.03 85.2235 64.03 85.3556C64.03 85.4818 64.0456 85.6005 64.0768 85.7119C64.1094 85.8232 64.1569 85.9204 64.2193 86.0035C64.2831 86.0852 64.3618 86.1497 64.4553 86.1972C64.5503 86.2447 64.6601 86.2685 64.7848 86.2685C64.8916 86.2685 64.9926 86.2521 65.0876 86.2195C65.184 86.1853 65.2813 86.1356 65.3792 86.0703V86.3308ZM67.0913 84.7679C67.0616 84.7337 67.0275 84.7048 66.9889 84.681C66.9503 84.6558 66.9028 84.6432 66.8464 84.6432C66.7722 84.6432 66.6972 84.6684 66.6215 84.7189C66.5458 84.7679 66.4687 84.8369 66.39 84.9259V86.2083C66.39 86.2365 66.3989 86.2603 66.4167 86.2796C66.4345 86.2974 66.4575 86.307 66.4857 86.3085L66.7863 86.3219V86.5H65.6464V86.3263L65.8713 86.3085C65.898 86.3056 65.9202 86.2952 65.938 86.2774C65.9573 86.2596 65.967 86.2365 65.967 86.2083V84.6254H65.6375V84.4762L66.203 84.3026H66.39V84.7078C66.4227 84.6721 66.462 84.6284 66.508 84.5764C66.5555 84.523 66.606 84.4718 66.6594 84.4228C66.7128 84.3738 66.7677 84.3322 66.8241 84.2981C66.882 84.264 66.9377 84.2469 66.9911 84.2469C67.0149 84.2469 67.0401 84.2491 67.0668 84.2536C67.0935 84.258 67.1195 84.264 67.1447 84.2714C67.17 84.2773 67.193 84.2847 67.2138 84.2937C67.236 84.3011 67.2546 84.3085 67.2694 84.3159V84.7679H67.0913ZM69.3978 86.2729C69.334 86.313 69.2672 86.3501 69.1975 86.3842C69.1292 86.4184 69.0579 86.4481 68.9837 86.4733C68.911 86.4985 68.8368 86.5186 68.7611 86.5334C68.6854 86.5482 68.609 86.5557 68.5318 86.5557C68.3937 86.5557 68.2609 86.5327 68.1333 86.4866C68.0056 86.4391 67.8928 86.3686 67.7948 86.2751C67.6984 86.1816 67.6204 86.0644 67.5611 85.9234C67.5032 85.7809 67.4742 85.6146 67.4742 85.4247C67.4742 85.2465 67.501 85.0855 67.5544 84.9415C67.6078 84.7961 67.682 84.6721 67.777 84.5697C67.872 84.4658 67.9848 84.3864 68.1154 84.3315C68.2461 84.2751 68.3893 84.2469 68.5451 84.2469C68.6861 84.2469 68.8101 84.2706 68.9169 84.3181C69.0238 84.3642 69.1129 84.4287 69.1841 84.5118C69.2554 84.5935 69.3088 84.6922 69.3444 84.8079C69.38 84.9222 69.3978 85.0469 69.3978 85.182V85.2421C69.3978 85.2658 69.3964 85.2881 69.3934 85.3089H67.9151C67.9151 85.4247 67.9269 85.5404 67.9507 85.6562C67.9759 85.772 68.0175 85.8759 68.0754 85.9679C68.1333 86.0599 68.2112 86.1349 68.3091 86.1928C68.4071 86.2492 68.5296 86.2774 68.6765 86.2774C68.7418 86.2774 68.8064 86.2692 68.8702 86.2529C68.934 86.2351 68.9964 86.2128 69.0572 86.1861C69.1195 86.1594 69.1789 86.1297 69.2353 86.097C69.2917 86.0629 69.3459 86.0287 69.3978 85.9946V86.2729ZM68.9414 85.0039C68.9414 84.9282 68.9325 84.8584 68.9147 84.7946C68.8969 84.7293 68.8694 84.6729 68.8323 84.6254C68.7967 84.5779 68.7507 84.5408 68.6943 84.5141C68.6394 84.4859 68.5741 84.4718 68.4984 84.4718C68.4227 84.4718 68.3522 84.4866 68.2869 84.5163C68.2216 84.5445 68.1637 84.5861 68.1132 84.641C68.0642 84.6959 68.0242 84.7627 67.993 84.8413C67.9633 84.9185 67.9455 85.0061 67.9396 85.1041H68.9414V85.0039ZM71.1233 86.5L71.0632 86.2306C70.983 86.2915 70.9007 86.3456 70.8161 86.3931C70.7789 86.4139 70.7396 86.434 70.6981 86.4532C70.6565 86.4725 70.6135 86.4896 70.5689 86.5045C70.5259 86.5208 70.4814 86.5334 70.4353 86.5423C70.3908 86.5512 70.3463 86.5557 70.3018 86.5557C70.2186 86.5557 70.1407 86.5416 70.068 86.5134C69.9967 86.4852 69.9344 86.4443 69.881 86.3909C69.8275 86.3375 69.7852 86.2729 69.7541 86.1972C69.7244 86.1215 69.7095 86.0354 69.7095 85.939C69.7095 85.8825 69.7147 85.8291 69.7251 85.7787C69.737 85.7282 69.76 85.6792 69.7941 85.6317C69.8283 85.5842 69.8758 85.5389 69.9366 85.4959C69.999 85.4514 70.0799 85.4076 70.1793 85.3645C70.2802 85.3215 70.4027 85.2792 70.5467 85.2376C70.6921 85.1946 70.8643 85.1516 71.0632 85.1085V84.9126C71.0632 84.7597 71.029 84.6469 70.9608 84.5742C70.8925 84.5 70.7849 84.4629 70.6379 84.4629C70.5578 84.4629 70.4895 84.4703 70.4331 84.4851C70.3767 84.5 70.3374 84.5118 70.3151 84.5207V84.917H69.9834C69.9626 84.917 69.9418 84.9156 69.921 84.9126C69.9017 84.9096 69.8839 84.9037 69.8676 84.8948C69.8513 84.8844 69.8379 84.871 69.8275 84.8547C69.8186 84.8369 69.8142 84.8139 69.8142 84.7857C69.8142 84.6922 69.8424 84.612 69.8988 84.5452C69.9552 84.477 70.0287 84.4206 70.1192 84.376C70.2097 84.3315 70.3114 84.2988 70.4242 84.2781C70.537 84.2573 70.6498 84.2469 70.7626 84.2469C70.9036 84.2469 71.0201 84.264 71.1122 84.2981C71.2057 84.3322 71.2791 84.3797 71.3326 84.4406C71.3875 84.5014 71.4261 84.5734 71.4483 84.6566C71.4706 84.7397 71.4817 84.831 71.4817 84.9304V86.2083C71.4817 86.2365 71.4906 86.2596 71.5085 86.2774C71.5278 86.2952 71.5508 86.3056 71.5775 86.3085L71.7979 86.3219V86.5H71.1233ZM71.0632 85.2822C70.8584 85.3341 70.6958 85.3853 70.5756 85.4358C70.4554 85.4863 70.3641 85.5375 70.3018 85.5894C70.2409 85.6399 70.2016 85.6918 70.1838 85.7453C70.1674 85.7972 70.1593 85.8514 70.1593 85.9078C70.1593 85.9553 70.1667 86.002 70.1815 86.048C70.1979 86.0926 70.2201 86.1326 70.2483 86.1683C70.278 86.2039 70.3136 86.2328 70.3552 86.2551C70.3982 86.2759 70.4472 86.2863 70.5021 86.2863C70.563 86.2863 70.6261 86.2751 70.6914 86.2529C70.7582 86.2306 70.819 86.2061 70.8739 86.1794C70.9378 86.1482 71.0008 86.1119 71.0632 86.0703V85.2822ZM73.392 86.4043C73.3356 86.4325 73.274 86.4577 73.2072 86.48C73.1508 86.4993 73.0855 86.5163 73.0113 86.5312C72.9371 86.5475 72.8591 86.5557 72.7775 86.5557C72.6053 86.5557 72.4806 86.5156 72.4035 86.4354C72.3263 86.3553 72.2877 86.2247 72.2877 86.0436V84.5297H71.996V84.3805L72.3077 84.2335L72.5126 83.7504H72.7129V84.3026H73.3564V84.5297H72.7129V85.8031C72.7129 85.8937 72.7204 85.9709 72.7352 86.0347C72.7515 86.097 72.7745 86.1482 72.8042 86.1883C72.8354 86.2269 72.8732 86.2551 72.9178 86.2729C72.9638 86.2907 73.0172 86.2996 73.0781 86.2996C73.1226 86.2996 73.1634 86.2959 73.2005 86.2885C73.2391 86.2811 73.2725 86.2722 73.3007 86.2618C73.3334 86.2499 73.3638 86.2365 73.392 86.2217V86.4043ZM74.4161 83.55C74.4161 83.5886 74.4087 83.6257 74.3939 83.6614C74.3805 83.6955 74.3612 83.7252 74.336 83.7504C74.3107 83.7756 74.281 83.7957 74.2469 83.8105C74.2143 83.8254 74.1786 83.8328 74.14 83.8328C74.1015 83.8328 74.0643 83.8254 74.0287 83.8105C73.9946 83.7957 73.9649 83.7756 73.9397 83.7504C73.9144 83.7252 73.8944 83.6955 73.8796 83.6614C73.8647 83.6257 73.8573 83.5886 73.8573 83.55C73.8573 83.5115 73.8647 83.4751 73.8796 83.4409C73.8944 83.4068 73.9144 83.3771 73.9397 83.3519C73.9649 83.3267 73.9946 83.3074 74.0287 83.294C74.0643 83.2792 74.1015 83.2717 74.14 83.2717C74.1786 83.2717 74.2143 83.2792 74.2469 83.294C74.281 83.3074 74.3107 83.3267 74.336 83.3519C74.3612 83.3771 74.3805 83.4068 74.3939 83.4409C74.4087 83.4751 74.4161 83.5115 74.4161 83.55ZM73.579 86.5V86.3219L73.8016 86.3085C73.8298 86.3056 73.8528 86.2952 73.8707 86.2774C73.8885 86.2596 73.8974 86.2365 73.8974 86.2083V84.5809H73.5834V84.4206L74.14 84.2469H74.3204V86.2083C74.3204 86.2365 74.3293 86.2596 74.3471 86.2774C74.3664 86.2952 74.3894 86.3056 74.4161 86.3085L74.6499 86.3219V86.5H73.579ZM76.9319 84.5074L76.1349 86.5H75.8388L75.1041 84.5074L74.8525 84.4807V84.3026H75.861V84.4807L75.6429 84.494C75.6221 84.497 75.6043 84.5052 75.5894 84.5185C75.5761 84.5304 75.5694 84.5467 75.5694 84.5675C75.5694 84.5734 75.5709 84.5823 75.5738 84.5942L76.0837 86.0213L76.6447 84.5942C76.6492 84.5853 76.6514 84.5757 76.6514 84.5653C76.6514 84.5475 76.6447 84.5319 76.6314 84.5185C76.6195 84.5037 76.6032 84.4955 76.5824 84.494L76.3776 84.4807V84.3026H77.1746V84.4807L76.9319 84.5074ZM78.2143 83.55C78.2143 83.5886 78.2069 83.6257 78.1921 83.6614C78.1787 83.6955 78.1594 83.7252 78.1342 83.7504C78.1089 83.7756 78.0793 83.7957 78.0451 83.8105C78.0125 83.8254 77.9768 83.8328 77.9383 83.8328C77.8997 83.8328 77.8626 83.8254 77.8269 83.8105C77.7928 83.7957 77.7631 83.7756 77.7379 83.7504C77.7126 83.7252 77.6926 83.6955 77.6778 83.6614C77.6629 83.6257 77.6555 83.5886 77.6555 83.55C77.6555 83.5115 77.6629 83.4751 77.6778 83.4409C77.6926 83.4068 77.7126 83.3771 77.7379 83.3519C77.7631 83.3267 77.7928 83.3074 77.8269 83.294C77.8626 83.2792 77.8997 83.2717 77.9383 83.2717C77.9768 83.2717 78.0125 83.2792 78.0451 83.294C78.0793 83.3074 78.1089 83.3267 78.1342 83.3519C78.1594 83.3771 78.1787 83.4068 78.1921 83.4409C78.2069 83.4751 78.2143 83.5115 78.2143 83.55ZM77.3772 86.5V86.3219L77.5998 86.3085C77.628 86.3056 77.6511 86.2952 77.6689 86.2774C77.6867 86.2596 77.6956 86.2365 77.6956 86.2083V84.5809H77.3817V84.4206L77.9383 84.2469H78.1186V86.2083C78.1186 86.2365 78.1275 86.2596 78.1453 86.2774C78.1646 86.2952 78.1876 86.3056 78.2143 86.3085L78.4481 86.3219V86.5H77.3772ZM80.1246 86.4043C80.0682 86.4325 80.0066 86.4577 79.9398 86.48C79.8834 86.4993 79.8181 86.5163 79.7439 86.5312C79.6696 86.5475 79.5917 86.5557 79.5101 86.5557C79.3379 86.5557 79.2132 86.5156 79.1361 86.4354C79.0589 86.3553 79.0203 86.2247 79.0203 86.0436V84.5297H78.7286V84.3805L79.0403 84.2335L79.2451 83.7504H79.4455V84.3026H80.0889V84.5297H79.4455V85.8031C79.4455 85.8937 79.4529 85.9709 79.4678 86.0347C79.4841 86.097 79.5071 86.1482 79.5368 86.1883C79.568 86.2269 79.6058 86.2551 79.6503 86.2729C79.6964 86.2907 79.7498 86.2996 79.8106 86.2996C79.8552 86.2996 79.896 86.2959 79.9331 86.2885C79.9717 86.2811 80.0051 86.2722 80.0333 86.2618C80.0659 86.2499 80.0964 86.2365 80.1246 86.2217V86.4043ZM82.2886 84.5074L81.4136 86.6403C81.3988 86.6774 81.378 86.7271 81.3513 86.7894C81.3246 86.8518 81.2927 86.9178 81.2556 86.9876C81.2199 87.0588 81.1799 87.1286 81.1353 87.1969C81.0923 87.2651 81.047 87.323 80.9995 87.3705C80.9446 87.4254 80.8838 87.4677 80.817 87.4974C80.7517 87.5286 80.6804 87.5442 80.6032 87.5442C80.5498 87.5442 80.5023 87.5368 80.4607 87.5219C80.4192 87.5086 80.3843 87.49 80.3561 87.4663C80.3279 87.4425 80.3064 87.4143 80.2915 87.3816C80.2767 87.3505 80.2693 87.3178 80.2693 87.2837C80.2693 87.2317 80.2804 87.1835 80.3027 87.139C80.3264 87.0959 80.3643 87.0529 80.4162 87.0098L80.8437 87.2058C80.8808 87.1687 80.9186 87.1197 80.9572 87.0588C80.9958 86.9995 81.0322 86.9364 81.0663 86.8696C81.1005 86.8028 81.1316 86.736 81.1598 86.6692C81.188 86.6039 81.2103 86.546 81.2266 86.4955L80.4518 84.5074L80.2003 84.4807V84.3026H81.2088V84.4807L80.9906 84.494C80.9698 84.497 80.952 84.5052 80.9372 84.5185C80.9238 84.5319 80.9172 84.5482 80.9172 84.5675C80.9172 84.5794 80.9186 84.5883 80.9216 84.5942L81.4515 85.939L81.9925 84.5942C81.997 84.5853 81.9992 84.5757 81.9992 84.5653C81.9992 84.5475 81.9925 84.5319 81.9791 84.5185C81.9673 84.5037 81.9509 84.4955 81.9302 84.494L81.7142 84.4807V84.3026H82.5268V84.4807L82.2886 84.5074Z" fill="#23F0AD"/>
<defs>
<filter id="filter0_d_220_301" x="0" y="0.5" width="106" height="106" filterUnits="userSpaceOnUse" color-interpolation-filters="sRGB">
<feFlood flood-opacity="0" result="BackgroundImageFix"/>
<feColorMatrix in="SourceAlpha" type="matrix" values="0 0 0 0 0 0 0 0 0 0 0 0 0 0 0 0 0 0 127 0" result="hardAlpha"/>
<feOffset dy="4"/>
<feGaussianBlur stdDeviation="2"/>
<feComposite in2="hardAlpha" operator="out"/>
<feColorMatrix type="matrix" values="0 0 0 0 0 0 0 0 0 0 0 0 0 0 0 0 0 0 0.25 0"/>
<feBlend mode="normal" in2="BackgroundImageFix" result="effect1_dropShadow_220_301"/>
<feBlend mode="normal" in="SourceGraphic" in2="effect1_dropShadow_220_301" result="shape"/>
</filter>
<linearGradient id="paint0_linear_220_301" x1="13" y1="11.4541" x2="13" y2="75.0079" gradientUnits="userSpaceOnUse">
<stop stop-color="#23F04A"/>
<stop offset="1" stop-color="#409AED"/>
</linearGradient>
</defs>
</svg>
