<svg width="106" height="106" viewBox="0 0 106 106" fill="none" xmlns="http://www.w3.org/2000/svg">
<g filter="url(#filter0_d_220_301)">
<circle cx="53" cy="49" r="49" fill="white" fill-opacity="0.02" shape-rendering="crispEdges"/>
</g>
<path d="M80.8989 24C79.3385 24 77.8569 24.523 76.5351 25.5678C75.2144 26.6125 74.2149 27.9907 73.6138 29.7481L66.5287 49.8874L59.4034 29.7481C58.8034 27.9901 57.843 26.6119 56.5212 25.5678C55.1994 24.5237 53.7195 24 52.158 24H39.3482L44.3126 38.0973L40.1408 49.8874L33.0546 29.7481C32.4546 27.9901 31.454 26.6119 30.1328 25.5678C28.8115 24.5237 27.3305 24 25.7695 24H13L29.0523 69.6953C29.3729 70.5975 29.8534 71.2631 30.5333 71.7854C31.1736 72.3078 31.8943 72.5929 32.6948 72.5929H47.7465C49.4276 72.4981 50.5885 71.5475 51.2293 69.6953L53.335 63.7162L55.4402 69.6953C56.081 71.5475 57.2414 72.4981 58.9235 72.5929H73.9747C74.7747 72.5929 75.4954 72.3078 76.1362 71.7854C76.8161 71.2631 77.2965 70.5981 77.6167 69.6953L93.6689 24H80.8989ZM32.6948 70.7407C31.654 70.7407 30.9328 70.1706 30.4936 68.9833L15.3615 25.8528H17.8094L33.3796 70.1763C33.4504 70.3767 33.5329 70.5625 33.6209 70.7407H32.6948ZM35.3084 70.7407L35.0177 69.911C34.9446 69.7664 34.8787 69.6168 34.8204 69.463L19.6893 26.3319H19.7086L19.5408 25.8535H21.7688L37.3385 70.1769C37.4098 70.3767 37.4892 70.5638 37.5766 70.7413L35.3084 70.7407ZM39.2673 70.7407L38.9761 69.911C38.9029 69.7668 38.8375 69.6172 38.7804 69.463L23.6477 26.3319H23.6681L23.5003 25.8535H25.7283L41.2979 70.1769C41.3687 70.3774 41.4513 70.5632 41.5387 70.7413L39.2673 70.7407ZM43.2267 70.7407L42.935 69.911C42.8622 69.7666 42.797 69.617 42.7398 69.463L27.6072 26.3319H27.6281L27.5675 26.1608C28.167 26.3746 28.7402 26.6984 29.2925 27.1356C30.3328 27.943 31.0937 29.0832 31.6138 30.4607L45.7046 70.4563C45.7046 70.4085 45.7448 70.504 45.785 70.7413L43.2267 70.7407ZM63.7345 69.9116L63.4428 70.7413H60.8845C60.9236 70.5033 60.9643 70.4085 60.9643 70.4563L75.0546 30.4607C75.5747 29.0832 76.3356 27.943 77.377 27.1356C77.9077 26.7102 78.4892 26.3816 79.102 26.1608L79.0398 26.3319H79.0612L63.9302 69.4637C63.8727 69.6176 63.8074 69.7672 63.7345 69.9116ZM67.6939 69.9116L67.4022 70.7413H65.1302C65.2182 70.5632 65.3002 70.3774 65.371 70.1769L80.9407 25.8535H83.1698L83.0014 26.3319H83.0212L67.8896 69.4643C67.8317 69.6177 67.7663 69.7671 67.6939 69.9116ZM71.6518 69.9116L71.3611 70.7413H69.0929C69.1822 70.5594 69.2615 70.3709 69.3305 70.1769L84.8996 25.8535H87.1276L86.9598 26.3319H86.9785L71.848 69.4643C71.7905 69.6181 71.725 69.7675 71.6518 69.9116ZM76.1753 68.9833C75.7361 70.1706 75.0144 70.7407 73.9747 70.7407H73.0481C73.1355 70.5625 73.2186 70.3767 73.2899 70.1763L88.8596 25.8528H91.3064L76.1753 68.9833Z" fill="url(#paint0_linear_220_301)"/>
<path d="M19.13 78.7358C19.112 78.7969 19.1228 78.84 19.1624 78.8652C19.2055 78.8868 19.2486 78.8975 19.2918 78.8975V79H18.0246V78.8975C18.0569 78.8975 18.0911 78.8904 18.127 78.876C18.163 78.858 18.1809 78.8274 18.1809 78.7843C18.1809 78.7663 18.1791 78.7519 18.1755 78.7412L17.1618 75.1121C17.1546 75.0761 17.1186 75.0582 17.0539 75.0582V74.9557H18.1054V75.0582C18.0623 75.0582 18.0299 75.0707 18.0084 75.0959C17.9868 75.1175 17.9778 75.1408 17.9814 75.166L18.6555 77.9215L19.281 75.2199C19.2846 75.2091 19.2864 75.1948 19.2864 75.1768C19.2864 75.1336 19.2666 75.1031 19.2271 75.0851C19.1875 75.0671 19.1498 75.0582 19.1138 75.0582V74.9557H20.3972V75.0582C20.3541 75.0582 20.3109 75.0707 20.2678 75.0959C20.2247 75.1175 20.2121 75.1588 20.2301 75.2199L20.8448 77.7921L21.3732 75.166C21.3804 75.1444 21.3625 75.1211 21.3193 75.0959C21.2798 75.0707 21.2366 75.0582 21.1899 75.0582V74.9557H22.3385V75.0582C22.2774 75.0582 22.2414 75.0761 22.2306 75.1121L21.233 78.7412C21.2294 78.7519 21.2276 78.7663 21.2276 78.7843C21.2276 78.8274 21.2438 78.858 21.2762 78.876C21.3121 78.8904 21.3463 78.8975 21.3786 78.8975V79H20.2031V78.8975C20.2426 78.8975 20.2822 78.8868 20.3217 78.8652C20.3649 78.84 20.3792 78.7969 20.3649 78.7358L19.7771 76.0126L19.13 78.7358ZM25.5685 78.2451V79.1078H25.4661C25.4661 79.0827 25.4607 79.0575 25.4499 79.0324C25.4391 79.0072 25.4247 78.9946 25.4068 78.9946H22.662V78.8922C22.6872 78.8922 22.7124 78.8868 22.7375 78.876C22.7663 78.8652 22.7807 78.8508 22.7807 78.8328V75.1121C22.7807 75.0941 22.7663 75.0797 22.7375 75.0689C22.7124 75.0582 22.6872 75.0528 22.662 75.0528V74.9503H25.2666C25.2845 74.9503 25.2989 74.9377 25.3097 74.9126C25.3205 74.8874 25.3259 74.8622 25.3259 74.8371H25.4283V75.6998H25.3259C25.3259 75.6747 25.3205 75.6495 25.3097 75.6244C25.2989 75.5992 25.2845 75.5866 25.2666 75.5866H23.4763V76.5357H25.0023C25.0203 76.5357 25.0347 76.5231 25.0455 76.4979C25.0563 76.4728 25.0616 76.4476 25.0616 76.4224H25.1641V77.2852H25.0616C25.0616 77.2601 25.0563 77.2349 25.0455 77.2097C25.0347 77.1846 25.0203 77.172 25.0023 77.172H23.4763V78.3583H25.4068C25.4247 78.3583 25.4391 78.3457 25.4499 78.3206C25.4607 78.2954 25.4661 78.2702 25.4661 78.2451H25.5685ZM28.1805 76.6921C28.2991 76.728 28.4177 76.7981 28.5364 76.9024C28.6586 77.003 28.7593 77.1324 28.8384 77.2906C28.921 77.4488 28.9624 77.6249 28.9624 77.8191C28.9624 78.0276 28.912 78.2217 28.8114 78.4014C28.7107 78.5812 28.5615 78.7268 28.3638 78.8382C28.1661 78.9461 27.9306 79 27.6574 79H25.948V78.8975C25.9732 78.8975 25.9984 78.8922 26.0235 78.8814C26.0523 78.8706 26.0667 78.8562 26.0667 78.8382V75.1175C26.0667 75.0995 26.0523 75.0851 26.0235 75.0743C25.9984 75.0635 25.9732 75.0582 25.948 75.0582V74.9557H27.1937C27.4345 74.9557 27.6466 75.0024 27.83 75.0959C28.0169 75.1858 28.1607 75.3134 28.2614 75.4788C28.3656 75.6405 28.4177 75.8257 28.4177 76.0342C28.4177 76.3038 28.3387 76.5231 28.1805 76.6921ZM26.7677 75.592V76.5465H27.1074C27.3303 76.5465 27.4831 76.5033 27.5657 76.417C27.652 76.3272 27.6952 76.2031 27.6952 76.045C27.6952 75.9191 27.6394 75.8131 27.528 75.7268C27.4201 75.6369 27.2799 75.592 27.1074 75.592H26.7677ZM27.501 78.3637C27.7742 78.3637 27.9684 78.308 28.0834 78.1965C28.202 78.0851 28.2614 77.9521 28.2614 77.7975C28.2614 77.6357 28.211 77.4937 28.1104 77.3715C28.0097 77.2457 27.8372 77.1828 27.5927 77.1828H26.7677V78.3637H27.501ZM31.4505 79.0539C31.0658 79.0539 30.7117 78.9641 30.3882 78.7843C30.0647 78.601 29.8094 78.3493 29.6225 78.0294C29.4355 77.7058 29.3421 77.3463 29.3421 76.9509C29.3421 76.5339 29.4355 76.1654 29.6225 75.8454C29.8094 75.5255 30.0611 75.2792 30.3774 75.1067C30.6938 74.9305 31.0407 74.8425 31.4182 74.8425C31.7812 74.8425 32.0868 74.9072 32.3349 75.0366C32.5865 75.1624 32.8238 75.3404 33.0467 75.5704C33.0538 75.5776 33.0646 75.5812 33.079 75.5812C33.1006 75.5812 33.1383 75.565 33.1923 75.5327L33.257 75.6136L32.5128 76.2013L32.4481 76.1205C32.4697 76.1061 32.4858 76.0881 32.4966 76.0665C32.511 76.0414 32.511 76.0234 32.4966 76.0126C32.3456 75.8652 32.1875 75.7538 32.0221 75.6783C31.8603 75.5992 31.6626 75.5596 31.4289 75.5596C31.1845 75.5596 30.9598 75.6208 30.7549 75.743C30.55 75.8616 30.3882 76.027 30.2696 76.2391C30.1509 76.4512 30.0916 76.6885 30.0916 76.9509C30.0916 77.2025 30.1545 77.4326 30.2804 77.6411C30.4062 77.846 30.5733 78.0078 30.7818 78.1264C30.9904 78.2451 31.2132 78.3044 31.4505 78.3044C31.6734 78.3044 31.8639 78.2666 32.0221 78.1911C32.1803 78.1121 32.3295 77.9952 32.4697 77.8406L32.4805 77.8191C32.4805 77.8011 32.4715 77.7813 32.4535 77.7597C32.4391 77.7346 32.4229 77.7166 32.405 77.7058L32.4751 77.6303L33.2785 78.3044L33.2138 78.3853C33.1923 78.3673 33.1653 78.3511 33.1329 78.3367C33.1006 78.3224 33.079 78.3224 33.0682 78.3367C32.8417 78.5812 32.6045 78.7627 32.3564 78.8814C32.1084 78.9964 31.8064 79.0539 31.4505 79.0539ZM36.7224 78.8598C36.7368 78.885 36.7853 78.8975 36.868 78.8975V79H35.7733V78.8975C35.8236 78.8975 35.8578 78.8886 35.8758 78.8706C35.8938 78.8526 35.8955 78.8346 35.8812 78.8167L34.9752 77.2906H34.4198V78.8382C34.4198 78.8562 34.4342 78.8706 34.463 78.8814C34.4917 78.8922 34.5187 78.8975 34.5439 78.8975V79H33.5732V78.8975C33.5984 78.8975 33.6253 78.8922 33.6541 78.8814C33.6829 78.8706 33.6972 78.8562 33.6972 78.8382V75.1175C33.6972 75.0995 33.6829 75.0851 33.6541 75.0743C33.6289 75.0635 33.6038 75.0582 33.5786 75.0582V74.9557H35.2233C35.6978 74.9557 36.0555 75.0635 36.2964 75.2792C36.5408 75.4913 36.6631 75.7664 36.6631 76.1043C36.6631 76.417 36.5768 76.6687 36.4042 76.8592C36.2353 77.0497 36.016 77.1774 35.7464 77.2421L36.7224 78.8598ZM34.4198 75.5812V76.6381H35.3042C35.5271 76.6381 35.6942 76.586 35.8057 76.4817C35.9171 76.3775 35.9728 76.2517 35.9728 76.1043C35.9728 75.9605 35.9099 75.8383 35.7841 75.7376C35.6583 75.6333 35.5037 75.5812 35.3204 75.5812H34.4198ZM41.1963 78.849C41.2071 78.8814 41.2502 78.8975 41.3257 78.8975V79H40.231V78.8975C40.2778 78.8975 40.3101 78.8868 40.3281 78.8652C40.3461 78.8436 40.3497 78.8221 40.3389 78.8005L40.0423 78.0402H38.2844L37.9878 78.8005L37.9824 78.8167C37.9824 78.8382 37.9914 78.858 38.0094 78.876C38.0309 78.8904 38.0579 78.8975 38.0902 78.8975V79H37.0279V78.8975C37.0998 78.8975 37.143 78.8814 37.1574 78.849L38.6564 75.2037C38.6672 75.1822 38.6726 75.1624 38.6726 75.1444C38.6726 75.1121 38.6582 75.0905 38.6295 75.0797C38.6007 75.0653 38.5702 75.0582 38.5378 75.0582V74.9557H39.7942V75.0582C39.7619 75.0582 39.7313 75.0653 39.7026 75.0797C39.6738 75.0905 39.6594 75.1121 39.6594 75.1444C39.6594 75.1624 39.6648 75.1822 39.6756 75.2037L41.1963 78.849ZM39.1633 75.7969L38.527 77.42H39.7996L39.1633 75.7969ZM44.3852 74.8425V75.7052H44.2828C44.2828 75.6801 44.2774 75.6549 44.2666 75.6297C44.2558 75.6046 44.2414 75.592 44.2235 75.592H42.4763V76.5465H43.8891C43.9071 76.5465 43.9215 76.5339 43.9323 76.5087C43.9431 76.4835 43.9485 76.4584 43.9485 76.4332H44.0509V77.296H43.9485C43.9485 77.2708 43.9431 77.2457 43.9323 77.2205C43.9215 77.1953 43.9071 77.1828 43.8891 77.1828H42.4763V78.8382C42.4763 78.8562 42.4889 78.8706 42.5141 78.8814C42.5428 78.8922 42.5716 78.8975 42.6004 78.8975V79H41.6513V78.8975C41.6801 78.8975 41.707 78.8922 41.7322 78.8814C41.7609 78.8706 41.7753 78.8562 41.7753 78.8382V75.1175C41.7753 75.0995 41.7609 75.0851 41.7322 75.0743C41.707 75.0635 41.6818 75.0582 41.6567 75.0582V74.9557H44.2235C44.2414 74.9557 44.2558 74.9431 44.2666 74.9179C44.2774 74.8928 44.2828 74.8676 44.2828 74.8425H44.3852ZM48.0421 74.8478V75.6783H47.9396C47.9396 75.6567 47.9342 75.6333 47.9235 75.6082C47.9127 75.583 47.8983 75.5704 47.8803 75.5704H46.6778V78.8382C46.6778 78.8562 46.6922 78.8706 46.721 78.8814C46.7497 78.8922 46.7785 78.8975 46.8072 78.8975V79H45.815V78.8975C45.8438 78.8975 45.8725 78.8922 45.9013 78.8814C45.9301 78.8706 45.9444 78.8562 45.9444 78.8382V75.5704H44.7365C44.7186 75.5704 44.7042 75.583 44.6934 75.6082C44.6826 75.6333 44.6772 75.6567 44.6772 75.6783H44.5748V74.8478H44.6772C44.6772 74.8694 44.6826 74.8928 44.6934 74.9179C44.7042 74.9431 44.7186 74.9557 44.7365 74.9557H47.8803C47.8983 74.9557 47.9127 74.9431 47.9235 74.9179C47.9342 74.8928 47.9396 74.8694 47.9396 74.8478H48.0421ZM49.8585 77.4578C49.8765 77.4578 49.8909 77.447 49.9017 77.4254C49.9125 77.4038 49.9178 77.3823 49.9178 77.3607H50.0203V78.0995H49.9178C49.9178 78.0779 49.9125 78.0563 49.9017 78.0348C49.8909 78.0132 49.8765 78.0024 49.8585 78.0024H48.4457C48.4277 78.0024 48.4134 78.0132 48.4026 78.0348C48.3918 78.0563 48.3864 78.0779 48.3864 78.0995H48.284V77.3607H48.3864C48.3864 77.3823 48.3918 77.4038 48.4026 77.4254C48.4134 77.447 48.4277 77.4578 48.4457 77.4578H49.8585ZM54.4034 78.849C54.4142 78.8814 54.4574 78.8975 54.5329 78.8975V79H53.4382V78.8975C53.4849 78.8975 53.5173 78.8868 53.5353 78.8652C53.5532 78.8436 53.5568 78.8221 53.5461 78.8005L53.2495 78.0402H51.4915L51.195 78.8005L51.1896 78.8167C51.1896 78.8382 51.1986 78.858 51.2165 78.876C51.2381 78.8904 51.2651 78.8975 51.2974 78.8975V79H50.2351V78.8975C50.307 78.8975 50.3502 78.8814 50.3645 78.849L51.8636 75.2037C51.8744 75.1822 51.8798 75.1624 51.8798 75.1444C51.8798 75.1121 51.8654 75.0905 51.8367 75.0797C51.8079 75.0653 51.7773 75.0582 51.745 75.0582V74.9557H53.0014V75.0582C52.9691 75.0582 52.9385 75.0653 52.9097 75.0797C52.881 75.0905 52.8666 75.1121 52.8666 75.1444C52.8666 75.1624 52.872 75.1822 52.8828 75.2037L54.4034 78.849ZM52.3705 75.7969L51.7342 77.42H53.0068L52.3705 75.7969ZM58.5037 75.0582C58.4786 75.0582 58.4516 75.0635 58.4229 75.0743C58.3941 75.0851 58.3797 75.0995 58.3797 75.1175V78.8382C58.3797 78.8562 58.3923 78.8706 58.4175 78.8814C58.4462 78.8922 58.4732 78.8975 58.4983 78.8975V79H57.5493V78.8975C57.6356 78.8975 57.6625 78.8742 57.6302 78.8274L55.7159 76.1852V78.8382C55.7159 78.8562 55.7302 78.8706 55.759 78.8814C55.7878 78.8922 55.8165 78.8975 55.8453 78.8975V79H54.8585V78.8975C54.8872 78.8975 54.916 78.8922 54.9448 78.8814C54.9735 78.8706 54.9879 78.8562 54.9879 78.8382V75.1175C54.9879 75.0995 54.9735 75.0851 54.9448 75.0743C54.9196 75.0635 54.8944 75.0582 54.8693 75.0582V74.9557H55.8453V75.0582C55.759 75.0582 55.732 75.0815 55.7644 75.1283L57.7326 77.8568L57.6625 75.1175C57.6625 75.0995 57.6463 75.0851 57.614 75.0743C57.5852 75.0635 57.5583 75.0582 57.5331 75.0582V74.9557H58.5037V75.0582ZM62.3235 74.8478V75.6783H62.2211C62.2211 75.6567 62.2157 75.6333 62.2049 75.6082C62.1941 75.583 62.1797 75.5704 62.1618 75.5704H60.9593V78.8382C60.9593 78.8562 60.9736 78.8706 61.0024 78.8814C61.0312 78.8922 61.0599 78.8975 61.0887 78.8975V79H60.0965V78.8975C60.1252 78.8975 60.154 78.8922 60.1828 78.8814C60.2115 78.8706 60.2259 78.8562 60.2259 78.8382V75.5704H59.018C59 75.5704 58.9856 75.583 58.9749 75.6082C58.9641 75.6333 58.9587 75.6567 58.9587 75.6783H58.8562V74.8478H58.9587C58.9587 74.8694 58.9641 74.8928 58.9749 74.9179C58.9856 74.9431 59 74.9557 59.018 74.9557H62.1618C62.1797 74.9557 62.1941 74.9431 62.2049 74.9179C62.2157 74.8928 62.2211 74.8694 62.2211 74.8478H62.3235ZM66.2538 75.0582C66.2286 75.0582 66.1999 75.0635 66.1675 75.0743C66.1388 75.0851 66.1244 75.0995 66.1244 75.1175V78.8382C66.1244 78.8562 66.1388 78.8706 66.1675 78.8814C66.1999 78.8922 66.2286 78.8975 66.2538 78.8975V79H65.24V78.8975C65.2652 78.8975 65.2922 78.8922 65.3209 78.8814C65.3533 78.8706 65.3694 78.8562 65.3694 78.8382V77.2097H63.5576V78.8382C63.5576 78.8562 63.572 78.8706 63.6007 78.8814C63.6331 78.8922 63.6619 78.8975 63.687 78.8975V79H62.6732V78.8975C62.6984 78.8975 62.7254 78.8922 62.7541 78.8814C62.7865 78.8706 62.8027 78.8562 62.8027 78.8382V75.1175C62.8027 75.0995 62.7865 75.0851 62.7541 75.0743C62.7254 75.0635 62.6984 75.0582 62.6732 75.0582V74.9557H63.687V75.0582C63.6619 75.0582 63.6331 75.0635 63.6007 75.0743C63.572 75.0851 63.5576 75.0995 63.5576 75.1175V76.5357H65.3694V75.1175C65.3694 75.0995 65.3533 75.0851 65.3209 75.0743C65.2922 75.0635 65.2652 75.0582 65.24 75.0582V74.9557H66.2538V75.0582ZM68.8404 79.0863C68.4234 79.0863 68.0495 78.991 67.7188 78.8005C67.3916 78.6064 67.1364 78.3511 66.953 78.0348C66.7733 77.7148 66.6834 77.3769 66.6834 77.021C66.6834 76.6615 66.7697 76.3164 66.9423 75.9856C67.1148 75.6513 67.3647 75.3799 67.6918 75.1714C68.0189 74.9629 68.4018 74.8586 68.8404 74.8586C69.2682 74.8586 69.6439 74.9575 69.9674 75.1552C70.2909 75.3529 70.539 75.6172 70.7116 75.9479C70.8841 76.275 70.9704 76.6327 70.9704 77.021C70.9704 77.3661 70.8841 77.6986 70.7116 78.0186C70.5426 78.3349 70.2963 78.592 69.9728 78.7897C69.6492 78.9874 69.2718 79.0863 68.8404 79.0863ZM68.8458 78.3745C69.1154 78.3745 69.3563 78.3188 69.5684 78.2073C69.7841 78.0923 69.9512 77.9323 70.0699 77.7274C70.1921 77.5189 70.2532 77.2834 70.2532 77.021C70.2532 76.7442 70.1957 76.4961 70.0806 76.2768C69.9656 76.0575 69.8002 75.885 69.5845 75.7592C69.3688 75.6297 69.1136 75.565 68.8188 75.565C68.5492 75.565 68.3083 75.6297 68.0962 75.7592C67.8877 75.885 67.7242 76.0593 67.6055 76.2822C67.4869 76.5051 67.4276 76.7514 67.4276 77.021C67.4276 77.3014 67.4959 77.5441 67.6325 77.749C67.7727 77.9539 67.9506 78.1103 68.1663 78.2181C68.3856 78.3224 68.6121 78.3745 68.8458 78.3745ZM75.0496 75.0582C75.0244 75.0582 74.9974 75.0635 74.9687 75.0743C74.9399 75.0851 74.9255 75.0995 74.9255 75.1175V78.8382C74.9255 78.8562 74.9381 78.8706 74.9633 78.8814C74.9921 78.8922 75.019 78.8975 75.0442 78.8975V79H74.0951V78.8975C74.1814 78.8975 74.2084 78.8742 74.176 78.8274L72.2617 76.1852V78.8382C72.2617 78.8562 72.2761 78.8706 72.3048 78.8814C72.3336 78.8922 72.3624 78.8975 72.3911 78.8975V79H71.4043V78.8975C71.4331 78.8975 71.4618 78.8922 71.4906 78.8814C71.5193 78.8706 71.5337 78.8562 71.5337 78.8382V75.1175C71.5337 75.0995 71.5193 75.0851 71.4906 75.0743C71.4654 75.0635 71.4403 75.0582 71.4151 75.0582V74.9557H72.3911V75.0582C72.3048 75.0582 72.2779 75.0815 72.3102 75.1283L74.2785 77.8568L74.2084 75.1175C74.2084 75.0995 74.1922 75.0851 74.1598 75.0743C74.1311 75.0635 74.1041 75.0582 74.0789 75.0582V74.9557H75.0496V75.0582ZM79.3978 75.0582H79.3655C79.2972 75.0582 79.2558 75.0689 79.2414 75.0905L77.7909 77.172V78.8382C77.7909 78.8562 77.8053 78.8706 77.834 78.8814C77.8664 78.8922 77.8969 78.8975 77.9257 78.8975V79H76.8688V78.8975C76.8976 78.8975 76.9263 78.8922 76.9551 78.8814C76.9874 78.8706 77.0036 78.8562 77.0036 78.8382V77.2043L75.5315 75.0905C75.5207 75.0761 75.4973 75.0671 75.4614 75.0635C75.429 75.0599 75.4003 75.0582 75.3751 75.0582V74.9557H76.4859V75.0582C76.4428 75.0582 76.4212 75.0671 76.4212 75.0851C76.4212 75.0995 76.4266 75.1157 76.4374 75.1336L77.3757 76.4548L78.3032 75.1336L78.314 75.1121C78.314 75.0941 78.3032 75.0815 78.2816 75.0743C78.2636 75.0635 78.2367 75.0582 78.2007 75.0582V74.9557H79.3978V75.0582ZM80.1831 79.0593C80.0501 79.0593 79.9386 79.0162 79.8488 78.9299C79.7625 78.84 79.7194 78.7286 79.7194 78.5956C79.7194 78.4697 79.7643 78.3637 79.8542 78.2774C79.944 78.1875 80.0537 78.1426 80.1831 78.1426C80.3089 78.1426 80.415 78.1875 80.5012 78.2774C80.5911 78.3637 80.6361 78.4697 80.6361 78.5956C80.6361 78.7286 80.5911 78.84 80.5012 78.9299C80.415 79.0162 80.3089 79.0593 80.1831 79.0593ZM84.1806 74.8425V75.7052H84.0781C84.0781 75.6801 84.0727 75.6549 84.0619 75.6297C84.0511 75.6046 84.0368 75.592 84.0188 75.592H82.2716V76.5465H83.6845C83.7024 76.5465 83.7168 76.5339 83.7276 76.5087C83.7384 76.4835 83.7438 76.4584 83.7438 76.4332H83.8462V77.296H83.7438C83.7438 77.2708 83.7384 77.2457 83.7276 77.2205C83.7168 77.1953 83.7024 77.1828 83.6845 77.1828H82.2716V78.8382C82.2716 78.8562 82.2842 78.8706 82.3094 78.8814C82.3382 78.8922 82.3669 78.8975 82.3957 78.8975V79H81.4466V78.8975C81.4754 78.8975 81.5023 78.8922 81.5275 78.8814C81.5563 78.8706 81.5706 78.8562 81.5706 78.8382V75.1175C81.5706 75.0995 81.5563 75.0851 81.5275 75.0743C81.5023 75.0635 81.4772 75.0582 81.452 75.0582V74.9557H84.0188C84.0368 74.9557 84.0511 74.9431 84.0619 74.9179C84.0727 74.8928 84.0781 74.8676 84.0781 74.8425H84.1806ZM87.708 78.8598C87.7224 78.885 87.7709 78.8975 87.8536 78.8975V79H86.7589V78.8975C86.8093 78.8975 86.8434 78.8886 86.8614 78.8706C86.8794 78.8526 86.8811 78.8346 86.8668 78.8167L85.9608 77.2906H85.4054V78.8382C85.4054 78.8562 85.4198 78.8706 85.4486 78.8814C85.4773 78.8922 85.5043 78.8975 85.5295 78.8975V79H84.5588V78.8975C84.584 78.8975 84.6109 78.8922 84.6397 78.8814C84.6685 78.8706 84.6828 78.8562 84.6828 78.8382V75.1175C84.6828 75.0995 84.6685 75.0851 84.6397 75.0743C84.6145 75.0635 84.5894 75.0582 84.5642 75.0582V74.9557H86.2089C86.6834 74.9557 87.0411 75.0635 87.282 75.2792C87.5264 75.4913 87.6487 75.7664 87.6487 76.1043C87.6487 76.417 87.5624 76.6687 87.3898 76.8592C87.2209 77.0497 87.0016 77.1774 86.732 77.2421L87.708 78.8598ZM85.4054 75.5812V76.6381H86.2898C86.5127 76.6381 86.6798 76.586 86.7913 76.4817C86.9027 76.3775 86.9584 76.2517 86.9584 76.1043C86.9584 75.9605 86.8955 75.8383 86.7697 75.7376C86.6439 75.6333 86.4893 75.5812 86.306 75.5812H85.4054Z" fill="#409AED"/>
<path d="M26.9207 83.1903L26.2238 86.0735H25.8898L25.1284 83.5465L24.3826 86.0735H24.0531L23.3095 83.1903L23.0445 83.1369V82.9409H24.0887V83.1369L23.8171 83.1636C23.8008 83.1666 23.7881 83.1747 23.7792 83.1881C23.7703 83.2 23.7659 83.2141 23.7659 83.2304C23.7659 83.2348 23.7659 83.2393 23.7659 83.2437C23.7674 83.2467 23.7688 83.2504 23.7703 83.2549L24.3136 85.312L25.0282 82.9409H25.38L26.1147 85.3855L26.6201 83.2549C26.6216 83.2519 26.6223 83.2467 26.6223 83.2393C26.6223 83.2215 26.6164 83.2051 26.6045 83.1903C26.5926 83.1755 26.5763 83.1666 26.5555 83.1636L26.2683 83.1369V82.9409H27.199V83.1369L26.9207 83.1903ZM28.7441 86V85.8219L28.9311 85.8085C28.9578 85.8056 28.9808 85.7952 29.0001 85.7774C29.0209 85.7596 29.0313 85.7365 29.0313 85.7083V84.5328C29.0313 84.4675 29.0239 84.4074 29.009 84.3525C28.9957 84.2976 28.9712 84.2501 28.9355 84.21C28.9014 84.1699 28.8554 84.1387 28.7975 84.1165C28.7396 84.0927 28.6669 84.0809 28.5793 84.0809C28.5392 84.0809 28.4969 84.0846 28.4524 84.092C28.4079 84.0979 28.3634 84.1068 28.3188 84.1187C28.2758 84.1306 28.2335 84.1447 28.1919 84.161C28.1519 84.1773 28.1155 84.1944 28.0828 84.2122V85.7083C28.0828 85.7365 28.091 85.7596 28.1073 85.7774C28.1237 85.7952 28.1459 85.8056 28.1741 85.8085L28.37 85.8219V86H27.3437V85.8219L27.5619 85.8085C27.5901 85.8056 27.6131 85.7952 27.6309 85.7774C27.6487 85.7596 27.6576 85.7365 27.6576 85.7083V82.9677H27.317V82.8163L27.9003 82.6404H28.0828V84.0297C28.1244 84.0044 28.1756 83.9755 28.2365 83.9428C28.2973 83.9102 28.3619 83.8797 28.4302 83.8515C28.4999 83.8219 28.5697 83.7974 28.6394 83.7781C28.7107 83.7573 28.776 83.7469 28.8354 83.7469C28.9229 83.7469 29.0038 83.761 29.078 83.7892C29.1537 83.8174 29.219 83.8597 29.274 83.9161C29.3304 83.9725 29.3741 84.0445 29.4053 84.1321C29.438 84.2182 29.4543 84.3198 29.4543 84.4371V85.7083C29.4543 85.7365 29.4639 85.7596 29.4832 85.7774C29.504 85.7952 29.5278 85.8056 29.5545 85.8085L29.7593 85.8219V86H28.7441ZM31.9456 85.7729C31.8818 85.813 31.815 85.8501 31.7452 85.8842C31.677 85.9184 31.6057 85.9481 31.5315 85.9733C31.4588 85.9985 31.3846 86.0186 31.3089 86.0334C31.2332 86.0482 31.1567 86.0557 31.0795 86.0557C30.9415 86.0557 30.8087 86.0327 30.681 85.9866C30.5534 85.9391 30.4406 85.8686 30.3426 85.7751C30.2461 85.6816 30.1682 85.5644 30.1088 85.4234C30.051 85.2809 30.022 85.1146 30.022 84.9247C30.022 84.7465 30.0487 84.5855 30.1022 84.4415C30.1556 84.2961 30.2298 84.1721 30.3248 84.0697C30.4198 83.9658 30.5326 83.8864 30.6632 83.8315C30.7938 83.7751 30.9371 83.7469 31.0929 83.7469C31.2339 83.7469 31.3578 83.7706 31.4647 83.8181C31.5716 83.8642 31.6606 83.9287 31.7319 84.0118C31.8031 84.0935 31.8566 84.1922 31.8922 84.3079C31.9278 84.4222 31.9456 84.5469 31.9456 84.682V84.7421C31.9456 84.7658 31.9441 84.7881 31.9412 84.8089H30.4628C30.4628 84.9247 30.4747 85.0404 30.4985 85.1562C30.5237 85.272 30.5653 85.3759 30.6231 85.4679C30.681 85.5599 30.7589 85.6349 30.8569 85.6928C30.9549 85.7492 31.0773 85.7774 31.2243 85.7774C31.2896 85.7774 31.3541 85.7692 31.418 85.7529C31.4818 85.7351 31.5441 85.7128 31.605 85.6861C31.6673 85.6594 31.7267 85.6297 31.7831 85.597C31.8395 85.5629 31.8937 85.5287 31.9456 85.4946V85.7729ZM31.4892 84.5039C31.4892 84.4282 31.4803 84.3584 31.4625 84.2946C31.4447 84.2293 31.4172 84.1729 31.3801 84.1254C31.3445 84.0779 31.2985 84.0408 31.2421 84.0141C31.1872 83.9859 31.1218 83.9718 31.0462 83.9718C30.9705 83.9718 30.9 83.9866 30.8346 84.0163C30.7693 84.0445 30.7115 84.0861 30.661 84.141C30.612 84.1959 30.5719 84.2627 30.5408 84.3413C30.5111 84.4185 30.4933 84.5061 30.4873 84.6041H31.4892V84.5039ZM33.6599 84.2679C33.6302 84.2337 33.5961 84.2048 33.5575 84.181C33.5189 84.1558 33.4714 84.1432 33.415 84.1432C33.3408 84.1432 33.2659 84.1684 33.1902 84.2189C33.1145 84.2679 33.0373 84.3369 32.9586 84.4259V85.7083C32.9586 85.7365 32.9675 85.7603 32.9853 85.7796C33.0031 85.7974 33.0262 85.807 33.0544 85.8085L33.3549 85.8219V86H32.215V85.8263L32.4399 85.8085C32.4666 85.8056 32.4888 85.7952 32.5067 85.7774C32.526 85.7596 32.5356 85.7365 32.5356 85.7083V84.1254H32.2061V83.9762L32.7716 83.8026H32.9586V84.2078C32.9913 84.1721 33.0306 84.1284 33.0766 84.0764C33.1241 84.023 33.1746 83.9718 33.228 83.9228C33.2814 83.8738 33.3364 83.8322 33.3928 83.7981C33.4506 83.764 33.5063 83.7469 33.5597 83.7469C33.5835 83.7469 33.6087 83.7491 33.6354 83.7536C33.6622 83.758 33.6881 83.764 33.7134 83.7714C33.7386 83.7773 33.7616 83.7847 33.7824 83.7937C33.8046 83.8011 33.8232 83.8085 33.838 83.8159V84.2679H33.6599ZM35.9665 85.7729C35.9026 85.813 35.8358 85.8501 35.7661 85.8842C35.6978 85.9184 35.6266 85.9481 35.5524 85.9733C35.4796 85.9985 35.4054 86.0186 35.3297 86.0334C35.254 86.0482 35.1776 86.0557 35.1004 86.0557C34.9624 86.0557 34.8295 86.0327 34.7019 85.9866C34.5742 85.9391 34.4614 85.8686 34.3635 85.7751C34.267 85.6816 34.1891 85.5644 34.1297 85.4234C34.0718 85.2809 34.0429 85.1146 34.0429 84.9247C34.0429 84.7465 34.0696 84.5855 34.123 84.4415C34.1764 84.2961 34.2507 84.1721 34.3457 84.0697C34.4406 83.9658 34.5534 83.8864 34.6841 83.8315C34.8147 83.7751 34.9579 83.7469 35.1138 83.7469C35.2548 83.7469 35.3787 83.7706 35.4856 83.8181C35.5924 83.8642 35.6815 83.9287 35.7527 84.0118C35.824 84.0935 35.8774 84.1922 35.913 84.3079C35.9486 84.4222 35.9665 84.5469 35.9665 84.682V84.7421C35.9665 84.7658 35.965 84.7881 35.962 84.8089H34.4837C34.4837 84.9247 34.4956 85.0404 34.5193 85.1562C34.5445 85.272 34.5861 85.3759 34.644 85.4679C34.7019 85.5599 34.7798 85.6349 34.8778 85.6928C34.9757 85.7492 35.0982 85.7774 35.2451 85.7774C35.3104 85.7774 35.375 85.7692 35.4388 85.7529C35.5026 85.7351 35.565 85.7128 35.6258 85.6861C35.6882 85.6594 35.7475 85.6297 35.8039 85.597C35.8603 85.5629 35.9145 85.5287 35.9665 85.4946V85.7729ZM35.5101 84.5039C35.5101 84.4282 35.5011 84.3584 35.4833 84.2946C35.4655 84.2293 35.4381 84.1729 35.401 84.1254C35.3653 84.0779 35.3193 84.0408 35.2629 84.0141C35.208 83.9859 35.1427 83.9718 35.067 83.9718C34.9913 83.9718 34.9208 83.9866 34.8555 84.0163C34.7902 84.0445 34.7323 84.0861 34.6818 84.141C34.6329 84.1959 34.5928 84.2627 34.5616 84.3413C34.5319 84.4185 34.5141 84.5061 34.5082 84.6041H35.5101V84.5039ZM40.1454 85.8308C40.0934 85.8575 40.0385 85.885 39.9806 85.9132C39.9242 85.9399 39.8634 85.9636 39.7981 85.9844C39.7342 86.0052 39.6667 86.0223 39.5955 86.0356C39.5257 86.049 39.4522 86.0557 39.3751 86.0557C39.2148 86.0557 39.07 86.0275 38.9409 85.9711C38.8133 85.9132 38.7042 85.8338 38.6136 85.7328C38.5231 85.6304 38.4533 85.5095 38.4044 85.3699C38.3554 85.2304 38.3309 85.079 38.3309 84.9158C38.3309 84.7243 38.3606 84.5558 38.4199 84.4104C38.4793 84.2649 38.5595 84.1432 38.6604 84.0452C38.7613 83.9458 38.8778 83.8716 39.0099 83.8226C39.1435 83.7721 39.283 83.7469 39.4285 83.7469C39.5279 83.7469 39.6207 83.7573 39.7068 83.7781C39.7944 83.7974 39.8693 83.8263 39.9317 83.8649C39.9955 83.9035 40.0452 83.951 40.0808 84.0074C40.1179 84.0638 40.1365 84.1291 40.1365 84.2033C40.1365 84.2478 40.1283 84.2872 40.112 84.3213C40.0971 84.354 40.0771 84.3822 40.0519 84.4059C40.0266 84.4282 39.9977 84.4452 39.965 84.4571C39.9339 84.4675 39.9012 84.4727 39.8671 84.4727C39.8166 84.4727 39.7728 84.4645 39.7357 84.4482C39.6986 84.4304 39.666 84.4126 39.6378 84.3948V83.9985C39.6066 83.9807 39.5739 83.9666 39.5398 83.9562C39.5072 83.9443 39.476 83.9384 39.4463 83.9384C39.3454 83.9384 39.2541 83.9614 39.1725 84.0074C39.0923 84.0534 39.024 84.1172 38.9676 84.1989C38.9127 84.2805 38.8704 84.3777 38.8407 84.4905C38.811 84.6018 38.7962 84.7235 38.7962 84.8556C38.7962 84.9818 38.8118 85.1005 38.8429 85.2119C38.8756 85.3232 38.9231 85.4204 38.9854 85.5035C39.0493 85.5852 39.1279 85.6497 39.2214 85.6972C39.3164 85.7447 39.4263 85.7685 39.5509 85.7685C39.6578 85.7685 39.7587 85.7521 39.8537 85.7195C39.9502 85.6853 40.0474 85.6356 40.1454 85.5703V85.8308ZM42.6234 84.9046C42.6234 85.0664 42.5974 85.2178 42.5454 85.3588C42.495 85.4983 42.4222 85.62 42.3272 85.7239C42.2337 85.8263 42.1194 85.9072 41.9844 85.9666C41.8508 86.026 41.7009 86.0557 41.5346 86.0557C41.3684 86.0557 41.2185 86.0267 41.0849 85.9688C40.9513 85.9095 40.8378 85.8286 40.7443 85.7262C40.6508 85.6237 40.5788 85.5028 40.5283 85.3633C40.4793 85.2222 40.4549 85.0694 40.4549 84.9046C40.4549 84.7428 40.4801 84.5914 40.5305 84.4504C40.581 84.3094 40.6537 84.187 40.7487 84.0831C40.8437 83.9777 40.958 83.8953 41.0916 83.836C41.2267 83.7766 41.3788 83.7469 41.548 83.7469C41.7172 83.7469 41.8686 83.7773 42.0022 83.8382C42.1358 83.899 42.2486 83.9822 42.3406 84.0875C42.4326 84.1914 42.5024 84.3139 42.5499 84.4549C42.5989 84.5944 42.6234 84.7443 42.6234 84.9046ZM42.1491 84.9002C42.1491 84.7755 42.1365 84.656 42.1113 84.5417C42.0875 84.4274 42.0504 84.3265 42 84.2389C41.9495 84.1514 41.8864 84.0816 41.8107 84.0297C41.735 83.9777 41.646 83.9517 41.5436 83.9517C41.4382 83.9517 41.3469 83.9777 41.2697 84.0297C41.1925 84.0816 41.1287 84.1514 41.0782 84.2389C41.0293 84.3265 40.9929 84.4274 40.9691 84.5417C40.9454 84.656 40.9335 84.7755 40.9335 84.9002C40.9335 85.0234 40.9454 85.1421 40.9691 85.2564C40.9944 85.3707 41.0322 85.4716 41.0827 85.5592C41.1332 85.6467 41.1962 85.7172 41.2719 85.7707C41.3476 85.8226 41.4367 85.8486 41.5391 85.8486C41.643 85.8486 41.7335 85.8226 41.8107 85.7707C41.8879 85.7187 41.951 85.649 42 85.5614C42.0504 85.4738 42.0875 85.3729 42.1113 85.2586C42.1365 85.1443 42.1491 85.0248 42.1491 84.9002ZM44.5158 86V85.7573C44.4638 85.7974 44.4097 85.836 44.3532 85.8731C44.2983 85.9087 44.2412 85.9399 44.1818 85.9666C44.1239 85.9933 44.0638 86.0148 44.0015 86.0312C43.9406 86.0475 43.8768 86.0557 43.81 86.0557C43.6571 86.0557 43.525 86.023 43.4137 85.9577C43.3039 85.8909 43.2133 85.8056 43.1421 85.7017C43.0709 85.5963 43.0182 85.479 42.984 85.3499C42.9514 85.2193 42.935 85.0894 42.935 84.9603C42.935 84.8059 42.9588 84.656 43.0063 84.5105C43.0538 84.3636 43.1258 84.2337 43.2222 84.1209C43.3187 84.0081 43.4397 83.9176 43.5851 83.8493C43.7306 83.781 43.9013 83.7469 44.0972 83.7469C44.1328 83.7469 44.1714 83.7491 44.213 83.7536C44.2545 83.758 44.2946 83.7632 44.3332 83.7692C44.3733 83.7736 44.4089 83.7796 44.4401 83.787C44.4727 83.7929 44.498 83.7981 44.5158 83.8026V82.9677H44.1707V82.8163L44.7585 82.6404H44.941V85.7083C44.941 85.7365 44.9499 85.7596 44.9677 85.7774C44.9855 85.7952 45.0085 85.8056 45.0367 85.8085L45.2327 85.8219V86H44.5158ZM44.5158 84.0341C44.4965 84.0282 44.4712 84.0215 44.4401 84.0141C44.4104 84.0052 44.3777 83.9977 44.3421 83.9918C44.308 83.9844 44.2716 83.9784 44.233 83.974C44.1959 83.9695 44.161 83.9673 44.1284 83.9673C44.0156 83.9673 43.9132 83.9896 43.8211 84.0341C43.7291 84.0771 43.6505 84.1387 43.5851 84.2189C43.5213 84.2976 43.4716 84.3933 43.436 84.5061C43.4018 84.6189 43.3848 84.7443 43.3848 84.8824C43.3848 85.007 43.3996 85.1221 43.4293 85.2274C43.459 85.3313 43.502 85.4219 43.5584 85.4991C43.6148 85.5762 43.6838 85.6364 43.7655 85.6794C43.8471 85.7224 43.9406 85.744 44.046 85.744C44.092 85.744 44.1365 85.7395 44.1796 85.7306C44.2226 85.7202 44.2642 85.7076 44.3043 85.6928C44.3443 85.6764 44.3822 85.6594 44.4178 85.6416C44.4534 85.6223 44.4861 85.6037 44.5158 85.5859V84.0341ZM47.4323 85.7729C47.3685 85.813 47.3017 85.8501 47.232 85.8842C47.1637 85.9184 47.0924 85.9481 47.0182 85.9733C46.9455 85.9985 46.8713 86.0186 46.7956 86.0334C46.7199 86.0482 46.6435 86.0557 46.5663 86.0557C46.4282 86.0557 46.2954 86.0327 46.1678 85.9866C46.0401 85.9391 45.9273 85.8686 45.8293 85.7751C45.7329 85.6816 45.6549 85.5644 45.5956 85.4234C45.5377 85.2809 45.5087 85.1146 45.5087 84.9247C45.5087 84.7465 45.5355 84.5855 45.5889 84.4415C45.6423 84.2961 45.7165 84.1721 45.8115 84.0697C45.9065 83.9658 46.0193 83.8864 46.1499 83.8315C46.2806 83.7751 46.4238 83.7469 46.5796 83.7469C46.7206 83.7469 46.8446 83.7706 46.9514 83.8181C47.0583 83.8642 47.1474 83.9287 47.2186 84.0118C47.2898 84.0935 47.3433 84.1922 47.3789 84.3079C47.4145 84.4222 47.4323 84.5469 47.4323 84.682V84.7421C47.4323 84.7658 47.4309 84.7881 47.4279 84.8089H45.9496C45.9496 84.9247 45.9614 85.0404 45.9852 85.1562C46.0104 85.272 46.052 85.3759 46.1099 85.4679C46.1678 85.5599 46.2457 85.6349 46.3436 85.6928C46.4416 85.7492 46.564 85.7774 46.711 85.7774C46.7763 85.7774 46.8409 85.7692 46.9047 85.7529C46.9685 85.7351 47.0308 85.7128 47.0917 85.6861C47.154 85.6594 47.2134 85.6297 47.2698 85.597C47.3262 85.5629 47.3804 85.5287 47.4323 85.4946V85.7729ZM46.9759 84.5039C46.9759 84.4282 46.967 84.3584 46.9492 84.2946C46.9314 84.2293 46.9039 84.1729 46.8668 84.1254C46.8312 84.0779 46.7852 84.0408 46.7288 84.0141C46.6739 83.9859 46.6086 83.9718 46.5329 83.9718C46.4572 83.9718 46.3867 83.9866 46.3214 84.0163C46.2561 84.0445 46.1982 84.0861 46.1477 84.141C46.0987 84.1959 46.0587 84.2627 46.0275 84.3413C45.9978 84.4185 45.98 84.5061 45.9741 84.6041H46.9759V84.5039ZM52.395 86V85.8219L52.5864 85.8085C52.6146 85.8056 52.6376 85.7952 52.6554 85.7774C52.6732 85.7596 52.6822 85.7365 52.6822 85.7083V84.5462C52.6822 84.4749 52.6755 84.4111 52.6621 84.3547C52.6488 84.2968 52.6258 84.2478 52.5931 84.2078C52.5619 84.1677 52.5204 84.1365 52.4684 84.1143C52.4165 84.092 52.3526 84.0809 52.277 84.0809C52.2384 84.0809 52.1975 84.0846 52.1545 84.092C52.1129 84.0979 52.0706 84.1068 52.0276 84.1187C51.986 84.1291 51.9445 84.1425 51.9029 84.1588C51.8628 84.1736 51.825 84.1899 51.7894 84.2078V85.7083C51.7894 85.7365 51.7983 85.7596 51.8161 85.7774C51.8339 85.7952 51.8569 85.8056 51.8851 85.8085L52.0766 85.8219V86H51.0769V85.8219L51.2684 85.8085C51.2966 85.8056 51.3196 85.7952 51.3374 85.7774C51.3552 85.7596 51.3641 85.7365 51.3641 85.7083V84.5172C51.3641 84.4534 51.3567 84.3948 51.3419 84.3413C51.3285 84.2864 51.3055 84.2404 51.2729 84.2033C51.2417 84.1647 51.2001 84.135 51.1482 84.1143C51.0977 84.092 51.0361 84.0809 50.9634 84.0809C50.9203 84.0809 50.8751 84.0853 50.8276 84.0942C50.7816 84.1016 50.737 84.112 50.694 84.1254C50.6509 84.1373 50.6101 84.1514 50.5715 84.1677C50.5344 84.1825 50.5025 84.1974 50.4758 84.2122V85.7083C50.4758 85.7365 50.4847 85.7596 50.5025 85.7774C50.5203 85.7952 50.5433 85.8056 50.5715 85.8085L50.763 85.8219V86H49.7322V85.8219L49.9548 85.8085C49.983 85.8056 50.006 85.7952 50.0239 85.7774C50.0417 85.7596 50.0506 85.7365 50.0506 85.7083V84.1254H49.7366V83.9762L50.2888 83.8026H50.4758V84.0297C50.5263 83.9985 50.5819 83.9666 50.6428 83.9339C50.7051 83.9013 50.7689 83.8708 50.8343 83.8426C50.8996 83.8144 50.9649 83.7914 51.0302 83.7736C51.097 83.7558 51.16 83.7469 51.2194 83.7469C51.2847 83.7469 51.3441 83.7565 51.3975 83.7758C51.451 83.7937 51.4977 83.8181 51.5378 83.8493C51.5794 83.879 51.615 83.9131 51.6447 83.9517C51.6758 83.9888 51.7011 84.0259 51.7204 84.063C51.7664 84.0348 51.822 84.0022 51.8873 83.9651C51.9526 83.928 52.0217 83.8938 52.0944 83.8627C52.1671 83.83 52.2398 83.8026 52.3126 83.7803C52.3853 83.758 52.4521 83.7469 52.5129 83.7469C52.6332 83.7469 52.7311 83.7692 52.8068 83.8137C52.8825 83.8567 52.9419 83.9124 52.9849 83.9807C53.0295 84.0475 53.0599 84.1224 53.0762 84.2055C53.0926 84.2887 53.1007 84.3688 53.1007 84.446V85.7083C53.1007 85.7365 53.1096 85.7596 53.1274 85.7774C53.1467 85.7952 53.1697 85.8056 53.1964 85.8085L53.4169 85.8219V86H52.395ZM55.5987 85.7729C55.5349 85.813 55.4681 85.8501 55.3983 85.8842C55.3301 85.9184 55.2588 85.9481 55.1846 85.9733C55.1119 85.9985 55.0377 86.0186 54.962 86.0334C54.8863 86.0482 54.8098 86.0557 54.7327 86.0557C54.5946 86.0557 54.4618 86.0327 54.3341 85.9866C54.2065 85.9391 54.0937 85.8686 53.9957 85.7751C53.8992 85.6816 53.8213 85.5644 53.7619 85.4234C53.7041 85.2809 53.6751 85.1146 53.6751 84.9247C53.6751 84.7465 53.7018 84.5855 53.7553 84.4415C53.8087 84.2961 53.8829 84.1721 53.9779 84.0697C54.0729 83.9658 54.1857 83.8864 54.3163 83.8315C54.4469 83.7751 54.5902 83.7469 54.746 83.7469C54.887 83.7469 55.011 83.7706 55.1178 83.8181C55.2247 83.8642 55.3137 83.9287 55.385 84.0118C55.4562 84.0935 55.5097 84.1922 55.5453 84.3079C55.5809 84.4222 55.5987 84.5469 55.5987 84.682V84.7421C55.5987 84.7658 55.5972 84.7881 55.5943 84.8089H54.1159C54.1159 84.9247 54.1278 85.0404 54.1516 85.1562C54.1768 85.272 54.2184 85.3759 54.2762 85.4679C54.3341 85.5599 54.4121 85.6349 54.51 85.6928C54.608 85.7492 54.7304 85.7774 54.8774 85.7774C54.9427 85.7774 55.0072 85.7692 55.0711 85.7529C55.1349 85.7351 55.1972 85.7128 55.2581 85.6861C55.3204 85.6594 55.3798 85.6297 55.4362 85.597C55.4926 85.5629 55.5468 85.5287 55.5987 85.4946V85.7729ZM55.1423 84.5039C55.1423 84.4282 55.1334 84.3584 55.1156 84.2946C55.0978 84.2293 55.0703 84.1729 55.0332 84.1254C54.9976 84.0779 54.9516 84.0408 54.8952 84.0141C54.8403 83.9859 54.775 83.9718 54.6993 83.9718C54.6236 83.9718 54.5531 83.9866 54.4878 84.0163C54.4224 84.0445 54.3646 84.0861 54.3141 84.141C54.2651 84.1959 54.225 84.2627 54.1939 84.3413C54.1642 84.4185 54.1464 84.5061 54.1404 84.6041H55.1423V84.5039ZM57.834 85.7729C57.7702 85.813 57.7034 85.8501 57.6336 85.8842C57.5654 85.9184 57.4941 85.9481 57.4199 85.9733C57.3472 85.9985 57.273 86.0186 57.1973 86.0334C57.1216 86.0482 57.0451 86.0557 56.9679 86.0557C56.8299 86.0557 56.6971 86.0327 56.5694 85.9866C56.4418 85.9391 56.329 85.8686 56.231 85.7751C56.1345 85.6816 56.0566 85.5644 55.9972 85.4234C55.9394 85.2809 55.9104 85.1146 55.9104 84.9247C55.9104 84.7465 55.9371 84.5855 55.9906 84.4415C56.044 84.2961 56.1182 84.1721 56.2132 84.0697C56.3082 83.9658 56.421 83.8864 56.5516 83.8315C56.6822 83.7751 56.8255 83.7469 56.9813 83.7469C57.1223 83.7469 57.2462 83.7706 57.3531 83.8181C57.46 83.8642 57.549 83.9287 57.6203 84.0118C57.6915 84.0935 57.7449 84.1922 57.7806 84.3079C57.8162 84.4222 57.834 84.5469 57.834 84.682V84.7421C57.834 84.7658 57.8325 84.7881 57.8296 84.8089H56.3512C56.3512 84.9247 56.3631 85.0404 56.3869 85.1562C56.4121 85.272 56.4536 85.3759 56.5115 85.4679C56.5694 85.5599 56.6473 85.6349 56.7453 85.6928C56.8433 85.7492 56.9657 85.7774 57.1127 85.7774C57.178 85.7774 57.2425 85.7692 57.3064 85.7529C57.3702 85.7351 57.4325 85.7128 57.4934 85.6861C57.5557 85.6594 57.6151 85.6297 57.6715 85.597C57.7279 85.5629 57.7821 85.5287 57.834 85.4946V85.7729ZM57.3776 84.5039C57.3776 84.4282 57.3687 84.3584 57.3509 84.2946C57.3331 84.2293 57.3056 84.1729 57.2685 84.1254C57.2329 84.0779 57.1869 84.0408 57.1305 84.0141C57.0756 83.9859 57.0102 83.9718 56.9345 83.9718C56.8588 83.9718 56.7883 83.9866 56.723 84.0163C56.6577 84.0445 56.5998 84.0861 56.5494 84.141C56.5004 84.1959 56.4603 84.2627 56.4292 84.3413C56.3995 84.4185 56.3817 84.5061 56.3757 84.6041H57.3776V84.5039ZM59.5082 85.9043C59.4518 85.9325 59.3902 85.9577 59.3235 85.98C59.2671 85.9993 59.2017 86.0163 59.1275 86.0312C59.0533 86.0475 58.9754 86.0557 58.8938 86.0557C58.7216 86.0557 58.5969 86.0156 58.5197 85.9354C58.4426 85.8553 58.404 85.7247 58.404 85.5436V84.0297H58.1123V83.8805L58.424 83.7335L58.6288 83.2504H58.8292V83.8026H59.4726V84.0297H58.8292V85.3031C58.8292 85.3937 58.8366 85.4709 58.8515 85.5347C58.8678 85.597 58.8908 85.6482 58.9205 85.6883C58.9517 85.7269 58.9895 85.7551 59.034 85.7729C59.08 85.7907 59.1335 85.7996 59.1943 85.7996C59.2389 85.7996 59.2797 85.7959 59.3168 85.7885C59.3554 85.7811 59.3888 85.7722 59.417 85.7618C59.4496 85.7499 59.48 85.7365 59.5082 85.7217V85.9043ZM61.1981 85.3388C61.1981 85.4501 61.178 85.5503 61.138 85.6393C61.0979 85.7284 61.0407 85.8041 60.9665 85.8664C60.8923 85.9273 60.801 85.974 60.6927 86.0067C60.5843 86.0393 60.4626 86.0557 60.3276 86.0557C60.2578 86.0557 60.1895 86.0512 60.1227 86.0423C60.0574 86.0349 59.9966 86.0245 59.9402 86.0111C59.8852 85.9993 59.8363 85.9866 59.7932 85.9733C59.7502 85.9599 59.7175 85.9488 59.6953 85.9399V85.3343H59.9268L59.9825 85.7217C60.0285 85.7514 60.0849 85.7803 60.1517 85.8085C60.2199 85.8352 60.2986 85.8486 60.3877 85.8486C60.453 85.8486 60.5109 85.839 60.5613 85.8197C60.6118 85.7989 60.6541 85.7722 60.6882 85.7395C60.7239 85.7069 60.7506 85.6698 60.7684 85.6282C60.7877 85.5852 60.7973 85.5406 60.7973 85.4946C60.7973 85.4352 60.7862 85.384 60.7639 85.341C60.7417 85.2965 60.709 85.2571 60.666 85.223C60.6244 85.1874 60.5725 85.154 60.5101 85.1228C60.4493 85.0902 60.3795 85.0545 60.3008 85.0159L60.2407 84.987C60.1576 84.9469 60.0841 84.9076 60.0203 84.869C59.9565 84.8289 59.9023 84.7866 59.8578 84.7421C59.8147 84.6961 59.7821 84.6464 59.7598 84.5929C59.7376 84.538 59.7264 84.4764 59.7264 84.4081C59.7264 84.3072 59.7442 84.2159 59.7799 84.1343C59.817 84.0527 59.8704 83.9836 59.9402 83.9272C60.0099 83.8694 60.0953 83.8248 60.1962 83.7937C60.2986 83.7625 60.4159 83.7469 60.548 83.7469C60.6148 83.7469 60.6786 83.7506 60.7394 83.758C60.8003 83.7655 60.856 83.7744 60.9064 83.7847C60.9569 83.7951 61.0014 83.8063 61.04 83.8181C61.0786 83.83 61.109 83.8411 61.1313 83.8515V84.3903H60.8931L60.8574 84.072C60.8248 84.0467 60.7765 84.023 60.7127 84.0007C60.6489 83.9784 60.5814 83.9673 60.5101 83.9673C60.384 83.9673 60.2905 83.9963 60.2296 84.0541C60.1702 84.1105 60.1405 84.1833 60.1405 84.2723C60.1405 84.3243 60.1487 84.3695 60.165 84.4081C60.1828 84.4467 60.211 84.4831 60.2496 84.5172C60.2897 84.5514 60.3424 84.5862 60.4077 84.6219C60.473 84.656 60.5539 84.6946 60.6504 84.7376C60.729 84.7733 60.8018 84.8111 60.8686 84.8512C60.9354 84.8898 60.9932 84.9336 61.0422 84.9825C61.0912 85.03 61.1291 85.0827 61.1558 85.1406C61.184 85.1985 61.1981 85.2646 61.1981 85.3388ZM65.3792 85.8308C65.3273 85.8575 65.2724 85.885 65.2145 85.9132C65.1581 85.9399 65.0972 85.9636 65.0319 85.9844C64.9681 86.0052 64.9005 86.0223 64.8293 86.0356C64.7595 86.049 64.6861 86.0557 64.6089 86.0557C64.4486 86.0557 64.3039 86.0275 64.1747 85.9711C64.0471 85.9132 63.938 85.8338 63.8475 85.7328C63.7569 85.6304 63.6872 85.5095 63.6382 85.3699C63.5892 85.2304 63.5647 85.079 63.5647 84.9158C63.5647 84.7243 63.5944 84.5558 63.6538 84.4104C63.7131 84.2649 63.7933 84.1432 63.8942 84.0452C63.9952 83.9458 64.1117 83.8716 64.2438 83.8226C64.3773 83.7721 64.5169 83.7469 64.6623 83.7469C64.7618 83.7469 64.8545 83.7573 64.9406 83.7781C65.0282 83.7974 65.1031 83.8263 65.1655 83.8649C65.2293 83.9035 65.279 83.951 65.3147 84.0074C65.3518 84.0638 65.3703 84.1291 65.3703 84.2033C65.3703 84.2478 65.3622 84.2872 65.3458 84.3213C65.331 84.354 65.3109 84.3822 65.2857 84.4059C65.2605 84.4282 65.2315 84.4452 65.1989 84.4571C65.1677 84.4675 65.1351 84.4727 65.1009 84.4727C65.0505 84.4727 65.0067 84.4645 64.9696 84.4482C64.9325 84.4304 64.8998 84.4126 64.8716 84.3948V83.9985C64.8404 83.9807 64.8078 83.9666 64.7736 83.9562C64.741 83.9443 64.7098 83.9384 64.6801 83.9384C64.5792 83.9384 64.4879 83.9614 64.4063 84.0074C64.3261 84.0534 64.2579 84.1172 64.2015 84.1989C64.1465 84.2805 64.1042 84.3777 64.0746 84.4905C64.0449 84.6018 64.03 84.7235 64.03 84.8556C64.03 84.9818 64.0456 85.1005 64.0768 85.2119C64.1094 85.3232 64.1569 85.4204 64.2193 85.5035C64.2831 85.5852 64.3618 85.6497 64.4553 85.6972C64.5503 85.7447 64.6601 85.7685 64.7848 85.7685C64.8916 85.7685 64.9926 85.7521 65.0876 85.7195C65.184 85.6853 65.2813 85.6356 65.3792 85.5703V85.8308ZM67.0913 84.2679C67.0616 84.2337 67.0275 84.2048 66.9889 84.181C66.9503 84.1558 66.9028 84.1432 66.8464 84.1432C66.7722 84.1432 66.6972 84.1684 66.6215 84.2189C66.5458 84.2679 66.4687 84.3369 66.39 84.4259V85.7083C66.39 85.7365 66.3989 85.7603 66.4167 85.7796C66.4345 85.7974 66.4575 85.807 66.4857 85.8085L66.7863 85.8219V86H65.6464V85.8263L65.8713 85.8085C65.898 85.8056 65.9202 85.7952 65.938 85.7774C65.9573 85.7596 65.967 85.7365 65.967 85.7083V84.1254H65.6375V83.9762L66.203 83.8026H66.39V84.2078C66.4227 84.1721 66.462 84.1284 66.508 84.0764C66.5555 84.023 66.606 83.9718 66.6594 83.9228C66.7128 83.8738 66.7677 83.8322 66.8241 83.7981C66.882 83.764 66.9377 83.7469 66.9911 83.7469C67.0149 83.7469 67.0401 83.7491 67.0668 83.7536C67.0935 83.758 67.1195 83.764 67.1447 83.7714C67.17 83.7773 67.193 83.7847 67.2138 83.7937C67.236 83.8011 67.2546 83.8085 67.2694 83.8159V84.2679H67.0913ZM69.3978 85.7729C69.334 85.813 69.2672 85.8501 69.1975 85.8842C69.1292 85.9184 69.0579 85.9481 68.9837 85.9733C68.911 85.9985 68.8368 86.0186 68.7611 86.0334C68.6854 86.0482 68.609 86.0557 68.5318 86.0557C68.3937 86.0557 68.2609 86.0327 68.1333 85.9866C68.0056 85.9391 67.8928 85.8686 67.7948 85.7751C67.6984 85.6816 67.6204 85.5644 67.5611 85.4234C67.5032 85.2809 67.4742 85.1146 67.4742 84.9247C67.4742 84.7465 67.501 84.5855 67.5544 84.4415C67.6078 84.2961 67.682 84.1721 67.777 84.0697C67.872 83.9658 67.9848 83.8864 68.1154 83.8315C68.2461 83.7751 68.3893 83.7469 68.5451 83.7469C68.6861 83.7469 68.8101 83.7706 68.9169 83.8181C69.0238 83.8642 69.1129 83.9287 69.1841 84.0118C69.2554 84.0935 69.3088 84.1922 69.3444 84.3079C69.38 84.4222 69.3978 84.5469 69.3978 84.682V84.7421C69.3978 84.7658 69.3964 84.7881 69.3934 84.8089H67.9151C67.9151 84.9247 67.9269 85.0404 67.9507 85.1562C67.9759 85.272 68.0175 85.3759 68.0754 85.4679C68.1333 85.5599 68.2112 85.6349 68.3091 85.6928C68.4071 85.7492 68.5296 85.7774 68.6765 85.7774C68.7418 85.7774 68.8064 85.7692 68.8702 85.7529C68.934 85.7351 68.9964 85.7128 69.0572 85.6861C69.1195 85.6594 69.1789 85.6297 69.2353 85.597C69.2917 85.5629 69.3459 85.5287 69.3978 85.4946V85.7729ZM68.9414 84.5039C68.9414 84.4282 68.9325 84.3584 68.9147 84.2946C68.8969 84.2293 68.8694 84.1729 68.8323 84.1254C68.7967 84.0779 68.7507 84.0408 68.6943 84.0141C68.6394 83.9859 68.5741 83.9718 68.4984 83.9718C68.4227 83.9718 68.3522 83.9866 68.2869 84.0163C68.2216 84.0445 68.1637 84.0861 68.1132 84.141C68.0642 84.1959 68.0242 84.2627 67.993 84.3413C67.9633 84.4185 67.9455 84.5061 67.9396 84.6041H68.9414V84.5039ZM71.1233 86L71.0632 85.7306C70.983 85.7915 70.9007 85.8456 70.8161 85.8931C70.7789 85.9139 70.7396 85.934 70.6981 85.9532C70.6565 85.9725 70.6135 85.9896 70.5689 86.0045C70.5259 86.0208 70.4814 86.0334 70.4353 86.0423C70.3908 86.0512 70.3463 86.0557 70.3018 86.0557C70.2186 86.0557 70.1407 86.0416 70.068 86.0134C69.9967 85.9852 69.9344 85.9443 69.881 85.8909C69.8275 85.8375 69.7852 85.7729 69.7541 85.6972C69.7244 85.6215 69.7095 85.5354 69.7095 85.439C69.7095 85.3825 69.7147 85.3291 69.7251 85.2787C69.737 85.2282 69.76 85.1792 69.7941 85.1317C69.8283 85.0842 69.8758 85.0389 69.9366 84.9959C69.999 84.9514 70.0799 84.9076 70.1793 84.8645C70.2802 84.8215 70.4027 84.7792 70.5467 84.7376C70.6921 84.6946 70.8643 84.6516 71.0632 84.6085V84.4126C71.0632 84.2597 71.029 84.1469 70.9608 84.0742C70.8925 84 70.7849 83.9629 70.6379 83.9629C70.5578 83.9629 70.4895 83.9703 70.4331 83.9851C70.3767 84 70.3374 84.0118 70.3151 84.0207V84.417H69.9834C69.9626 84.417 69.9418 84.4156 69.921 84.4126C69.9017 84.4096 69.8839 84.4037 69.8676 84.3948C69.8513 84.3844 69.8379 84.371 69.8275 84.3547C69.8186 84.3369 69.8142 84.3139 69.8142 84.2857C69.8142 84.1922 69.8424 84.112 69.8988 84.0452C69.9552 83.977 70.0287 83.9206 70.1192 83.876C70.2097 83.8315 70.3114 83.7988 70.4242 83.7781C70.537 83.7573 70.6498 83.7469 70.7626 83.7469C70.9036 83.7469 71.0201 83.764 71.1122 83.7981C71.2057 83.8322 71.2791 83.8797 71.3326 83.9406C71.3875 84.0014 71.4261 84.0734 71.4483 84.1566C71.4706 84.2397 71.4817 84.331 71.4817 84.4304V85.7083C71.4817 85.7365 71.4906 85.7596 71.5085 85.7774C71.5278 85.7952 71.5508 85.8056 71.5775 85.8085L71.7979 85.8219V86H71.1233ZM71.0632 84.7822C70.8584 84.8341 70.6958 84.8853 70.5756 84.9358C70.4554 84.9863 70.3641 85.0375 70.3018 85.0894C70.2409 85.1399 70.2016 85.1918 70.1838 85.2453C70.1674 85.2972 70.1593 85.3514 70.1593 85.4078C70.1593 85.4553 70.1667 85.502 70.1815 85.548C70.1979 85.5926 70.2201 85.6326 70.2483 85.6683C70.278 85.7039 70.3136 85.7328 70.3552 85.7551C70.3982 85.7759 70.4472 85.7863 70.5021 85.7863C70.563 85.7863 70.6261 85.7751 70.6914 85.7529C70.7582 85.7306 70.819 85.7061 70.8739 85.6794C70.9378 85.6482 71.0008 85.6119 71.0632 85.5703V84.7822ZM73.392 85.9043C73.3356 85.9325 73.274 85.9577 73.2072 85.98C73.1508 85.9993 73.0855 86.0163 73.0113 86.0312C72.9371 86.0475 72.8591 86.0557 72.7775 86.0557C72.6053 86.0557 72.4806 86.0156 72.4035 85.9354C72.3263 85.8553 72.2877 85.7247 72.2877 85.5436V84.0297H71.996V83.8805L72.3077 83.7335L72.5126 83.2504H72.7129V83.8026H73.3564V84.0297H72.7129V85.3031C72.7129 85.3937 72.7204 85.4709 72.7352 85.5347C72.7515 85.597 72.7745 85.6482 72.8042 85.6883C72.8354 85.7269 72.8732 85.7551 72.9178 85.7729C72.9638 85.7907 73.0172 85.7996 73.0781 85.7996C73.1226 85.7996 73.1634 85.7959 73.2005 85.7885C73.2391 85.7811 73.2725 85.7722 73.3007 85.7618C73.3334 85.7499 73.3638 85.7365 73.392 85.7217V85.9043ZM74.4161 83.05C74.4161 83.0886 74.4087 83.1257 74.3939 83.1614C74.3805 83.1955 74.3612 83.2252 74.336 83.2504C74.3107 83.2756 74.281 83.2957 74.2469 83.3105C74.2143 83.3254 74.1786 83.3328 74.14 83.3328C74.1015 83.3328 74.0643 83.3254 74.0287 83.3105C73.9946 83.2957 73.9649 83.2756 73.9397 83.2504C73.9144 83.2252 73.8944 83.1955 73.8796 83.1614C73.8647 83.1257 73.8573 83.0886 73.8573 83.05C73.8573 83.0115 73.8647 82.9751 73.8796 82.9409C73.8944 82.9068 73.9144 82.8771 73.9397 82.8519C73.9649 82.8267 73.9946 82.8074 74.0287 82.794C74.0643 82.7792 74.1015 82.7717 74.14 82.7717C74.1786 82.7717 74.2143 82.7792 74.2469 82.794C74.281 82.8074 74.3107 82.8267 74.336 82.8519C74.3612 82.8771 74.3805 82.9068 74.3939 82.9409C74.4087 82.9751 74.4161 83.0115 74.4161 83.05ZM73.579 86V85.8219L73.8016 85.8085C73.8298 85.8056 73.8528 85.7952 73.8707 85.7774C73.8885 85.7596 73.8974 85.7365 73.8974 85.7083V84.0809H73.5834V83.9206L74.14 83.7469H74.3204V85.7083C74.3204 85.7365 74.3293 85.7596 74.3471 85.7774C74.3664 85.7952 74.3894 85.8056 74.4161 85.8085L74.6499 85.8219V86H73.579ZM76.9319 84.0074L76.1349 86H75.8388L75.1041 84.0074L74.8525 83.9807V83.8026H75.861V83.9807L75.6429 83.994C75.6221 83.997 75.6043 84.0052 75.5894 84.0185C75.5761 84.0304 75.5694 84.0467 75.5694 84.0675C75.5694 84.0734 75.5709 84.0823 75.5738 84.0942L76.0837 85.5213L76.6447 84.0942C76.6492 84.0853 76.6514 84.0757 76.6514 84.0653C76.6514 84.0475 76.6447 84.0319 76.6314 84.0185C76.6195 84.0037 76.6032 83.9955 76.5824 83.994L76.3776 83.9807V83.8026H77.1746V83.9807L76.9319 84.0074ZM78.2143 83.05C78.2143 83.0886 78.2069 83.1257 78.1921 83.1614C78.1787 83.1955 78.1594 83.2252 78.1342 83.2504C78.1089 83.2756 78.0793 83.2957 78.0451 83.3105C78.0125 83.3254 77.9768 83.3328 77.9383 83.3328C77.8997 83.3328 77.8626 83.3254 77.8269 83.3105C77.7928 83.2957 77.7631 83.2756 77.7379 83.2504C77.7126 83.2252 77.6926 83.1955 77.6778 83.1614C77.6629 83.1257 77.6555 83.0886 77.6555 83.05C77.6555 83.0115 77.6629 82.9751 77.6778 82.9409C77.6926 82.9068 77.7126 82.8771 77.7379 82.8519C77.7631 82.8267 77.7928 82.8074 77.8269 82.794C77.8626 82.7792 77.8997 82.7717 77.9383 82.7717C77.9768 82.7717 78.0125 82.7792 78.0451 82.794C78.0793 82.8074 78.1089 82.8267 78.1342 82.8519C78.1594 82.8771 78.1787 82.9068 78.1921 82.9409C78.2069 82.9751 78.2143 83.0115 78.2143 83.05ZM77.3772 86V85.8219L77.5998 85.8085C77.628 85.8056 77.6511 85.7952 77.6689 85.7774C77.6867 85.7596 77.6956 85.7365 77.6956 85.7083V84.0809H77.3817V83.9206L77.9383 83.7469H78.1186V85.7083C78.1186 85.7365 78.1275 85.7596 78.1453 85.7774C78.1646 85.7952 78.1876 85.8056 78.2143 85.8085L78.4481 85.8219V86H77.3772ZM80.1246 85.9043C80.0682 85.9325 80.0066 85.9577 79.9398 85.98C79.8834 85.9993 79.8181 86.0163 79.7439 86.0312C79.6696 86.0475 79.5917 86.0557 79.5101 86.0557C79.3379 86.0557 79.2132 86.0156 79.1361 85.9354C79.0589 85.8553 79.0203 85.7247 79.0203 85.5436V84.0297H78.7286V83.8805L79.0403 83.7335L79.2451 83.2504H79.4455V83.8026H80.0889V84.0297H79.4455V85.3031C79.4455 85.3937 79.4529 85.4709 79.4678 85.5347C79.4841 85.597 79.5071 85.6482 79.5368 85.6883C79.568 85.7269 79.6058 85.7551 79.6503 85.7729C79.6964 85.7907 79.7498 85.7996 79.8106 85.7996C79.8552 85.7996 79.896 85.7959 79.9331 85.7885C79.9717 85.7811 80.0051 85.7722 80.0333 85.7618C80.0659 85.7499 80.0964 85.7365 80.1246 85.7217V85.9043ZM82.2886 84.0074L81.4136 86.1403C81.3988 86.1774 81.378 86.2271 81.3513 86.2894C81.3246 86.3518 81.2927 86.4178 81.2556 86.4876C81.2199 86.5588 81.1799 86.6286 81.1353 86.6969C81.0923 86.7651 81.047 86.823 80.9995 86.8705C80.9446 86.9254 80.8838 86.9677 80.817 86.9974C80.7517 87.0286 80.6804 87.0442 80.6032 87.0442C80.5498 87.0442 80.5023 87.0368 80.4607 87.0219C80.4192 87.0086 80.3843 86.99 80.3561 86.9663C80.3279 86.9425 80.3064 86.9143 80.2915 86.8816C80.2767 86.8505 80.2693 86.8178 80.2693 86.7837C80.2693 86.7317 80.2804 86.6835 80.3027 86.639C80.3264 86.5959 80.3643 86.5529 80.4162 86.5098L80.8437 86.7058C80.8808 86.6687 80.9186 86.6197 80.9572 86.5588C80.9958 86.4995 81.0322 86.4364 81.0663 86.3696C81.1005 86.3028 81.1316 86.236 81.1598 86.1692C81.188 86.1039 81.2103 86.046 81.2266 85.9955L80.4518 84.0074L80.2003 83.9807V83.8026H81.2088V83.9807L80.9906 83.994C80.9698 83.997 80.952 84.0052 80.9372 84.0185C80.9238 84.0319 80.9172 84.0482 80.9172 84.0675C80.9172 84.0794 80.9186 84.0883 80.9216 84.0942L81.4515 85.439L81.9925 84.0942C81.997 84.0853 81.9992 84.0757 81.9992 84.0653C81.9992 84.0475 81.9925 84.0319 81.9791 84.0185C81.9673 84.0037 81.9509 83.9955 81.9302 83.994L81.7142 83.9807V83.8026H82.5268V83.9807L82.2886 84.0074Z" fill="#23F0AD"/>
<defs>
<filter id="filter0_d_220_301" x="0" y="0" width="106" height="106" filterUnits="userSpaceOnUse" color-interpolation-filters="sRGB">
<feFlood flood-opacity="0" result="BackgroundImageFix"/>
<feColorMatrix in="SourceAlpha" type="matrix" values="0 0 0 0 0 0 0 0 0 0 0 0 0 0 0 0 0 0 127 0" result="hardAlpha"/>
<feOffset dy="4"/>
<feGaussianBlur stdDeviation="2"/>
<feComposite in2="hardAlpha" operator="out"/>
<feColorMatrix type="matrix" values="0 0 0 0 0 0 0 0 0 0 0 0 0 0 0 0 0 0 0.25 0"/>
<feBlend mode="normal" in2="BackgroundImageFix" result="effect1_dropShadow_220_301"/>
<feBlend mode="normal" in="SourceGraphic" in2="effect1_dropShadow_220_301" result="shape"/>
</filter>
<linearGradient id="paint0_linear_220_301" x1="13" y1="10.9541" x2="13" y2="74.5079" gradientUnits="userSpaceOnUse">
<stop stop-color="#23F04A"/>
<stop offset="1" stop-color="#409AED"/>
</linearGradient>
</defs>
</svg>
